<svg width="183" height="42" viewBox="0 0 183 42" fill="none" xmlns="http://www.w3.org/2000/svg">
<path d="M0.455 14.225V10.2H17.955V14.225H11.305V34H7.105V14.225H0.455ZM30.1383 19.93C29.0416 19.93 27.9916 20.105 26.9883 20.455C26.0083 20.7817 25.0633 21.3183 24.1533 22.065V34H20.1283V16.255H23.9433V18.985C25.1333 17.865 26.1949 17.0717 27.1283 16.605C28.0616 16.1383 29.0649 15.905 30.1383 15.905V19.93ZM47.1034 34.175C45.9134 34.175 44.9568 33.93 44.2334 33.44C43.5334 32.95 43.0201 32.3433 42.6934 31.62C41.6901 32.5533 40.7218 33.2417 39.7884 33.685C38.8551 34.1283 37.8518 34.35 36.7784 34.35C35.2151 34.35 34.0601 33.8483 33.3134 32.845C32.5901 31.8417 32.2284 30.57 32.2284 29.03C32.2284 28.0033 32.4151 27.105 32.7884 26.335C33.1851 25.5417 33.8268 24.9233 34.7134 24.48C35.6001 24.0367 36.8134 23.815 38.3534 23.815C38.9601 23.815 39.5901 23.8617 40.2434 23.955C40.8968 24.025 41.5501 24.1183 42.2034 24.235V22.17C42.2034 21.19 41.9351 20.525 41.3984 20.175C40.8618 19.8017 40.1384 19.615 39.2284 19.615C38.5284 19.615 37.7584 19.7083 36.9184 19.895C36.1018 20.0817 35.2151 20.3733 34.2584 20.77L33.1034 17.34C35.4601 16.3833 37.5951 15.905 39.5084 15.905C41.2351 15.905 42.5651 16.1967 43.4984 16.78C44.4551 17.3633 45.1201 18.1333 45.4934 19.09C45.8668 20.0467 46.0534 21.0733 46.0534 22.17V28.995C46.0534 29.345 46.1468 29.6833 46.3334 30.01C46.5434 30.3133 46.9401 30.465 47.5234 30.465H47.9084V34.175H47.1034ZM36.1134 28.96C36.1134 29.59 36.2534 30.0917 36.5334 30.465C36.8134 30.815 37.2218 30.99 37.7584 30.99C38.2951 30.99 38.9018 30.85 39.5784 30.57C40.2551 30.29 41.1301 29.6367 42.2034 28.61V27.105C40.9901 26.895 39.8001 26.79 38.6334 26.79C37.7234 26.79 37.0701 26.9767 36.6734 27.35C36.3001 27.7233 36.1134 28.26 36.1134 28.96ZM56.3727 30.85C57.236 30.85 57.9477 30.71 58.5077 30.43C59.0677 30.1267 59.3477 29.6833 59.3477 29.1C59.3477 28.5867 59.161 28.19 58.7877 27.91C58.4377 27.6067 57.796 27.3383 56.8627 27.105L54.8677 26.58C53.3277 26.1833 52.1844 25.5183 51.4377 24.585C50.7144 23.6517 50.3527 22.5433 50.3527 21.26C50.3527 19.7433 50.8777 18.4717 51.9277 17.445C52.9777 16.4183 54.5994 15.905 56.7927 15.905C57.6794 15.905 58.6127 16.01 59.5927 16.22C60.5727 16.43 61.5994 16.7683 62.6727 17.235L61.5177 20.665C60.5377 20.1983 59.651 19.8717 58.8577 19.685C58.0644 19.4983 57.3644 19.405 56.7577 19.405C55.101 19.405 54.2727 19.965 54.2727 21.085C54.2727 21.5283 54.4127 21.8783 54.6927 22.135C54.996 22.3917 55.5444 22.625 56.3377 22.835L58.3327 23.36C60.036 23.8033 61.2727 24.48 62.0427 25.39C62.836 26.3 63.2327 27.4433 63.2327 28.82C63.2327 30.4533 62.6727 31.7833 61.5527 32.81C60.456 33.8367 58.7177 34.35 56.3377 34.35C54.3077 34.35 52.1727 33.8833 49.9327 32.95L51.0177 29.625C52.1144 30.0683 53.106 30.3833 53.9927 30.57C54.8794 30.7567 55.6727 30.85 56.3727 30.85ZM76.0446 19.65C75.4613 19.65 74.7963 19.79 74.0496 20.07C73.3029 20.35 72.4163 20.8983 71.3896 21.715V34H67.3646V8.1H71.3896V18.46C72.4629 17.55 73.4663 16.8967 74.3996 16.5C75.3329 16.1033 76.2896 15.905 77.2696 15.905C78.9729 15.905 80.2679 16.4533 81.1546 17.55C82.0413 18.6233 82.4846 20.14 82.4846 22.1V34H78.4596V22.59C78.4596 20.63 77.6546 19.65 76.0446 19.65ZM119.576 24.585C119.576 26.2883 119.95 27.6883 120.696 28.785C121.443 29.8583 122.668 30.395 124.371 30.395C125.071 30.395 125.795 30.3017 126.541 30.115C127.311 29.9283 128.256 29.6133 129.376 29.17L130.671 32.81C129.411 33.37 128.245 33.7667 127.171 34C126.121 34.2333 125.106 34.35 124.126 34.35C122.166 34.35 120.521 33.93 119.191 33.09C117.885 32.25 116.905 31.095 116.251 29.625C115.598 28.155 115.271 26.475 115.271 24.585V19.58C115.271 17.69 115.598 16.01 116.251 14.54C116.905 13.07 117.885 11.9267 119.191 11.11C120.521 10.27 122.166 9.85 124.126 9.85C125.083 9.85 126.075 9.96667 127.101 10.2C128.128 10.41 129.248 10.7833 130.461 11.32L129.166 15.03C128.093 14.5867 127.195 14.2717 126.471 14.085C125.748 13.8983 125.048 13.805 124.371 13.805C122.668 13.805 121.443 14.3417 120.696 15.415C119.95 16.4883 119.576 17.8767 119.576 19.58V24.585ZM144.414 34V31.655C143.341 32.5883 142.337 33.2767 141.404 33.72C140.471 34.14 139.526 34.35 138.569 34.35C136.982 34.35 135.757 33.8133 134.894 32.74C134.031 31.6433 133.599 30.115 133.599 28.155V16.255H137.624V27.665C137.624 29.625 138.347 30.605 139.794 30.605C140.377 30.605 141.007 30.465 141.684 30.185C142.384 29.905 143.224 29.3683 144.204 28.575V16.255H148.229V34H144.414ZM163.781 19.93C162.684 19.93 161.634 20.105 160.631 20.455C159.651 20.7817 158.706 21.3183 157.796 22.065V34H153.771V16.255H157.586V18.985C158.776 17.865 159.838 17.0717 160.771 16.605C161.704 16.1383 162.708 15.905 163.781 15.905V19.93ZM180.781 32.985C179.568 33.475 178.424 33.825 177.351 34.035C176.278 34.245 175.263 34.35 174.306 34.35C171.669 34.35 169.674 33.6033 168.321 32.11C166.968 30.6167 166.291 28.6333 166.291 26.16V24.06C166.291 22.4033 166.594 20.9683 167.201 19.755C167.808 18.5417 168.671 17.5967 169.791 16.92C170.911 16.2433 172.229 15.905 173.746 15.905C174.983 15.905 176.138 16.1617 177.211 16.675C178.308 17.165 179.194 17.9467 179.871 19.02C180.571 20.07 180.921 21.4233 180.921 23.08C180.921 23.57 180.886 24.095 180.816 24.655C180.746 25.1917 180.629 25.7633 180.466 26.37H170.176C170.223 27.8167 170.584 28.9017 171.261 29.625C171.938 30.3483 173.023 30.71 174.516 30.71C175.309 30.71 176.126 30.6167 176.966 30.43C177.829 30.2433 178.716 29.9633 179.626 29.59L180.781 32.985ZM173.746 19.3C172.673 19.3 171.833 19.65 171.226 20.35C170.643 21.0267 170.304 22.0067 170.211 23.29H176.931C176.954 23.1733 176.966 23.0683 176.966 22.975C176.966 22.8583 176.966 22.7533 176.966 22.66C176.966 21.54 176.651 20.7 176.021 20.14C175.391 19.58 174.633 19.3 173.746 19.3Z" fill="#38761D"/>
<path fill-rule="evenodd" clip-rule="evenodd" d="M106.081 17.5779L102.976 17.0932L99.869 16.6082L101.692 15.6033L98.5646 9.69572C98.5646 9.69572 97.3659 6.91468 95.1788 6.63081L102.53 6.62109C102.53 6.62109 104.01 6.66444 105.649 9.35772L107.432 12.4412L108.693 11.7465L107.386 14.6616L106.081 17.5779ZM95.5466 7.7599C95.5466 7.7599 96.7422 8.12495 97.8667 10.8226L94.9184 15.702L89.3801 12.2431L91.394 8.87038C91.394 8.87038 93.3161 6.33223 95.5466 7.7599ZM88.8542 27.1107C88.8542 27.1107 87.1087 29.5742 87.9752 31.6405L84.2487 25.1781C84.2487 25.1781 83.5359 23.8535 84.9835 21.0497L86.6864 17.9181L85.4609 17.1608L88.5871 16.8339L91.7136 16.5078L92.8743 19.4862L94.0379 22.4651L92.2665 21.3684L88.8542 27.1107ZM88.9516 30.6253C88.8731 33.3123 91.9919 33.7182 91.9919 33.7182L95.8633 33.7836L95.9841 27.1586L90.3671 27.0352C88.6553 29.3894 88.9516 30.6253 88.9516 30.6253ZM101.995 27.2591H108.577C108.577 27.2591 111.545 27.5034 112.829 25.6763L109.345 32.2811C109.345 32.2811 108.604 33.5876 105.503 33.7787L101.995 33.914V35.3776L100.102 32.8188L98.2073 30.2606L100.102 27.7027L101.995 25.1444V27.2591ZM110.386 17.7559L104.772 21.0834L107.579 26.0486C110.439 26.3208 111.321 25.4207 111.321 25.4207C113.613 24.0978 112.338 21.1645 112.338 21.1645L110.386 17.7559Z" fill="#FFD966"/>
</svg>
