<svg width="38" height="39" viewBox="0 0 38 39" fill="none" xmlns="http://www.w3.org/2000/svg">
<g clip-path="url(#clip0_62_777)">
<path d="M34.7564 3.90039H32.0421V5.20039H34.7564C35.8807 5.20039 36.7921 6.0735 36.7921 7.15039V24.7004H1.50643V7.15039C1.50643 6.0735 2.41793 5.20039 3.54215 5.20039H6.25643V3.90039H3.54215C1.66912 3.90258 0.151582 5.35623 0.149292 7.15039V27.9504C0.151582 29.7445 1.66912 31.1982 3.54215 31.2004H13.6306L13.1217 35.1004H12.3636C12.1836 35.1004 12.011 35.1689 11.8838 35.2908C11.7565 35.4127 11.685 35.578 11.685 35.7504V37.7004H8.97072V39.0004H29.3279V37.7004H26.6136V35.7504C26.6136 35.578 26.5421 35.4127 26.4148 35.2908C26.2876 35.1689 26.115 35.1004 25.935 35.1004H25.1769L24.6679 31.2004H34.7564C36.6295 31.1982 38.147 29.7445 38.1493 27.9504V7.15039C38.147 5.35623 36.6295 3.90258 34.7564 3.90039ZM25.2564 37.7004H13.0421V36.4004H25.2564V37.7004ZM23.8091 35.1004H14.4895L14.9984 31.2004H23.3003L23.8091 35.1004ZM34.7564 29.9004H3.54215C2.41793 29.9004 1.50643 29.0273 1.50643 27.9504V26.0004H36.7921V27.9504C36.7921 29.0273 35.8807 29.9004 34.7564 29.9004Z" fill="#38761D"/>
<path d="M34.0778 27.3H35.435V28.6H34.0778V27.3ZM9.64924 21.45H28.6492C29.7735 21.45 30.685 20.5769 30.685 19.5V3.9C30.685 2.82311 29.7735 1.95 28.6492 1.95H25.935C25.935 0.873112 25.0235 0 23.8992 0C22.775 0 21.8635 0.873112 21.8635 1.95H16.435C16.435 0.873112 15.5235 0 14.3992 0C13.275 0 12.3635 0.873112 12.3635 1.95H9.64924C8.52502 1.95 7.61353 2.82311 7.61353 3.9V19.5C7.61353 20.5769 8.52502 21.45 9.64924 21.45ZM28.6492 20.15H9.64924C9.46927 20.15 9.29667 20.0815 9.16942 19.9596C9.04216 19.8377 8.97067 19.6724 8.97067 19.5V7.15H29.3278V19.5C29.3278 19.6724 29.2563 19.8377 29.1291 19.9596C29.0018 20.0815 28.8292 20.15 28.6492 20.15ZM23.2207 1.95C23.2207 1.77761 23.2922 1.61228 23.4194 1.49038C23.5467 1.36848 23.7193 1.3 23.8992 1.3C24.0792 1.3 24.2518 1.36848 24.3791 1.49038C24.5063 1.61228 24.5778 1.77761 24.5778 1.95V3.25C24.5778 3.42239 24.5063 3.58772 24.3791 3.70962C24.2518 3.83152 24.0792 3.9 23.8992 3.9C23.7193 3.9 23.5467 3.83152 23.4194 3.70962C23.2922 3.58772 23.2207 3.42239 23.2207 3.25V1.95ZM13.7207 1.95C13.7207 1.77761 13.7922 1.61228 13.9194 1.49038C14.0467 1.36848 14.2193 1.3 14.3992 1.3C14.5792 1.3 14.7518 1.36848 14.8791 1.49038C15.0063 1.61228 15.0778 1.77761 15.0778 1.95V3.25C15.0778 3.42239 15.0063 3.58772 14.8791 3.70962C14.7518 3.83152 14.5792 3.9 14.3992 3.9C14.2193 3.9 14.0467 3.83152 13.9194 3.70962C13.7922 3.58772 13.7207 3.42239 13.7207 3.25V1.95ZM9.64924 3.25H12.3635C12.3635 4.32689 13.275 5.2 14.3992 5.2C15.5235 5.2 16.435 4.32689 16.435 3.25H21.8635C21.8635 4.32689 22.775 5.2 23.8992 5.2C25.0235 5.2 25.935 4.32689 25.935 3.25H28.6492C28.8292 3.25 29.0018 3.31848 29.1291 3.44038C29.2563 3.56228 29.3278 3.72761 29.3278 3.9V5.85H8.97067V3.9C8.97067 3.72761 9.04216 3.56228 9.16942 3.44038C9.29667 3.31848 9.46927 3.25 9.64924 3.25Z" fill="#38761D"/>
<path d="M14.3992 9.09961H13.0421C12.2926 9.09961 11.6849 9.68168 11.6849 10.3996V11.6996C11.6849 12.4175 12.2926 12.9996 13.0421 12.9996H14.3992C15.1487 12.9996 15.7564 12.4175 15.7564 11.6996V10.3996C15.7564 9.68168 15.1487 9.09961 14.3992 9.09961ZM13.0421 11.6996V10.3996H14.3992V11.6996H13.0421ZM19.8278 9.09961H18.4706C17.7212 9.09961 17.1135 9.68168 17.1135 10.3996V11.6996C17.1135 12.4175 17.7212 12.9996 18.4706 12.9996H19.8278C20.5773 12.9996 21.1849 12.4175 21.1849 11.6996V10.3996C21.1849 9.68168 20.5773 9.09961 19.8278 9.09961ZM18.4706 11.6996V10.3996H19.8278V11.6996H18.4706ZM25.2564 9.09961H23.8992C23.1497 9.09961 22.5421 9.68168 22.5421 10.3996V11.6996C22.5421 12.4175 23.1497 12.9996 23.8992 12.9996H25.2564C26.0058 12.9996 26.6135 12.4175 26.6135 11.6996V10.3996C26.6135 9.68168 26.0058 9.09961 25.2564 9.09961ZM23.8992 11.6996V10.3996H25.2564V11.6996H23.8992ZM19.8278 14.2996H18.4706C17.7212 14.2996 17.1135 14.8817 17.1135 15.5996V16.8996C17.1135 17.6175 17.7212 18.1996 18.4706 18.1996H19.8278C20.5773 18.1996 21.1849 17.6175 21.1849 16.8996V15.5996C21.1849 14.8817 20.5773 14.2996 19.8278 14.2996ZM18.4706 16.8996V15.5996H19.8278V16.8996H18.4706ZM14.3992 14.2996H13.0421C12.2926 14.2996 11.6849 14.8817 11.6849 15.5996V16.8996C11.6849 17.6175 12.2926 18.1996 13.0421 18.1996H14.3992C15.1487 18.1996 15.7564 17.6175 15.7564 16.8996V15.5996C15.7564 14.8817 15.1487 14.2996 14.3992 14.2996ZM13.0421 16.8996V15.5996H14.3992V16.8996H13.0421ZM25.2564 14.2996H23.8992C23.1497 14.2996 22.5421 14.8817 22.5421 15.5996V16.8996C22.5421 17.6175 23.1497 18.1996 23.8992 18.1996H25.2564C26.0058 18.1996 26.6135 17.6175 26.6135 16.8996V15.5996C26.6135 14.8817 26.0058 14.2996 25.2564 14.2996ZM23.8992 16.8996V15.5996H25.2564V16.8996H23.8992Z" fill="#38761D"/>
</g>
<defs>
<clipPath id="clip0_62_777">
<rect width="38" height="39" fill="white"/>
</clipPath>
</defs>
</svg>
