<svg width="58" height="34" viewBox="0 0 58 34" fill="none" xmlns="http://www.w3.org/2000/svg">
<g clip-path="url(#clip0_62_712)">
<path d="M51.2068 29.3217C51.2068 26.6975 49.0796 24.5703 46.4554 24.5703C40.157 24.8311 40.1593 33.8065 46.4554 34.066C49.0768 34.066 51.203 31.943 51.2068 29.3217ZM43.1017 29.3217C43.1017 27.4656 44.6064 25.9609 46.4624 25.9609C50.9171 26.1452 50.9147 32.4911 46.4624 32.6754C44.609 32.6754 43.1055 31.175 43.1017 29.3217ZM24.0129 29.3217C24.0129 26.6975 21.8857 24.5703 19.2615 24.5703C12.9631 24.8311 12.9654 33.8065 19.2615 34.066C21.8829 34.066 24.009 31.943 24.0129 29.3217ZM15.9078 29.3217C15.9078 27.4656 17.4124 25.9609 19.2685 25.9609C23.722 26.1452 23.7208 32.4911 19.2685 32.6754C17.4151 32.6754 15.9116 31.175 15.9078 29.3217Z" fill="#38761D"/>
<path d="M48.7755 29.3217C48.7755 28.0416 47.7378 27.004 46.4577 27.004C43.3856 27.1315 43.3868 31.5097 46.4577 31.6394C47.7378 31.6394 48.7755 30.6018 48.7755 29.3217ZM45.5307 29.3217C45.5307 29.0758 45.6283 28.84 45.8022 28.6662C45.9761 28.4923 46.2119 28.3946 46.4577 28.3946C47.685 28.441 47.6838 30.2001 46.4577 30.2488C46.2125 30.2479 45.9775 30.1498 45.8044 29.976C45.6313 29.8023 45.5341 29.567 45.5341 29.3217H45.5307ZM21.5816 29.3217C21.5816 28.0416 20.5439 27.004 19.2638 27.004C16.1917 27.1315 16.1917 31.5097 19.2638 31.6394C20.5439 31.6394 21.5816 30.6018 21.5816 29.3217ZM18.3367 29.3217C18.3367 29.0758 18.4344 28.84 18.6083 28.6662C18.7821 28.4923 19.0179 28.3946 19.2638 28.3946C20.4899 28.441 20.4899 30.2001 19.2638 30.2488C19.0184 30.2482 18.7831 30.1502 18.6098 29.9764C18.4364 29.8027 18.3391 29.5672 18.3391 29.3217H18.3367ZM44.6522 16.996H50.946C52.1269 16.9956 53.0838 16.0379 53.0833 14.8571C53.0831 14.3953 52.9333 13.9459 52.6565 13.5762L49.7281 9.6697C49.5282 9.40489 49.2698 9.18989 48.9731 9.04153C48.6764 8.89316 48.3493 8.81544 48.0176 8.81445H44.6569C43.4771 8.81573 42.5212 9.77168 42.5199 10.9514V14.8579C42.5205 16.0363 43.4739 16.9922 44.6522 16.996ZM43.9059 10.9514C43.9062 10.7536 43.985 10.5639 44.1248 10.424C44.2647 10.2841 44.4544 10.2054 44.6522 10.2051H48.0129C48.1289 10.2054 48.2433 10.2325 48.347 10.2844C48.4508 10.3363 48.5411 10.4115 48.6109 10.5041L51.5394 14.4106C51.621 14.522 51.6703 14.6537 51.6819 14.7913C51.6936 14.929 51.667 15.0671 51.6052 15.1906C51.5434 15.3141 51.4487 15.4181 51.3316 15.4913C51.2145 15.5645 51.0795 15.604 50.9414 15.6054H44.6522C44.4542 15.6051 44.2644 15.5262 44.1244 15.3861C43.9845 15.2459 43.9059 15.056 43.9059 14.8579V10.9514ZM46.1947 17.5326H44.6627C44.4782 17.5326 44.3014 17.6058 44.171 17.7362C44.0406 17.8666 43.9673 18.0435 43.9673 18.2279C43.9673 18.4123 44.0406 18.5892 44.171 18.7196C44.3014 18.85 44.4782 18.9232 44.6627 18.9232H46.1947C47.1102 18.8954 47.1102 17.5616 46.1947 17.5326Z" fill="#38761D"/>
<path d="M57.5399 23.2384C57.7102 22.9775 57.8008 22.6726 57.8007 22.3611V20.6437C57.7994 20.2696 57.6689 19.9075 57.4314 19.6186C57.1938 19.3297 56.8637 19.1318 56.4969 19.0583C56.5989 16.8646 56.0079 14.6373 54.6683 12.8793L51.4733 8.6158C51.081 8.09529 50.5733 7.67286 49.9902 7.38169C49.4071 7.09053 48.7644 6.93857 48.1126 6.93777H42.0204C41.9533 6.93823 41.8865 6.94298 41.8199 6.95167V5.35708C41.8167 3.18235 40.0545 1.42018 37.8798 1.41694H20.7286C20.768 1.29062 20.9685 0.818966 20.9685 0.690332C20.9844 0.511766 20.9307 0.333964 20.8186 0.19404C20.7065 0.0541162 20.5448 -0.0371163 20.367 -0.0606125C20.3369 -0.0606125 20.3068 -0.0606119 20.2766 -0.0664062H11.9328C11.3866 -0.065506 10.8518 0.0897901 10.39 0.381569C9.92824 0.673348 9.55837 1.08972 9.32306 1.58266L2.05235 16.9446C1.87086 17.3303 1.77631 17.7513 1.77538 18.1776V23.6243H0.695319C0.510909 23.6243 0.334052 23.6975 0.203654 23.8279C0.0732566 23.9583 0 24.1352 0 24.3196L0 27.977C0 28.1614 0.0732566 28.3382 0.203654 28.4686C0.334052 28.599 0.510909 28.6723 0.695319 28.6723H2.03033C2.25958 29.1759 2.62877 29.6031 3.09393 29.9029C3.55909 30.2026 4.10062 30.3624 4.654 30.3631H9.65218C9.77546 30.3617 9.89625 30.3282 10.0026 30.2658C10.1089 30.2034 10.197 30.1143 10.2583 30.0073C10.2907 29.9644 10.5329 29.2737 10.5596 29.2065H13.5274C13.6951 29.2064 13.8572 29.1458 13.9836 29.0357C14.1101 28.9256 14.1926 28.7735 14.2158 28.6074C14.6265 25.8213 17.2181 23.8959 20.004 24.3066C22.2267 24.6343 23.973 26.3782 24.3037 28.6004C24.3272 28.7663 24.4097 28.9181 24.5362 29.028C24.6627 29.1379 24.8245 29.1984 24.9921 29.1984L40.7213 29.2065C40.8892 29.2067 41.0515 29.1462 41.1783 29.036C41.305 28.9259 41.3876 28.7737 41.4109 28.6074C42.3716 22.8049 50.53 22.8026 51.493 28.6004C51.5164 28.7663 51.599 28.9181 51.7255 29.028C51.8519 29.1379 52.0138 29.1984 52.1813 29.1984H56.4089C57.2875 29.1971 57.9993 28.4848 58 27.6061V24.3613C58.0009 24.1531 57.9607 23.9467 57.8817 23.754C57.8028 23.5613 57.6866 23.3861 57.5399 23.2384ZM56.1852 20.4188C56.2448 20.4188 56.302 20.4425 56.3442 20.4847C56.3863 20.5268 56.41 20.584 56.41 20.6437V22.3611C56.41 22.4207 56.3863 22.4779 56.3442 22.5201C56.302 22.5622 56.2448 22.5859 56.1852 22.5859H55.5235V20.4188H56.1852ZM42.0204 8.32841H48.1149C48.5495 8.32975 48.978 8.43173 49.3666 8.62635C49.7552 8.82097 50.0935 9.10295 50.355 9.45019L53.5511 13.7125C54.71 15.226 55.1944 17.1485 55.1017 19.034C54.8353 19.0626 54.5889 19.1885 54.4096 19.3876C54.2304 19.5867 54.131 19.845 54.1306 20.1129V22.7713H41.8199V8.52889C41.8199 8.41822 41.9097 8.32841 42.0204 8.32841ZM37.8775 2.80642C39.2855 2.80642 40.427 3.9479 40.427 5.35592V22.7713H12.9167L20.2175 2.80642H37.8775ZM1.39064 25.0172H1.77538V27.2839H1.39064V25.0172ZM3.16602 27.4821V18.1776C3.16512 17.9571 3.21259 17.7392 3.30508 17.5391L10.5793 2.17368C10.7007 1.91864 10.8918 1.70313 11.1305 1.55202C11.3692 1.4009 11.6457 1.32033 11.9282 1.3196H19.2754L17.3644 6.54839H13.2817C13.0973 6.54839 12.9205 6.62165 12.7901 6.75204C12.6597 6.88244 12.5864 7.0593 12.5864 7.24371C12.5864 7.42812 12.6597 7.60498 12.7901 7.73537C12.9205 7.86577 13.0973 7.93903 13.2817 7.93903H16.8557L14.6214 14.0532H10.5584C10.374 14.0532 10.1971 14.1265 10.0667 14.2569C9.93635 14.3872 9.86309 14.5641 9.86309 14.7485C9.86309 14.9329 9.93635 15.1098 10.0667 15.2402C10.1971 15.3706 10.374 15.4438 10.5584 15.4438H14.1126L11.8807 21.5615H7.83508C7.65067 21.5615 7.47381 21.6347 7.34342 21.7651C7.21302 21.8955 7.13976 22.0724 7.13976 22.2568C7.13976 22.4412 7.21302 22.6181 7.34342 22.7485C7.47381 22.8789 7.65067 22.9521 7.83508 22.9521H11.3696L9.3022 28.6097L9.16893 28.9747H4.65863C3.8348 28.9735 3.16729 28.306 3.16602 27.4821ZM12.9573 27.8159H11.0695L12.4045 24.162H15.3573C14.1588 25.0657 13.3106 26.357 12.9573 27.8159ZM40.1512 27.8159L25.5715 27.8089C25.2182 26.354 24.3728 25.066 23.1784 24.1631H42.5454C41.3517 25.0682 40.5078 26.3583 40.157 27.8147L40.1512 27.8159ZM56.6186 27.6073C56.6186 27.6606 56.5975 27.7117 56.56 27.7494C56.5224 27.7872 56.4714 27.8086 56.4181 27.8089H52.7654C52.4122 26.354 51.5667 25.066 50.3724 24.1631H56.4181C56.4714 24.1634 56.5224 24.1848 56.56 24.2226C56.5975 24.2604 56.6186 24.3115 56.6186 24.3648V27.6073Z" fill="#38761D"/>
<path d="M35.1054 9.74952L32.7402 11.1181C32.1258 11.4739 31.9153 12.2599 32.2697 12.875L33.6429 15.2541H32.6011V14.2181C32.6017 14.0645 32.5515 13.9151 32.4582 13.793C32.365 13.671 32.2339 13.5833 32.0856 13.5436C31.9372 13.5039 31.7799 13.5144 31.6381 13.5736C31.4964 13.6327 31.3782 13.7371 31.302 13.8704L29.1941 17.5637C29.1341 17.6687 29.1025 17.7876 29.1025 17.9085C29.1025 18.0294 29.1341 18.1483 29.1941 18.2533L31.302 21.9443C31.3782 22.0776 31.4964 22.182 31.6381 22.2411C31.7799 22.3002 31.9372 22.3108 32.0856 22.2711C32.2339 22.2314 32.365 22.1437 32.4582 22.0217C32.5515 21.8996 32.6017 21.7502 32.6011 21.5966V20.5606H34.0648C34.4189 20.561 34.7676 20.4735 35.0795 20.3058C35.3915 20.1381 35.6568 19.8955 35.8517 19.5999C35.8656 19.5732 38.5542 15.5126 38.5658 15.4894C38.7793 15.1592 38.8973 14.7763 38.9067 14.3832C38.9161 13.9901 38.8166 13.6021 38.6191 13.262L36.8623 10.2177C36.5037 9.60687 35.7204 9.39815 35.1054 9.74952ZM34.6917 18.835C34.6232 18.9386 34.5301 19.0237 34.4207 19.0825C34.3113 19.1414 34.189 19.1722 34.0648 19.1722H31.9058C31.7284 19.172 31.5576 19.2396 31.4284 19.3611L30.5986 17.9091L31.4284 16.4559C31.5576 16.5774 31.7284 16.645 31.9058 16.6448C32.987 16.632 35.1135 16.6807 36.1623 16.6088L34.6917 18.835ZM37.415 13.9585C37.4849 14.0793 37.5197 14.2171 37.5154 14.3566C37.5111 14.496 37.4679 14.6315 37.3907 14.7477C37.1265 15.1881 36.2318 15.2391 35.2433 15.253L33.5213 12.2701L35.7092 11.0069L37.415 13.9585ZM23.6107 9.57337L26.0593 10.7948C26.6955 11.1103 27.4671 10.851 27.7837 10.2154L29.0098 7.75628L29.5834 8.62195L28.7189 9.19327C28.5904 9.2777 28.4935 9.40233 28.4434 9.54768C28.3933 9.69303 28.3928 9.85089 28.4419 9.99658C28.491 10.1423 28.5871 10.2676 28.715 10.3529C28.8429 10.4382 28.9955 10.4787 29.1489 10.468L33.3891 10.1887C33.5107 10.1815 33.6281 10.1424 33.7298 10.0755C33.8315 10.0086 33.9138 9.91617 33.9686 9.80747L35.883 6.0145C35.9524 5.87756 35.9744 5.72152 35.9458 5.57072C35.9172 5.41992 35.8394 5.28283 35.7247 5.18083C35.61 5.07883 35.4648 5.01765 35.3117 5.00683C35.1586 4.99601 35.0062 5.03616 34.8783 5.12102L34.0149 5.6935L33.2037 4.47321C33.0091 4.17789 32.7441 3.93558 32.4326 3.76808C32.121 3.60059 31.7728 3.51317 31.4191 3.51367C31.3866 3.51367 26.5182 3.51367 26.4893 3.51947C26.0963 3.52349 25.7121 3.63629 25.3793 3.84534C25.0464 4.05439 24.778 4.35154 24.6038 4.70383L23.0335 7.8513C22.7186 8.48624 22.9766 9.25643 23.6107 9.57337ZM31.4156 4.90431C31.5396 4.90402 31.6617 4.93458 31.771 4.99325C31.8802 5.05192 31.9731 5.13685 32.0414 5.24038L33.2339 7.0401C33.3316 7.18784 33.4821 7.29271 33.6545 7.33329L32.9013 8.82707L31.2313 8.93716C31.2614 8.76257 31.2237 8.58309 31.1259 8.43537C30.5186 7.54073 29.3876 5.73869 28.7467 4.90547L31.4156 4.90431ZM25.8461 5.32498C25.9079 5.19983 26.0035 5.09451 26.1221 5.02097C26.2407 4.94743 26.3775 4.90862 26.5171 4.90895C27.042 4.89272 27.5601 5.60426 28.1233 6.41547L26.5866 9.49805L24.3245 8.37047L25.8461 5.32498ZM19.7296 11.5492L20.6277 12.0673L19.8953 13.335C19.7179 13.6413 19.6195 13.9869 19.6087 14.3407C19.598 14.6945 19.6754 15.0454 19.8339 15.3619L22.0242 19.7436C22.2012 20.1 22.4744 20.3998 22.813 20.6091C23.1515 20.8184 23.5418 20.9288 23.9398 20.9279H27.4534C28.1636 20.9272 28.7391 20.3517 28.7398 19.6416V16.9067C28.7391 16.1965 28.1636 15.621 27.4534 15.6203H24.7058L25.2249 14.7222L26.1219 15.2402C26.2547 15.3168 26.4091 15.3473 26.561 15.3271C26.7129 15.3068 26.8539 15.2369 26.962 15.1283C27.0701 15.0196 27.1393 14.8783 27.1588 14.7263C27.1783 14.5743 27.1471 14.4201 27.0699 14.2876L24.9283 10.6175C24.8676 10.5124 24.7805 10.425 24.6756 10.364C24.5707 10.3031 24.4516 10.2706 24.3303 10.2699L20.0773 10.2502C19.9237 10.2495 19.7742 10.2998 19.6522 10.393C19.5302 10.4863 19.4425 10.6174 19.4028 10.7657C19.3631 10.9141 19.3736 11.0714 19.4327 11.2131C19.4919 11.3549 19.5963 11.4731 19.7296 11.5492ZM27.3491 17.0063V19.5338H23.9398C23.8003 19.5344 23.6635 19.4958 23.5449 19.4225C23.4263 19.3491 23.3306 19.244 23.2688 19.1189C23.0196 18.6693 23.4206 17.8708 23.905 17.0063H27.3491ZM21.0994 14.0257L22.1795 12.1565C22.2687 12.0032 22.2952 11.8213 22.2536 11.6489L23.927 11.6559L24.7707 13.101C24.6009 13.152 24.4571 13.266 24.3685 13.4196C23.8436 14.3548 22.7288 16.1893 22.271 17.128L21.0785 14.7419C21.0227 14.6309 20.9954 14.5077 20.999 14.3835C21.0027 14.2593 21.0372 14.1379 21.0994 14.0304V14.0257Z" fill="#38761D"/>
</g>
<defs>
<clipPath id="clip0_62_712">
<rect width="58" height="34" fill="white"/>
</clipPath>
</defs>
</svg>
