<svg width="40" height="40" viewBox="0 0 40 40" fill="none" xmlns="http://www.w3.org/2000/svg">
<g clip-path="url(#clip0_62_787)">
<path d="M39.8452 14.0827L33.1786 6.23664C33.116 6.16318 33.0377 6.1041 32.9492 6.06355C32.8607 6.023 32.7643 6.00197 32.6666 6.00195H7.33369C7.23602 6.00185 7.13952 6.02282 7.05104 6.06338C6.96255 6.10394 6.88425 6.16309 6.82167 6.23664L0.155143 14.0827C0.0738208 14.178 0.0219545 14.2941 0.00565033 14.4173C-0.0106539 14.5406 0.00928279 14.6658 0.0631131 14.7783C0.116991 14.8908 0.202388 14.986 0.309333 15.0526C0.416279 15.1193 0.540359 15.1548 0.667087 15.1549H39.3331C39.4598 15.1548 39.5839 15.1193 39.6908 15.0526C39.7978 14.986 39.8832 14.8908 39.937 14.7783C39.9907 14.6658 40.0106 14.5406 39.9943 14.4174C39.9781 14.2942 39.9263 14.1781 39.8452 14.0827ZM2.0905 13.8473L7.64572 7.30896H32.354L37.9092 13.8473H2.0905Z" fill="#38761D"/>
<path d="M20.6167 6.40341C20.5662 6.28397 20.4807 6.1819 20.3711 6.1101C20.2615 6.03829 20.1326 5.99998 20.0007 6H7.3343C7.09563 6 6.87564 6.12489 6.75634 6.32825C6.63705 6.5316 6.63767 6.7807 6.75838 6.98336L11.4249 14.8294C11.4763 14.9157 11.5472 14.9894 11.6322 15.0447C11.7171 15.1 11.8138 15.1355 11.9149 15.1484C11.9436 15.1517 11.9723 15.1536 12.0002 15.1536C12.0879 15.1537 12.1747 15.1368 12.2557 15.1039C12.3367 15.0711 12.4103 15.0229 12.4723 14.9621L20.4721 7.11607C20.5654 7.02463 20.6289 6.90812 20.6547 6.78126C20.6804 6.6544 20.6672 6.5229 20.6167 6.40341ZM12.1402 13.438L8.49428 7.3077H18.3908L12.1402 13.438Z" fill="#38761D"/>
<path d="M39.9298 14.2099C39.8748 14.1006 39.7897 14.0085 39.6841 13.9442C39.5786 13.8798 39.4568 13.8457 39.3325 13.8457H0.666479C0.542203 13.8458 0.420424 13.8799 0.314878 13.9443C0.209333 14.0086 0.124222 14.1006 0.0691449 14.2099C0.0141397 14.3192 -0.00864273 14.4413 0.0033664 14.5626C0.0153755 14.684 0.0616986 14.7995 0.137112 14.8964L19.4701 39.7422C19.5962 39.9043 19.7922 39.9998 20.0001 39.9998C20.2081 39.9998 20.4041 39.9043 20.5288 39.7422L39.8618 14.8964C39.9372 14.7995 39.9835 14.6839 39.9955 14.5626C40.0075 14.4413 39.9848 14.3192 39.9298 14.2099ZM20.0001 38.2685L2.01442 15.1541H37.9859L20.0001 38.2685Z" fill="#38761D"/>
<path d="M20.6362 39.1482L12.6364 14.3024C12.5937 14.1698 12.509 14.054 12.3946 13.9718C12.2802 13.8896 12.1422 13.8453 12.0004 13.8453H0.667211C0.542935 13.8454 0.421156 13.8796 0.315611 13.9439C0.210066 14.0083 0.124954 14.1003 0.0698773 14.2095C0.0148721 14.3188 -0.00791031 14.441 0.00409882 14.5623C0.016108 14.6836 0.062431 14.7992 0.137845 14.896L19.4709 39.7418C19.533 39.8219 19.6131 39.8869 19.7051 39.9316C19.797 39.9763 19.8983 39.9995 20.0009 39.9994C20.1078 39.9998 20.2131 39.9742 20.3075 39.9249C20.4467 39.8541 20.556 39.7373 20.6162 39.5953C20.6763 39.4532 20.6834 39.2949 20.6362 39.1482ZM2.01453 15.1537H11.5117L18.2156 35.9745L2.01453 15.1537ZM33.2447 6.32825C33.1864 6.22844 33.1022 6.14552 33.0007 6.08788C32.8993 6.03024 32.784 5.99992 32.6667 6H20.0002C19.8684 5.99991 19.7394 6.03821 19.6297 6.11003C19.5201 6.18185 19.4346 6.28398 19.3841 6.40348C19.3337 6.52298 19.3205 6.65448 19.3463 6.78133C19.372 6.90818 19.4356 7.02467 19.5289 7.11607L27.5288 14.9621C27.5906 15.0229 27.6641 15.0711 27.7449 15.104C27.8258 15.1369 27.9126 15.1538 28.0001 15.1536C28.0288 15.1536 28.0575 15.1517 28.0861 15.1484C28.1872 15.1356 28.284 15.1001 28.3689 15.0448C28.4539 14.9895 28.5248 14.9158 28.5761 14.8294L33.2427 6.98336C33.3016 6.88394 33.3328 6.77107 33.3332 6.65607C33.3335 6.54107 33.303 6.42801 33.2447 6.32825ZM27.8601 13.438L21.6095 7.3077H31.506L27.8601 13.438Z" fill="#38761D"/>
<path d="M39.9312 14.2118C39.8762 14.1025 39.7911 14.0105 39.6855 13.9461C39.58 13.8818 39.4582 13.8477 39.3339 13.8477H28.0007C27.8589 13.8476 27.7208 13.8918 27.6064 13.974C27.492 14.0562 27.4073 14.1721 27.3647 14.3047L19.3648 39.1505C19.3178 39.2972 19.3249 39.4555 19.3851 39.5975C19.4452 39.7396 19.5544 39.8563 19.6935 39.9273C19.7882 39.9755 19.8934 40.0007 20.0001 40.0005C20.1026 40.0004 20.2036 39.9772 20.2955 39.9328C20.3874 39.8884 20.4676 39.8238 20.5301 39.7442L39.8632 14.8984C39.9386 14.8016 39.9849 14.686 39.9969 14.5646C40.009 14.4433 39.9862 14.3211 39.9312 14.2118ZM21.7849 35.9754L28.4887 15.1546H37.9859L21.7849 35.9754Z" fill="#38761D"/>
</g>
<defs>
<clipPath id="clip0_62_787">
<rect width="40" height="40" fill="white"/>
</clipPath>
</defs>
</svg>
