<svg width="34" height="34" viewBox="0 0 34 34" fill="none" xmlns="http://www.w3.org/2000/svg">
<path d="M28.44 27.0938H29.48C29.6179 27.0938 29.7502 27.0378 29.8477 26.9382C29.9452 26.8385 30 26.7034 30 26.5625V0.53125C30 0.390354 29.9452 0.255228 29.8477 0.1556C29.7502 0.0559708 29.6179 0 29.48 0L9.2 0C7.82134 0.00154679 6.49958 0.561752 5.52472 1.5577C4.54986 2.55366 4.00151 3.90401 4 5.3125V28.6875C4.00151 30.096 4.54986 31.4463 5.52472 32.4423C6.49958 33.4382 7.82134 33.9985 9.2 34H29.48C29.6179 34 29.7502 33.944 29.8477 33.8444C29.9452 33.7448 30 33.6096 30 33.4688V30.8125C30 30.6716 29.9452 30.5365 29.8477 30.4368C29.7502 30.3372 29.6179 30.2812 29.48 30.2812H28.44V27.0938ZM28.96 26.0312H10.24V1.0625H28.96V26.0312ZM28.96 32.9375H9.2C8.09708 32.9362 7.03969 32.4881 6.2598 31.6913C5.47992 30.8946 5.04124 29.8143 5.04 28.6875V5.3125C5.04124 4.18572 5.47992 3.10545 6.2598 2.30869C7.03969 1.51194 8.09708 1.06377 9.2 1.0625V26.0312C8.51044 26.0312 7.84912 26.3111 7.36152 26.8092C6.87393 27.3074 6.6 27.983 6.6 28.6875C6.6 29.392 6.87393 30.0676 7.36152 30.5658C7.84912 31.0639 8.51044 31.3438 9.2 31.3438H28.96V32.9375ZM9.2 30.2812C8.78626 30.2812 8.38947 30.1133 8.09691 29.8145C7.80436 29.5156 7.64 29.1102 7.64 28.6875C7.64 28.2648 7.80436 27.8594 8.09691 27.5605C8.38947 27.2617 8.78626 27.0938 9.2 27.0938H27.4V28.1562H9.2C9.06209 28.1562 8.92982 28.2122 8.8323 28.3118C8.73479 28.4115 8.68 28.5466 8.68 28.6875C8.68 28.8284 8.73479 28.9635 8.8323 29.0632C8.92982 29.1628 9.06209 29.2188 9.2 29.2188H27.4V30.2812H9.2Z" fill="#38761D"/>
<path d="M16.884 7.66863C16.9431 7.70374 17.0084 7.7266 17.0761 7.73592C17.1439 7.74523 17.2128 7.7408 17.2788 7.72289C17.3449 7.70498 17.4069 7.67393 17.4612 7.63153C17.5155 7.58913 17.5611 7.5362 17.5954 7.47578L19.3431 4.40356C19.3692 4.35661 19.407 4.31759 19.4527 4.29051C19.4984 4.26343 19.5503 4.24928 19.6031 4.2495C19.657 4.24875 19.7101 4.26273 19.7569 4.29001C19.8037 4.31729 19.8425 4.35686 19.8693 4.40462L21.4241 7.15225L20.3737 6.86431C20.2408 6.82863 20.0994 6.84822 19.9805 6.91877C19.8616 6.98933 19.7749 7.10512 19.7393 7.24081C19.7038 7.3765 19.7223 7.52105 19.7908 7.64284C19.8593 7.76463 19.9723 7.85374 20.1049 7.89069L22.3549 8.50694C22.49 8.53825 22.6316 8.5163 22.7515 8.44547C22.8713 8.37464 22.9606 8.26016 23.0013 8.12497L23.6045 5.82625C23.6394 5.69039 23.6203 5.54593 23.5512 5.42447C23.4821 5.30301 23.3688 5.21443 23.236 5.17812C23.1032 5.14181 22.9617 5.16072 22.8425 5.23071C22.7233 5.3007 22.636 5.41607 22.5999 5.55159L22.3211 6.61409L20.7726 3.87178C20.6549 3.66246 20.4848 3.48883 20.2799 3.36861C20.075 3.24839 19.8425 3.18591 19.6062 3.18753H19.6036C19.3681 3.18612 19.1364 3.2488 18.9324 3.36915C18.7284 3.4895 18.5595 3.66317 18.443 3.87231L16.6958 6.94241C16.6265 7.06421 16.6074 7.20915 16.6427 7.34534C16.678 7.48153 16.7648 7.59782 16.884 7.66863ZM13.9876 10.1761L15.0359 9.88925L13.4811 12.6337C13.3632 12.8427 13.3011 13.0798 13.301 13.321C13.3009 13.5623 13.3628 13.7994 13.4805 14.0086C13.5982 14.2177 13.7677 14.3916 13.9718 14.5129C14.176 14.6342 14.4077 14.6986 14.6439 14.6997L18.1221 14.705C18.2601 14.705 18.3923 14.6491 18.4898 14.5494C18.5874 14.4498 18.6421 14.3147 18.6421 14.1738C18.6421 14.0329 18.5874 13.8978 18.4898 13.7981C18.3923 13.6985 18.2601 13.6425 18.1221 13.6425L14.6465 13.6372C14.5925 13.6369 14.5396 13.6221 14.4929 13.5944C14.4463 13.5667 14.4076 13.5269 14.3807 13.4792C14.3537 13.4314 14.3395 13.3772 14.3394 13.3221C14.3394 13.267 14.3534 13.2128 14.3802 13.1649L15.9324 10.4247L16.2117 11.4873C16.2278 11.5563 16.2574 11.6213 16.2986 11.6784C16.3398 11.7356 16.3917 11.7837 16.4514 11.82C16.5111 11.8563 16.5773 11.88 16.6462 11.8898C16.715 11.8995 16.785 11.895 16.8521 11.8766C16.9192 11.8582 16.982 11.8263 17.0368 11.7827C17.0916 11.7391 17.1373 11.6847 17.1712 11.6228C17.2051 11.5608 17.2266 11.4926 17.2342 11.422C17.2419 11.3515 17.2356 11.2801 17.2158 11.2121L16.6152 8.91547C16.5761 8.77921 16.4871 8.66358 16.3668 8.59256C16.2464 8.52153 16.1039 8.50057 15.9688 8.53403L13.7183 9.15028C13.6507 9.16681 13.5871 9.19701 13.5311 9.23908C13.4752 9.28115 13.4281 9.33425 13.3925 9.39524C13.357 9.45623 13.3338 9.52387 13.3243 9.59417C13.3148 9.66448 13.3191 9.73602 13.3371 9.80456C13.3551 9.87311 13.3864 9.93728 13.4291 9.99328C13.4718 10.0493 13.525 10.096 13.5856 10.1306C13.6463 10.1652 13.7131 10.1871 13.7821 10.1949C13.8512 10.2028 13.921 10.1964 13.9876 10.1761ZM23.2774 9.36756C23.218 9.40218 23.1658 9.44845 23.1238 9.50372C23.0819 9.55899 23.0511 9.62217 23.0331 9.68964C23.0151 9.75711 23.0104 9.82754 23.0191 9.89689C23.0278 9.96624 23.0499 10.0332 23.084 10.0938L24.8156 13.175C24.843 13.2221 24.8574 13.2759 24.8574 13.3307C24.8574 13.3855 24.843 13.4392 24.8156 13.4863C24.7892 13.5348 24.7506 13.5752 24.7038 13.6032C24.657 13.6313 24.6036 13.6459 24.5493 13.6457H21.4496L22.2156 12.8632C22.2639 12.8139 22.3022 12.7553 22.3284 12.6908C22.3546 12.6264 22.368 12.5573 22.3681 12.4875C22.3681 12.4177 22.3547 12.3486 22.3285 12.2842C22.3024 12.2197 22.2641 12.1611 22.2158 12.1117C22.1676 12.0624 22.1102 12.0232 22.0472 11.9965C21.9841 11.9698 21.9164 11.956 21.8481 11.956C21.7798 11.9559 21.7122 11.9697 21.6491 11.9963C21.586 12.023 21.5286 12.0621 21.4803 12.1115L19.833 13.7913V13.795C19.784 13.8444 19.7451 13.9033 19.7186 13.9682C19.692 14.033 19.6783 14.1027 19.6783 14.173C19.6783 14.2433 19.692 14.3129 19.7186 14.3778C19.7451 14.4427 19.784 14.5016 19.833 14.551V14.5542L21.4803 16.2372C21.5784 16.3339 21.7097 16.3875 21.8461 16.3863C21.9824 16.3851 22.1128 16.3292 22.2093 16.2307C22.3057 16.1322 22.3604 15.9989 22.3615 15.8597C22.3627 15.7204 22.3103 15.5862 22.2156 15.486L21.4512 14.705H24.5504C24.7867 14.7054 25.0189 14.6422 25.2238 14.5218C25.4286 14.4014 25.5988 14.228 25.7173 14.0191C25.8357 13.8102 25.8983 13.5732 25.8987 13.3317C25.899 13.0903 25.8372 12.8531 25.7193 12.6438L23.9872 9.56253C23.9184 9.44057 23.8049 9.35153 23.6718 9.31497C23.5387 9.27842 23.3969 9.29733 23.2774 9.36756Z" fill="#38761D"/>
</svg>
