<svg width="32" height="31" viewBox="0 0 32 31" fill="none" xmlns="http://www.w3.org/2000/svg">
<path d="M31.4629 14.0674L26.6131 9.21765V3.61537C26.6131 2.6024 25.7922 1.78147 24.7778 1.78147C23.7656 1.78147 22.9448 2.6024 22.9448 3.61537V5.5494L19.3338 1.93824C17.5484 0.153883 14.4443 0.157048 12.6631 1.94147L0.536877 14.0674C-0.178959 14.7847 -0.178959 15.9452 0.536877 16.6614C1.25304 17.3785 2.41587 17.3785 3.13177 16.6614L15.2568 4.53513C15.6518 4.14221 16.348 4.14221 16.7409 4.53397L28.868 16.6614C29.2276 17.02 29.6965 17.1983 30.1652 17.1983C30.6348 17.1983 31.1044 17.0198 31.4629 16.6614C32.179 15.9453 32.179 14.7847 31.4629 14.0674Z" fill="#FFD966"/>
<path d="M16.637 8.01603C16.2847 7.66393 15.7142 7.66393 15.363 8.01603L4.69673 18.6791C4.52833 18.8474 4.43286 19.0773 4.43286 19.3171V27.0944C4.43286 28.9193 5.91259 30.399 7.73752 30.399H13.0184V22.2207H18.9804V30.399H24.2613C26.0862 30.399 27.5659 28.9193 27.5659 27.0944V19.3171C27.5659 19.0773 27.4713 18.8474 27.302 18.6791L16.637 8.01603Z" fill="#FFD966"/>
</svg>
