<svg width="32" height="33" viewBox="0 0 32 33" fill="none" xmlns="http://www.w3.org/2000/svg">
<g clip-path="url(#clip0_277_1366)">
<path d="M29.5897 27.0271L25.1152 21.3489C24.4882 20.5551 23.3369 20.419 22.5453 21.045L20.8202 22.4045C20.0236 23.0307 16.6154 23.39 13.1579 19.0061C9.70217 14.6219 10.7944 11.4311 11.5865 10.8052L13.3113 9.44501C14.1054 8.8203 14.2421 7.66934 13.6169 6.87467L9.14101 1.19726C8.51483 0.403158 7.36318 0.26753 6.56771 0.892694C6.56771 0.892694 4.81239 2.28115 4.79681 2.29457C2.3688 4.29727 1.48966 7.71527 2.32219 11.9475C3.04149 15.6038 5.00304 19.5994 7.83805 23.199C10.6778 26.797 14.1046 29.636 17.4936 31.1884C21.4622 33.0109 25.0309 32.9309 27.5482 30.9676C27.5517 30.9641 27.5566 30.9606 27.56 30.9576L29.2851 29.5982C30.0818 28.9719 30.2166 27.8216 29.5897 27.0271Z" fill="#FFD966"/>
</g>
<defs>
<clipPath id="clip0_277_1366">
<rect width="32" height="32" fill="white" transform="translate(0 0.5)"/>
</clipPath>
</defs>
</svg>
