<svg width="32" height="33" viewBox="0 0 32 33" fill="none" xmlns="http://www.w3.org/2000/svg">
<path d="M18.6743 20.1061C17.8782 20.6368 16.9534 20.9174 16 20.9174C15.0466 20.9174 14.1219 20.6368 13.3258 20.1061L0.213062 11.364C0.140312 11.3155 0.0694375 11.265 0 11.213V25.5378C0 27.1801 1.33281 28.4836 2.94581 28.4836H29.0541C30.6965 28.4836 31.9999 27.1508 31.9999 25.5378V11.2129C31.9304 11.265 31.8594 11.3157 31.7864 11.3643L18.6743 20.1061Z" fill="#FFD966"/>
<path d="M1.25312 9.80458L14.3658 18.5467C14.8622 18.8776 15.4311 19.0431 15.9999 19.0431C16.5689 19.0431 17.1378 18.8776 17.6342 18.5467L30.7469 9.80458C31.5316 9.28177 32 8.40677 32 7.46239C32 5.83858 30.6789 4.51758 29.0552 4.51758H2.94481C1.32106 4.51764 0 5.83864 0 7.46395C0 8.40677 0.4685 9.28177 1.25312 9.80458Z" fill="#FFD966"/>
</svg>
