<svg width="47" height="50" viewBox="0 0 47 50" fill="none" xmlns="http://www.w3.org/2000/svg">
<path d="M27.9343 6.08921C27.9343 8.03622 26.3531 9.61453 24.4025 9.61453H12.0947C10.1442 9.61453 8.56287 8.03622 8.56287 6.08921V3.52532C8.56287 1.57831 10.1442 0 12.0947 0H24.4025C26.353 0 27.9343 1.57831 27.9343 3.52532V6.08921ZM24.7236 3.52532C24.7236 3.34829 24.5797 3.20481 24.4025 3.20481H12.0947C12.0526 3.20477 12.0109 3.21302 11.9719 3.22911C11.933 3.24519 11.8976 3.26879 11.8678 3.29856C11.838 3.32832 11.8143 3.36367 11.7982 3.40258C11.782 3.44148 11.7737 3.48319 11.7737 3.52532V6.08921C11.7737 6.26624 11.9174 6.40972 12.0947 6.40972H24.4025C24.4446 6.40976 24.4864 6.40151 24.5253 6.38542C24.5642 6.36934 24.5996 6.34574 24.6294 6.31597C24.6592 6.28621 24.6829 6.25086 24.699 6.21195C24.7152 6.17305 24.7235 6.13134 24.7236 6.08921V3.52532ZM18.8372 26.066H30.2888V29.2708H18.8372V26.066ZM18.8372 16.4515H30.2888V19.6563H18.8372V16.4515ZM18.8372 35.7874H24.1885V38.9922H18.8372V35.7874ZM36.6277 50C31.0211 50 26.4597 45.4473 26.4597 39.8514C26.4597 34.2555 31.0211 29.7028 36.6277 29.7028C42.2343 29.7028 46.7958 34.2553 46.7958 39.8514C46.7958 45.4474 42.2343 50 36.6277 50ZM36.6277 32.7511C32.7052 32.7511 29.5139 35.9362 29.5139 39.8513C29.5139 43.7663 32.7052 46.9515 36.6277 46.9515C40.5503 46.9515 43.7415 43.7663 43.7415 39.8513C43.7415 35.9362 40.5503 32.7511 36.6277 32.7511ZM36.4963 22.327H33.2855V7.00908C33.2855 6.69765 32.982 6.40972 32.6943 6.40972H30.7169V3.20481H32.6943C34.7625 3.20481 36.4963 4.91945 36.4963 7.00908V22.327ZM33.2856 24.6772H36.4964V27.4548H33.2856V24.6772Z" fill="#FFD966"/>
<path d="M24.8297 47.3211H3.74947C1.68194 47.3211 0 45.6261 0 43.5574V7.00545C0 4.91592 1.68194 3.20117 3.74947 3.20117H6.10043V6.40598H3.74947C3.4625 6.40598 3.21079 6.69391 3.21079 7.00534V43.5574C3.21079 43.8589 3.45246 44.1162 3.74947 44.1162H24.8298L24.8297 47.3211ZM34.6464 43.0932L31.7415 40.1413L34.0299 37.8908L35.7862 39.6709L39.3101 36.0686L41.6071 38.3074L36.939 43.089C36.6388 43.3959 35.6027 44.0095 34.6464 43.0932Z" fill="#FFD966"/>
<path d="M8.57512 40.514L5.45728 37.1246L7.82351 34.9602L9.75856 37.0671L14.358 32.0644L16.7236 34.2315L10.941 40.5141C10.637 40.8449 9.52106 41.3996 8.57512 40.514ZM8.57512 30.8995L5.45728 27.5101L7.82351 25.3458L9.75856 27.4527L14.358 22.45L16.7236 24.6171L10.941 30.8997C10.637 31.2303 9.52106 31.785 8.57512 30.8995ZM8.57512 21.1781L5.45728 17.7887L7.82351 15.6243L9.75856 17.7312L14.358 12.7285L16.7236 14.8956L10.941 21.1782C10.637 21.5091 9.52106 22.0637 8.57512 21.1781Z" fill="#FFD966"/>
</svg>
