<svg width="65" height="40" viewBox="0 0 65 40" fill="none" xmlns="http://www.w3.org/2000/svg">
<path d="M18.5002 13H13.9692C13.3752 13 12.8162 13.262 12.4322 13.719L9.09925 17.719C8.59725 18.323 8.49225 19.138 8.82525 19.849C9.15625 20.559 9.85125 21 10.6352 21H18.5002C19.6032 21 20.5002 20.103 20.5002 19V15C20.5002 13.897 19.6032 13 18.5002 13ZM18.5002 19L10.6312 19.006L10.6362 19L13.9692 15H18.5002V19Z" fill="#FFD966"/>
<path d="M49.7123 16.5113L50.6682 17.9993H44.9143L45.2073 17.7063C45.5983 17.3153 45.5983 16.6833 45.2073 16.2923C44.8163 15.9013 44.1842 15.9013 43.7932 16.2923L41.7932 18.2923C41.4022 18.6833 41.4022 19.3153 41.7932 19.7063L43.7932 21.7063C43.9883 21.9013 44.2443 21.9993 44.5003 21.9993C44.7563 21.9993 45.0123 21.9013 45.2073 21.7063C45.5983 21.3153 45.5983 20.6833 45.2073 20.2923L44.9143 19.9993H52.5002C52.8663 19.9993 53.2022 19.7993 53.3782 19.4783C53.5532 19.1573 53.5392 18.7653 53.3412 18.4573L51.3943 15.4283C51.0973 14.9643 50.4793 14.8283 50.0123 15.1283C49.5483 15.4273 49.4133 16.0463 49.7123 16.5113Z" fill="#FFD966"/>
<path d="M48.2131 10.4842L44.3411 4.46025C43.9741 3.88825 43.0271 3.88825 42.6591 4.46025L40.0911 8.45625C39.7921 8.92125 39.9271 9.54025 40.3911 9.83825C40.8581 10.1392 41.4751 10.0022 41.7731 9.53825L43.5001 6.85125L46.6491 11.7502L46.1411 11.6582C45.5981 11.5532 45.0771 11.9192 44.9791 12.4632C44.8791 13.0062 45.2401 13.5262 45.7841 13.6252L48.5661 14.1312C48.6271 14.1432 48.6861 14.1482 48.7461 14.1482C49.2211 14.1482 49.6421 13.8102 49.7281 13.3272L50.2341 10.5452C50.3341 10.0022 49.9731 9.48225 49.4291 9.38325C48.8861 9.27825 48.3661 9.64425 48.2671 10.1882L48.2131 10.4842Z" fill="#FFD966"/>
<path d="M40.2958 11.1979C40.1418 10.6689 39.5918 10.3599 39.0558 10.5179L36.3398 11.3099C35.8098 11.4639 35.5058 12.0199 35.6598 12.5499C35.8138 13.0779 36.3628 13.3869 36.8998 13.2299L37.0468 13.1869L33.6588 18.4579C33.4608 18.7659 33.4468 19.1569 33.6218 19.4789C33.7978 19.7999 34.1338 19.9999 34.4998 19.9999H39.4938C40.0468 19.9999 40.4938 19.5529 40.4938 18.9999C40.4938 18.4469 40.0468 17.9999 39.4938 17.9999H36.3318L38.9898 13.8639L39.1678 14.4739C39.2948 14.9109 39.6938 15.1939 40.1278 15.1939C40.2198 15.1939 40.3148 15.1809 40.4078 15.1539C40.9378 14.9999 41.2418 14.4439 41.0878 13.9139L40.2958 11.1979Z" fill="#FFD966"/>
<path d="M19.5004 22H17.5004C16.9474 22 16.5004 22.447 16.5004 23C16.5004 23.553 16.9474 24 17.5004 24H19.5004C20.0534 24 20.5004 23.553 20.5004 23C20.5004 22.447 20.0534 22 19.5004 22Z" fill="#FFD966"/>
<path d="M62.5 23V10.414C62.5 9.888 62.286 9.372 61.914 9L53.5 0.586C53.128 0.214 52.612 0 52.086 0H26.5C25.397 0 24.5 0.897 24.5 2V23H23.5V11C23.5 9.897 22.603 9 21.5 9H12.949C12.379 9 11.834 9.244 11.454 9.672L4.007 18.05C3.68 18.416 3.5 18.889 3.5 19.38V27H1.5C0.947 27 0.5 27.447 0.5 28V32C0.5 32.553 0.947 33 1.5 33H3.5V34.5C3.5 35.327 4.173 36 5 36H6.5H8.601C9.066 38.279 11.085 40 13.5 40C15.915 40 17.934 38.279 18.399 36H20.5H22C22.827 36 23.5 35.327 23.5 34.5V34H24.5V35C24.5 35.553 24.947 36 25.5 36H31.5H35.601C36.066 38.279 38.085 40 40.5 40C42.915 40 44.934 38.279 45.399 36H49.601C50.066 38.279 52.085 40 54.5 40C56.915 40 58.934 38.279 59.399 36H62.5C63.603 36 64.5 35.103 64.5 34V25C64.5 23.897 63.603 23 62.5 23ZM60.5 10.414V24H56.5V6.414L60.5 10.414ZM54.5 4.414V24H44.5C44.5 24 44.053 24 43.5 24C42.947 24 42.5 24 42.5 24H32.5V2H42.5C42.5 2 42.947 2 43.5 2C44.053 2 44.5 2 44.5 2H52.086L54.5 4.414ZM26.5 2H30.5V24H26.5V2ZM2.5 31V29H3.5V31H2.5ZM13.5 38C11.846 38 10.5 36.654 10.5 35C10.5 33.346 11.846 32 13.5 32C15.154 32 16.5 33.346 16.5 35C16.5 36.654 15.154 38 13.5 38ZM13.5 30C11.086 30 9.066 31.721 8.601 34H7.59C8.068 31.167 10.532 29 13.5 29C16.468 29 18.931 31.167 19.41 34H18.399C17.934 31.721 15.914 30 13.5 30ZM30.5 34H26.5V32H30.5V34ZM40.5 38C38.846 38 37.5 36.654 37.5 35C37.5 33.346 38.846 32 40.5 32C42.154 32 43.5 33.346 43.5 35C43.5 36.654 42.154 38 40.5 38ZM40.5 30C38.086 30 36.066 31.721 35.601 34H34.59C35.068 31.167 37.532 29 40.5 29C43.468 29 45.931 31.167 46.41 34H45.399C44.934 31.721 42.914 30 40.5 30ZM54.5 38C52.846 38 51.5 36.654 51.5 35C51.5 33.346 52.846 32 54.5 32C56.154 32 57.5 33.346 57.5 35C57.5 36.654 56.154 38 54.5 38ZM54.5 30C52.086 30 50.066 31.721 49.601 34H48.59C49.068 31.167 51.532 29 54.5 29C57.468 29 59.931 31.167 60.41 34H59.399C58.934 31.721 56.914 30 54.5 30ZM62.5 34H62.431C61.936 30.06 58.572 27 54.5 27C51.492 27 48.866 28.669 47.5 31.13C46.134 28.669 43.508 27 40.5 27C36.428 27 33.064 30.06 32.569 34H32.5V31C32.5 30.447 32.053 30 31.5 30H25.5C24.947 30 24.5 30.447 24.5 31V32H23.5V30C23.5 29.447 23.053 29 22.5 29C21.947 29 21.5 29.447 21.5 30V34H21.437C20.944 30.06 17.572 27 13.5 27C9.428 27 6.056 30.06 5.562 34H5.5V32V28V19.38L12.949 11H21.5V27C21.5 27.553 21.947 28 22.5 28C23.053 28 23.5 27.553 23.5 27V25H24.5C24.5 25.553 24.947 26 25.5 26H61.5C62.053 26 62.5 25.553 62.5 25V34Z" fill="#FFD966"/>
</svg>
