<svg width="60" height="60" viewBox="0 0 60 60" fill="none" xmlns="http://www.w3.org/2000/svg">
<path d="M22.3596 16.7403C22.2159 17.1824 22.3573 17.6562 22.7196 17.9475L25.9457 20.5405L24.8598 24.5345C24.738 24.983 24.9021 25.4494 25.2784 25.723C25.6548 25.9961 26.1488 26.0081 26.5378 25.7536L30.0008 23.4867L33.4638 25.7537C33.6443 25.8726 33.8557 25.9362 34.0718 25.9366C34.3061 25.9362 34.5341 25.8614 34.723 25.723C35.0995 25.4497 35.2637 24.983 35.1416 24.5345L34.0557 20.5406L37.2816 17.9477C37.6442 17.6565 37.7856 17.1826 37.6419 16.7403C37.4982 16.2979 37.1052 15.9976 36.6409 15.9752L32.5068 15.7736L31.0377 11.9043C30.8727 11.4696 30.4656 11.1887 30.0007 11.1887C29.5357 11.1887 29.1286 11.4695 28.9637 11.9042L27.4945 15.7737L23.3607 15.9752C22.8962 15.9976 22.5032 16.2979 22.3596 16.7403ZM27.867 17.3198C28.0825 17.3093 28.2903 17.2362 28.4649 17.1093C28.6395 16.9825 28.7733 16.8074 28.8498 16.6056L30.0006 13.5749L31.1513 16.6059C31.228 16.8076 31.3618 16.9826 31.5363 17.1093C31.7109 17.2361 31.9187 17.3093 32.1341 17.3198L35.3721 17.4777L32.8452 19.5087C32.677 19.6439 32.5519 19.8252 32.4852 20.0304C32.4185 20.2357 32.4132 20.4559 32.4698 20.6641L33.3203 23.7924L30.6078 22.0168C30.4272 21.8986 30.2161 21.8357 30.0003 21.8357C29.7845 21.8357 29.5734 21.8987 29.3928 22.0169L26.6805 23.7924L27.531 20.6643C27.5877 20.4561 27.5824 20.2358 27.5157 20.0305C27.449 19.8252 27.3238 19.6438 27.1555 19.5087L24.6287 17.4778L27.867 17.3198ZM29.2193 8.64824V5.78125C29.2193 5.57405 29.3016 5.37533 29.4481 5.22882C29.5946 5.08231 29.7934 5 30.0006 5C30.2078 5 30.4065 5.08231 30.553 5.22882C30.6995 5.37533 30.7818 5.57405 30.7818 5.78125V8.64824C30.7818 8.85544 30.6995 9.05415 30.553 9.20066C30.4065 9.34717 30.2078 9.42948 30.0006 9.42948C29.7934 9.42948 29.5946 9.34717 29.4481 9.20066C29.3016 9.05415 29.2193 8.85544 29.2193 8.64824ZM33.977 13.2769C33.8384 13.123 33.7666 12.9202 33.7774 12.7133C33.7883 12.5064 33.8809 12.3123 34.0348 12.1736L37.2296 9.29687C37.3059 9.22821 37.3949 9.17525 37.4916 9.14099C37.5883 9.10674 37.6908 9.09187 37.7933 9.09723C37.8958 9.1026 37.9961 9.12809 38.0888 9.17225C38.1814 9.21642 38.2644 9.27839 38.333 9.35463C38.4017 9.43087 38.4546 9.51989 38.4889 9.6166C38.5231 9.71331 38.538 9.81582 38.5326 9.91828C38.5273 10.0207 38.5018 10.1211 38.4576 10.2137C38.4135 10.3063 38.3515 10.3893 38.2752 10.458L35.0803 13.3347C34.9371 13.4641 34.7508 13.5357 34.5578 13.5354C34.4482 13.5356 34.3399 13.5126 34.2398 13.4681C34.1398 13.4236 34.0502 13.3584 33.977 13.2769ZM21.6681 9.35468C21.7367 9.27843 21.8197 9.21644 21.9123 9.17227C22.0049 9.12809 22.1053 9.10259 22.2078 9.09723C22.3103 9.09186 22.4128 9.10672 22.5095 9.14098C22.6062 9.17523 22.6952 9.2282 22.7715 9.29687L25.9664 12.1736C26.1204 12.3123 26.213 12.5064 26.2238 12.7133C26.2346 12.9203 26.1628 13.123 26.0242 13.277C25.8855 13.431 25.6914 13.5236 25.4844 13.5344C25.2775 13.5452 25.0748 13.4734 24.9208 13.3347L21.7259 10.458C21.5719 10.3194 21.4793 10.1252 21.4685 9.91831C21.4576 9.7114 21.5294 9.50866 21.6681 9.35468ZM40.0234 17.9475L43.2495 20.5405L42.1636 24.5345C42.0417 24.983 42.2059 25.4494 42.5822 25.723C42.9582 25.9961 43.4524 26.008 43.8415 25.7536L47.3045 23.4867L50.7676 25.7537C50.9481 25.8726 51.1594 25.9362 51.3756 25.9366C51.6098 25.9362 51.8379 25.8614 52.0268 25.723C52.4031 25.4499 52.5673 24.9834 52.4453 24.5345L51.3595 20.5406L54.5854 17.9477C54.9479 17.6566 55.0893 17.1827 54.9455 16.7403C54.8019 16.2979 54.4089 15.9976 53.9446 15.9752L49.8106 15.7736L48.3415 11.9043C48.1766 11.4696 47.7695 11.1887 47.3045 11.1887C46.8395 11.1887 46.4324 11.4695 46.2674 11.9042L44.7984 15.7736L40.6646 15.9751C40.2 15.9975 39.807 16.2979 39.6633 16.7403C39.5196 17.1826 39.661 17.6565 40.0234 17.9475ZM45.1706 17.3198C45.3862 17.3093 45.5941 17.2362 45.7687 17.1093C45.9434 16.9824 46.0772 16.8074 46.1537 16.6055L47.3044 13.5748L48.455 16.6054C48.5316 16.8073 48.6654 16.9823 48.84 17.1092C49.0146 17.2361 49.2224 17.3092 49.438 17.3197L52.676 17.4776L50.1493 19.5084C49.981 19.6435 49.8558 19.8249 49.7891 20.0302C49.7224 20.2354 49.717 20.4557 49.7737 20.664L50.6241 23.7923L47.9117 22.0167C47.7311 21.8984 47.52 21.8355 47.3042 21.8355C47.0884 21.8355 46.8772 21.8985 46.6967 22.0168L43.9844 23.7923L44.8349 20.6642C44.8915 20.456 44.8862 20.2357 44.8195 20.0304C44.7528 19.8251 44.6277 19.6438 44.4594 19.5086L41.9326 17.4776L45.1706 17.3198ZM5.41565 17.9475L8.64172 20.5405L7.55588 24.5345C7.43401 24.983 7.59817 25.4494 7.97444 25.723C8.3508 25.9961 8.84485 26.0081 9.23381 25.7536L12.6968 23.4867L16.1599 25.7537C16.3404 25.8726 16.5517 25.9362 16.7679 25.9366C17.0021 25.9362 17.2301 25.8614 17.419 25.723C17.7953 25.4499 17.9596 24.9834 17.8376 24.5345L16.7518 20.5406L19.9776 17.9477C20.3399 17.6568 20.4814 17.183 20.3378 16.7398C20.1938 16.2977 19.8009 15.9975 19.3369 15.9751L15.2028 15.7735L13.7338 11.9043C13.5689 11.4696 13.1617 11.1887 12.6968 11.1887C12.2318 11.1887 11.8246 11.4695 11.6597 11.9042L10.1906 15.7736L6.05686 15.9751C5.59231 15.9975 5.19935 16.2979 5.05579 16.7398C4.91175 17.1823 5.05306 17.6564 5.41565 17.9475ZM10.5629 17.3198C10.7785 17.3093 10.9864 17.2362 11.161 17.1093C11.3356 16.9824 11.4694 16.8074 11.546 16.6055L12.6967 13.5748L13.8473 16.6054C13.9238 16.8073 14.0576 16.9823 14.2322 17.1092C14.4069 17.2361 14.6147 17.3092 14.8303 17.3197L18.0683 17.4776L15.5416 19.5084C15.3733 19.6435 15.2481 19.8249 15.1814 20.0302C15.1146 20.2354 15.1093 20.4557 15.1659 20.664L16.0164 23.7923L13.3039 22.0167C13.1234 21.8984 12.9122 21.8355 12.6964 21.8355C12.4806 21.8355 12.2695 21.8985 12.089 22.0168L9.37668 23.7923L10.2272 20.6642C10.2838 20.456 10.2785 20.2357 10.2118 20.0304C10.1451 19.8251 10.0199 19.6438 9.85168 19.5086L7.32483 17.4776L10.5629 17.3198ZM54.8776 46.4973C54.3279 44.7221 53.202 43.1282 51.7072 42.0088C51.0013 41.4795 50.2204 41.0587 49.3902 40.7601C50.5299 39.8656 51.2643 38.4769 51.2643 36.919C51.2643 34.227 49.0742 32.037 46.3823 32.037C43.6903 32.037 41.5001 34.227 41.5001 36.919C41.5001 38.475 42.2328 39.8623 43.3703 40.757C41.8457 41.3011 40.4952 42.2572 39.4609 43.5454C38.9737 42.8636 38.4145 42.2363 37.793 41.6741C36.543 40.5427 35.0613 39.6974 33.4512 39.1972C35.1441 38.0749 36.2632 36.1534 36.2632 33.9746C36.2632 30.5214 33.4538 27.7121 30.0007 27.7121C26.5475 27.7121 23.7381 30.5214 23.7381 33.9746C23.7381 36.1534 24.8571 38.0749 26.55 39.1972C24.9398 39.6974 23.4581 40.5427 22.2081 41.6741C21.5866 42.2362 21.0275 42.8636 20.5403 43.5453C19.5062 42.257 18.1556 41.3009 16.631 40.7567C17.7684 39.862 18.5011 38.4747 18.5011 36.9187C18.5011 34.2267 16.3109 32.0367 13.6191 32.0367C10.9271 32.0367 8.73694 34.2267 8.73694 36.9187C8.73694 38.4765 9.47131 39.8653 10.611 40.7598C9.78074 41.0584 8.99977 41.4793 8.29387 42.0085C6.79905 43.1278 5.67317 44.7218 5.12347 46.4969C4.86946 47.3168 5.01019 48.1489 5.51966 48.8402C6.02903 49.5312 6.78235 49.9116 7.64075 49.9116H18.4408V51.3216C18.4408 53.3499 20.0909 55 22.1192 55H37.8819C39.9101 55 41.5603 53.3499 41.5604 51.3216V49.912H52.3604C53.2189 49.912 53.9722 49.5315 54.4815 48.8405C54.9908 48.1493 55.1316 47.3171 54.8776 46.4973ZM46.3823 33.5995C48.2126 33.5995 49.7018 35.0886 49.7018 36.919C49.7018 38.7494 48.2126 40.2386 46.3823 40.2386C44.5518 40.2386 43.0626 38.7494 43.0626 36.919C43.0626 35.0886 44.5518 33.5995 46.3823 33.5995ZM25.3006 33.9746C25.3006 31.383 27.4091 29.2746 30.0007 29.2746C32.5923 29.2746 34.7007 31.383 34.7007 33.9746C34.7007 36.5654 32.5936 38.6732 30.0032 38.6745H29.998C27.4076 38.6731 25.3006 36.5653 25.3006 33.9746ZM13.6191 33.5991C15.4494 33.5991 16.9386 35.0882 16.9386 36.9186C16.9386 38.7491 15.4494 40.2382 13.6191 40.2382C11.7886 40.2382 10.2994 38.7491 10.2994 36.9186C10.2994 35.0882 11.7886 33.5991 13.6191 33.5991ZM18.5423 48.349H7.64084C7.28127 48.349 6.99085 48.2024 6.77747 47.9129C6.56399 47.6235 6.50979 47.3026 6.61614 46.9591C7.57161 43.8737 10.386 41.8007 13.6191 41.8007C16.0647 41.8007 18.2925 42.9823 19.6627 44.9826C19.1182 46.0404 18.7403 47.1759 18.5423 48.349ZM39.9979 51.3215C39.9978 52.4882 39.0486 53.4374 37.8819 53.4374H22.1192C20.9525 53.4374 20.0033 52.4882 20.0033 51.3215V49.1728C20.5689 44.0763 24.8584 40.2383 29.998 40.237L30.0007 40.2371L30.0032 40.237C35.1427 40.2384 39.4321 44.0763 39.9979 49.1728V51.3215ZM53.2238 47.9134C53.0104 48.2027 52.72 48.3494 52.3604 48.3494H41.459C41.2609 47.1763 40.883 46.0407 40.3386 44.9828C41.7089 42.9826 43.9367 41.8011 46.3822 41.8011C49.6153 41.8011 52.4296 43.8741 53.3851 46.9596C53.4914 47.3028 53.4371 47.6237 53.2238 47.9134Z" fill="#FFD966" stroke="#FFD966" stroke-width="0.5"/>
</svg>
