<svg width="50" height="50" viewBox="0 0 50 50" fill="none" xmlns="http://www.w3.org/2000/svg">
<path d="M41.2523 32.1932L33.3265 29.7148C32.0798 29.4825 30.2097 28.2432 30.2097 27.3913V25.9972C33.3265 23.5188 35.4638 19.1815 36.1763 15.6962C36.1763 15.6962 38.0464 15.8512 38.2245 14.1472V13.3727C38.2245 12.5208 37.423 11.7463 37.0668 11.4365C36.3544 8.26099 34.3952 5.55022 31.6345 3.76886C31.2783 3.53651 30.9221 3.14925 30.6549 2.68455C30.2097 1.91004 29.5863 1.67769 29.0519 1.52279C26.3803 0.825736 23.5306 0.825736 20.859 1.52279C20.3247 1.67769 19.7013 1.91004 19.256 2.68455C18.9889 3.0718 18.6327 3.45906 18.2764 3.69141C15.5158 5.47277 13.5566 8.26099 12.8442 11.359C12.3989 11.7463 11.6865 12.4433 11.6865 13.2953V14.0698C11.7755 15.7737 13.7347 15.6188 13.7347 15.6188C14.4471 19.1041 16.5844 23.4413 19.7013 25.9197V27.3138C19.7013 28.1658 17.9202 29.405 16.5844 29.6374L8.65863 32.1158C4.02783 33.5873 1 37.3824 1 41.6422V49H49V41.6422C48.9109 37.3824 45.8831 33.5873 41.2523 32.1932ZM40.0946 47.451H9.81633V41.952H40.0056V47.451H40.0946ZM12.4879 40.403V32.5805L14.269 32.0383V40.403H12.4879ZM35.6419 40.403V32.0383L37.423 32.5805V40.403H35.6419ZM13.3785 13.3727C13.3785 13.1404 13.8237 12.6757 14.18 12.4433L14.4471 12.2884C14.4471 12.2884 15.1596 7.56394 19.256 5.00807C19.8794 4.62081 20.4137 4.07866 20.7699 3.38161C20.859 3.14925 21.0371 3.0718 21.3043 2.99435C24.154 2.21985 27.2709 2.68455 28.5176 2.99435C28.7848 3.0718 28.8738 3.14925 29.0519 3.38161C29.4972 4.07866 30.0315 4.62081 30.5659 5.00807C35.0186 8.10609 35.3748 12.211 35.3748 12.211L35.6419 12.3659C35.9981 12.6757 36.4434 13.1404 36.4434 13.3727V14.1472H13.2894V13.3727H13.3785ZM15.4267 15.6962H34.3952C33.3265 20.4207 29.4082 26.5393 24.8664 26.5393C20.4137 26.4619 16.4954 20.3433 15.4267 15.6962ZM24.9555 28.0109C26.2022 28.0109 27.3599 27.7011 28.5176 27.0815V27.3138C28.5176 28.1658 29.052 28.9403 29.8534 29.6374L28.1614 31.1089H21.7495L20.0575 29.6374C20.859 29.0177 21.3933 28.1658 21.3933 27.3913V27.1589C22.462 27.7011 23.7087 28.0109 24.9555 28.0109ZM18.6327 30.5668L21.0371 32.6579H28.8738L31.2783 30.5668C31.8126 30.8766 33.8609 31.4187 33.8609 31.4187V40.3255H16.0501V31.4962C16.0501 31.4962 18.0983 30.8766 18.6327 30.5668ZM2.78108 41.6422C2.78108 38.0795 5.36364 34.8265 9.282 33.6648L10.7959 33.2001V40.4804H8.1243V47.5284H2.78108V41.6422ZM47.1299 47.451H41.7866V40.403H39.115V33.1226L40.6289 33.5873C44.5473 34.8265 47.1299 38.002 47.1299 41.5647V47.451Z" fill="#FFD966" stroke="#FFD966" stroke-width="0.5"/>
<path d="M11.5968 43.5117H15.159V45.0607H11.5968V43.5117ZM34.7508 43.5117H38.3129V45.0607H34.7508V43.5117Z" fill="#FFD966" stroke="#FFD966" stroke-width="0.5"/>
</svg>
