<svg width="72" height="72" viewBox="0 0 72 72" fill="none" xmlns="http://www.w3.org/2000/svg">
<path d="M36 54C34.22 54 32.4799 53.4722 30.9999 52.4832C29.5198 51.4943 28.3663 50.0887 27.6851 48.4442C27.0039 46.7996 26.8257 44.99 27.1729 43.2442C27.5202 41.4984 28.3774 39.8947 29.636 38.636C30.8947 37.3774 32.4984 36.5202 34.2442 36.1729C35.99 35.8257 37.7996 36.0039 39.4441 36.6851C41.0887 37.3663 42.4943 38.5198 43.4832 39.9999C44.4722 41.4799 45 43.22 45 45C44.9973 47.3861 44.0482 49.6738 42.361 51.361C40.6738 53.0483 38.3861 53.9973 36 54ZM36 38.25C34.665 38.25 33.3599 38.6459 32.2499 39.3876C31.1399 40.1293 30.2747 41.1835 29.7638 42.4169C29.2529 43.6503 29.1192 45.0075 29.3797 46.3169C29.6401 47.6262 30.283 48.829 31.227 49.773C32.171 50.717 33.3738 51.3599 34.6831 51.6203C35.9925 51.8808 37.3497 51.7471 38.5831 51.2362C39.8165 50.7253 40.8707 49.8601 41.6124 48.7501C42.3541 47.6401 42.75 46.335 42.75 45C42.7482 43.2103 42.0365 41.4945 40.771 40.229C39.5055 38.9635 37.7897 38.2518 36 38.25ZM49.5 68.625C49.2016 68.625 48.9155 68.5065 48.7045 68.2955C48.4935 68.0845 48.375 67.7984 48.375 67.5V60.75C48.375 59.6048 44.0066 57.375 36 57.375C27.9934 57.375 23.625 59.6048 23.625 60.75V67.5C23.625 67.7984 23.5065 68.0845 23.2955 68.2955C23.0845 68.5065 22.7984 68.625 22.5 68.625C22.2016 68.625 21.9155 68.5065 21.7045 68.2955C21.4935 68.0845 21.375 67.7984 21.375 67.5V60.75C21.375 57.0566 28.7325 55.125 36 55.125C43.2675 55.125 50.625 57.0566 50.625 60.75V67.5C50.625 67.7984 50.5065 68.0845 50.2955 68.2955C50.0845 68.5065 49.7984 68.625 49.5 68.625ZM55.125 48.375C53.345 48.375 51.6049 47.8472 50.1249 46.8582C48.6448 45.8693 47.4913 44.4637 46.8101 42.8192C46.1289 41.1746 45.9507 39.365 46.2979 37.6192C46.6452 35.8734 47.5024 34.2697 48.761 33.011C50.0197 31.7524 51.6234 30.8952 53.3692 30.5479C55.115 30.2007 56.9246 30.3789 58.5691 31.0601C60.2137 31.7413 61.6193 32.8948 62.6082 34.3749C63.5972 35.8549 64.125 37.595 64.125 39.375C64.1223 41.7611 63.1732 44.0488 61.486 45.736C59.7988 47.4233 57.5111 48.3723 55.125 48.375ZM55.125 32.625C53.79 32.625 52.4849 33.0209 51.3749 33.7626C50.2649 34.5043 49.3997 35.5585 48.8888 36.7919C48.3779 38.0253 48.2442 39.3825 48.5047 40.6919C48.7651 42.0012 49.408 43.204 50.352 44.148C51.296 45.092 52.4988 45.7349 53.8081 45.9953C55.1175 46.2558 56.4747 46.1221 57.7081 45.6112C58.9415 45.1003 59.9957 44.2351 60.7374 43.1251C61.4791 42.0151 61.875 40.71 61.875 39.375C61.8732 37.5853 61.1615 35.8695 59.896 34.604C58.6305 33.3385 56.9147 32.6268 55.125 32.625Z" fill="#38761D"/>
<path d="M68.625 62.9996C68.3266 62.9996 68.0405 62.8811 67.8295 62.6701C67.6185 62.4592 67.5 62.173 67.5 61.8746V55.1246C67.5 53.9794 63.1316 51.7496 55.125 51.7496C50.5125 51.7496 46.2375 52.554 43.9875 53.8489C43.8595 53.9239 43.7179 53.9729 43.5709 53.993C43.4239 54.0131 43.2744 54.0039 43.131 53.966C42.9875 53.9281 42.853 53.8622 42.7352 53.772C42.6173 53.6819 42.5185 53.5694 42.4443 53.4409C42.3701 53.3124 42.322 53.1705 42.3029 53.0234C42.2838 52.8763 42.294 52.7268 42.3328 52.5836C42.3717 52.4404 42.4385 52.3064 42.5294 52.1891C42.6203 52.0718 42.7335 51.9737 42.8625 51.9004C45.4781 50.3996 50.0625 49.4996 55.125 49.4996C62.3925 49.4996 69.75 51.4313 69.75 55.1246V61.8746C69.75 62.173 69.6315 62.4592 69.4205 62.6701C69.2095 62.8811 68.9234 62.9996 68.625 62.9996ZM16.875 48.3746C15.095 48.3746 13.3549 47.8468 11.8749 46.8579C10.3948 45.8689 9.24127 44.4633 8.56008 42.8188C7.8789 41.1743 7.70067 39.3647 8.04793 37.6188C8.3952 35.873 9.25237 34.2694 10.511 33.0107C11.7697 31.752 13.3734 30.8948 15.1192 30.5476C16.865 30.2003 18.6746 30.3785 20.3192 31.0597C21.9637 31.7409 23.3693 32.8945 24.3582 34.3745C25.3472 35.8546 25.875 37.5946 25.875 39.3746C25.8723 41.7608 24.9232 44.0484 23.236 45.7356C21.5488 47.4229 19.2611 48.372 16.875 48.3746ZM16.875 32.6246C15.54 32.6246 14.2349 33.0205 13.1249 33.7622C12.0149 34.5039 11.1497 35.5581 10.6388 36.7915C10.1279 38.0249 9.99425 39.3821 10.2547 40.6915C10.5152 42.0009 11.158 43.2036 12.102 44.1476C13.046 45.0916 14.2488 45.7345 15.5581 45.9949C16.8675 46.2554 18.2247 46.1217 19.4581 45.6108C20.6915 45.0999 21.7457 44.2348 22.4874 43.1247C23.2291 42.0147 23.625 40.7097 23.625 39.3746C23.6232 37.585 22.9115 35.8691 21.646 34.6036C20.3805 33.3382 18.6647 32.6264 16.875 32.6246ZM3.375 62.9996C3.07663 62.9996 2.79048 62.8811 2.5795 62.6701C2.36853 62.4592 2.25 62.173 2.25 61.8746V55.1246C2.25 51.4313 9.6075 49.4996 16.875 49.4996C21.9375 49.4996 26.5219 50.3996 29.1307 51.9004C29.2597 51.9737 29.3729 52.0718 29.4638 52.1891C29.5547 52.3064 29.6215 52.4404 29.6604 52.5836C29.6993 52.7268 29.7095 52.8763 29.6903 53.0234C29.6712 53.1705 29.6232 53.3124 29.549 53.4409C29.4748 53.5694 29.3759 53.6819 29.2581 53.772C29.1402 53.8622 29.0057 53.9281 28.8623 53.966C28.7188 54.0039 28.5693 54.0131 28.4223 53.993C28.2753 53.9729 28.1337 53.9239 28.0057 53.8489C25.7625 52.554 21.4931 51.7496 16.875 51.7496C8.86837 51.7496 4.5 53.9794 4.5 55.1246V61.8746C4.5 62.173 4.38147 62.4592 4.1705 62.6701C3.95952 62.8811 3.67337 62.9996 3.375 62.9996ZM36 26.9996C35.7775 26.9996 35.5601 26.9336 35.3751 26.81C35.1901 26.6864 35.046 26.5107 34.9609 26.3051C34.8757 26.0996 34.8535 25.8734 34.8968 25.6552C34.9402 25.437 35.0473 25.2366 35.2046 25.0793L52.1595 8.12439C52.3717 7.91947 52.6559 7.80607 52.9508 7.80864C53.2458 7.8112 53.528 7.92951 53.7365 8.1381C53.9451 8.34668 54.0634 8.62885 54.066 8.92382C54.0686 9.21879 53.9552 9.50297 53.7503 9.71514L36.7954 26.67C36.5844 26.881 36.2983 26.9996 36 26.9996Z" fill="#38761D"/>
<path d="M51.75 16.8749C51.6579 16.8748 51.5661 16.8635 51.4767 16.8412L46.9767 15.7162C46.7836 15.6678 46.6069 15.569 46.4645 15.43C46.322 15.291 46.219 15.1168 46.166 14.925C46.1129 14.7332 46.1117 14.5307 46.1624 14.3383C46.2131 14.1458 46.3139 13.9703 46.4547 13.8296L52.0797 8.20455C52.2171 8.06712 52.3877 7.96763 52.575 7.91578C52.7623 7.86393 52.9599 7.86148 53.1484 7.90868L57.6484 9.03368C57.8414 9.08207 58.0182 9.18081 58.1606 9.31981C58.303 9.45881 58.406 9.6331 58.4591 9.8249C58.5121 10.0167 58.5134 10.2192 58.4627 10.4116C58.412 10.604 58.3111 10.7796 58.1704 10.9203L52.5454 16.5453C52.3345 16.7563 52.0484 16.8749 51.75 16.8749ZM49.4505 14.0152L51.4047 14.5046L55.1745 10.7347L53.2204 10.2453L49.4505 14.0152Z" fill="#38761D"/>
<path d="M47.25 15.7498C47.1485 15.7497 47.0475 15.7361 46.9496 15.7093C46.7585 15.6556 46.5849 15.5523 46.4466 15.4098C46.3083 15.2674 46.2101 15.0908 46.1621 14.8982L45.0371 10.3982C44.9899 10.2096 44.9924 10.0121 45.0442 9.8248C45.0961 9.6375 45.1956 9.46682 45.333 9.32941L50.958 3.70441C51.0987 3.56371 51.2743 3.46285 51.4667 3.41214C51.6592 3.36143 51.8616 3.36267 52.0534 3.41574C52.2452 3.46881 52.4195 3.5718 52.5585 3.71422C52.6975 3.85664 52.7962 4.03338 52.8446 4.22641L53.9696 8.72641C54.0168 8.91494 54.0144 9.11247 53.9625 9.29977C53.9107 9.48707 53.8112 9.65775 53.6737 9.79516L48.0487 15.4202C47.9439 15.525 47.8194 15.6081 47.6823 15.6647C47.5452 15.7213 47.3983 15.7502 47.25 15.7498ZM47.3704 10.4702L47.8597 12.4243L51.6296 8.65441L51.1403 6.70028L47.3704 10.4702ZM17.0044 29.2498C16.7288 29.2494 16.463 29.148 16.2573 28.9647C16.0516 28.7814 15.9203 28.529 15.8884 28.2553C15.7966 27.4651 15.7504 26.6703 15.75 25.8748C15.7517 22.4908 16.601 19.1612 18.2203 16.1898C19.8397 13.2185 22.1775 10.7 25.0203 8.86447C27.8632 7.02889 31.1206 5.93463 34.4951 5.68157C37.8695 5.42852 41.2537 6.02473 44.3385 7.41578C44.6105 7.53871 44.8225 7.76464 44.9278 8.04387C45.0332 8.3231 45.0234 8.63276 44.9004 8.90472C44.7775 9.17668 44.5516 9.38868 44.2723 9.49406C43.9931 9.59944 43.6835 9.58959 43.4115 9.46666C40.6694 8.23027 37.6614 7.70039 34.6619 7.92539C31.6624 8.15039 28.767 9.1231 26.2401 10.7547C23.7132 12.3864 21.6352 14.6249 20.1958 17.2661C18.7564 19.9072 18.0015 22.8669 18 25.8748C18.0002 26.583 18.0412 27.2907 18.1226 27.9943C18.1572 28.2906 18.0726 28.5884 17.8876 28.8224C17.7026 29.0563 17.4322 29.2072 17.136 29.2419C17.0923 29.2473 17.0484 29.25 17.0044 29.2498ZM54.9956 29.2498C54.9516 29.25 54.9077 29.2473 54.864 29.2419C54.5678 29.2072 54.2974 29.0563 54.1124 28.8224C53.9274 28.5884 53.8428 28.2906 53.8774 27.9943C53.9588 27.2907 53.9998 26.583 54 25.8748C54.006 23.3188 53.4632 20.7914 52.4081 18.4633C52.3473 18.3286 52.3135 18.1833 52.3088 18.0356C52.3041 17.8879 52.3285 17.7407 52.3807 17.6024C52.4329 17.4642 52.5118 17.3375 52.6129 17.2298C52.714 17.122 52.8354 17.0352 52.9701 16.9743C53.242 16.8514 53.5517 16.8416 53.8309 16.9469C53.9692 16.9991 54.0958 17.078 54.2036 17.1791C54.3113 17.2803 54.3981 17.4016 54.459 17.5363C55.6456 20.1557 56.2563 22.9992 56.25 25.8748C56.2496 26.6703 56.2034 27.4651 56.1116 28.2553C56.0797 28.529 55.9484 28.7814 55.7427 28.9647C55.537 29.148 55.2712 29.2494 54.9956 29.2498ZM36 32.6248C34.665 32.6248 33.3599 32.2289 32.2499 31.4872C31.1399 30.7455 30.2747 29.6913 29.7638 28.4579C29.2529 27.2245 29.1192 25.8673 29.3797 24.5579C29.6401 23.2486 30.283 22.0458 31.227 21.1018C32.171 20.1578 33.3738 19.5149 34.6831 19.2545C35.9925 18.994 37.3497 19.1277 38.5831 19.6386C39.8165 20.1495 40.8707 21.0147 41.6124 22.1247C42.3541 23.2347 42.75 24.5398 42.75 25.8748C42.7482 27.6644 42.0365 29.3803 40.771 30.6458C39.5055 31.9113 37.7897 32.623 36 32.6248ZM36 21.3748C35.11 21.3748 34.24 21.6387 33.4999 22.1332C32.7599 22.6276 32.1831 23.3304 31.8425 24.1527C31.5019 24.975 31.4128 25.8798 31.5865 26.7527C31.7601 27.6256 32.1887 28.4274 32.818 29.0568C33.4474 29.6861 34.2492 30.1147 35.1221 30.2883C35.995 30.462 36.8998 30.3728 37.7221 30.0322C38.5443 29.6916 39.2471 29.1149 39.7416 28.3748C40.2361 27.6348 40.5 26.7648 40.5 25.8748C40.5 24.6813 40.0259 23.5367 39.182 22.6928C38.3381 21.8489 37.1935 21.3748 36 21.3748Z" fill="#38761D"/>
<path d="M43.1089 37.1257C42.8696 37.1261 42.6365 37.0502 42.4433 36.9091C42.2501 36.768 42.107 36.569 42.0346 36.341C41.9622 36.113 41.9644 35.8678 42.0409 35.6411C42.1173 35.4144 42.2641 35.218 42.4598 35.0804C44.418 33.707 45.8875 31.7453 46.655 29.48C47.4226 27.2147 47.4481 24.7637 46.728 22.4828C46.0079 20.202 44.5796 18.21 42.6505 16.7961C40.7214 15.3822 38.3918 14.6199 36 14.6199C33.6082 14.6199 31.2786 15.3822 29.3495 16.7961C27.4204 18.21 25.9921 20.202 25.272 22.4828C24.5519 24.7637 24.5774 27.2147 25.345 29.48C26.1125 31.7453 27.582 33.707 29.5402 35.0804C29.6611 35.1655 29.764 35.2736 29.8431 35.3984C29.9222 35.5233 29.9759 35.6625 30.0012 35.8081C30.0265 35.9538 30.0228 36.103 29.9904 36.2472C29.9581 36.3914 29.8976 36.5278 29.8125 36.6487C29.7274 36.7695 29.6193 36.8724 29.4945 36.9515C29.3696 37.0306 29.2304 37.0843 29.0848 37.1096C28.9391 37.1349 28.79 37.1312 28.6457 37.0988C28.5015 37.0665 28.3651 37.006 28.2443 36.9209C25.8953 35.2722 24.1329 32.9179 23.2128 30.1997C22.2926 27.4815 22.2626 24.5407 23.1271 21.8043C23.9916 19.0679 25.7056 16.6781 28.0204 14.9818C30.3352 13.2856 33.1302 12.3711 36 12.3711C38.8697 12.3711 41.6648 13.2856 43.9796 14.9818C46.2944 16.6781 48.0084 19.0679 48.8729 21.8043C49.7374 24.5407 49.7074 27.4815 48.7872 30.1997C47.8671 32.9179 46.1047 35.2722 43.7558 36.9209C43.5663 37.0541 43.3404 37.1256 43.1089 37.1257Z" fill="#38761D"/>
</svg>
