<svg width="72" height="72" viewBox="0 0 72 72" fill="none" xmlns="http://www.w3.org/2000/svg">
<g clip-path="url(#clip0_326_7970)">
<path d="M67.1299 38.6196C66.6561 38.1458 66.0937 37.7699 65.4746 37.5134C64.8556 37.257 64.1921 37.125 63.522 37.125C62.8519 37.125 62.1884 37.257 61.5694 37.5134C60.9504 37.7699 60.3879 38.1458 59.9141 38.6196L51.1808 47.353C50.7976 46.6436 50.2303 46.0507 49.5385 45.6365C48.8468 45.2224 48.0562 45.0023 47.25 44.9995H34.4745C33.3746 43.6683 32.0088 42.5815 30.4644 41.809C28.9201 41.0364 27.2314 40.595 25.5065 40.5132C23.7816 40.4313 22.0587 40.7107 20.4481 41.3335C18.8376 41.9563 17.3749 42.9088 16.1539 44.1299L11.25 49.0337L9.79538 47.5791C9.58441 47.3682 9.29831 47.2497 9 47.2497C8.70169 47.2497 8.4156 47.3682 8.20463 47.5791L3.70463 52.0791C3.49372 52.2901 3.37524 52.5762 3.37524 52.8745C3.37524 53.1728 3.49372 53.4589 3.70463 53.6699L21.7046 71.6699C21.9156 71.8808 22.2017 71.9992 22.5 71.9992C22.7983 71.9992 23.0844 71.8808 23.2954 71.6699L27.7954 67.1699C28.0063 66.9589 28.1248 66.6728 28.1248 66.3745C28.1248 66.0762 28.0063 65.7901 27.7954 65.5791L26.3408 64.1245L27.603 62.8622C28.2372 62.2322 29.0941 61.8774 29.988 61.8745H46.431C47.9091 61.8784 49.3732 61.5891 50.7387 61.0233C52.1042 60.4575 53.3438 59.6265 54.3859 58.5782L67.1299 45.8354C67.6037 45.3616 67.9796 44.7991 68.236 44.1801C68.4925 43.561 68.6245 42.8975 68.6245 42.2275C68.6245 41.5574 68.4925 40.8939 68.236 40.2749C67.9796 39.6558 67.6037 39.0934 67.1299 38.6196ZM22.5 69.2837L6.09075 52.8745L9 49.9652L25.4093 66.3745L22.5 69.2837ZM65.5391 44.2446L52.7963 56.9886C51.9623 57.8271 50.9703 58.4918 49.8777 58.9442C48.7851 59.3967 47.6136 59.6279 46.431 59.6245H29.9891C29.2503 59.6225 28.5184 59.767 27.8357 60.0497C27.1531 60.3324 26.5333 60.7477 26.0123 61.2715L24.75 62.5337L12.8408 50.6245L17.7446 45.7206C18.757 44.7084 19.9722 43.9219 21.3102 43.4128C22.6483 42.9038 24.0789 42.6837 25.5081 42.767C26.9373 42.8503 28.3327 43.2351 29.6025 43.8962C30.8724 44.5573 31.9879 45.4796 32.8759 46.6026L33.0491 46.822C33.1545 46.9553 33.2887 47.063 33.4416 47.1371C33.5946 47.2111 33.7623 47.2496 33.9323 47.2495H47.25C47.8467 47.2495 48.419 47.4865 48.841 47.9085C49.263 48.3305 49.5 48.9027 49.5 49.4995C49.5 50.0962 49.263 50.6685 48.841 51.0905C48.419 51.5124 47.8467 51.7495 47.25 51.7495H31.5C31.2016 51.7495 30.9155 51.868 30.7045 52.079C30.4935 52.29 30.375 52.5761 30.375 52.8745C30.375 53.1729 30.4935 53.459 30.7045 53.67C30.9155 53.881 31.2016 53.9995 31.5 53.9995H47.25C48.3505 53.9958 49.4113 53.5882 50.231 52.8541C51.0508 52.1199 51.5725 51.1104 51.6971 50.017L61.5049 40.2104C62.0482 39.6914 62.7707 39.4019 63.522 39.4019C64.2733 39.4019 64.9958 39.6914 65.5391 40.2104C66.074 40.7454 66.3745 41.4709 66.3745 42.2275C66.3745 42.984 66.074 43.7096 65.5391 44.2446Z" fill="#38761D"/>
<path d="M22.212 22.9253C22.1963 22.9478 22.1726 22.959 22.158 22.9827C22.1546 22.9894 22.1546 22.9962 22.1513 23.0018C18.7296 27.3475 16.8709 32.7189 16.875 38.25C16.875 38.4345 16.8761 38.6168 16.8885 38.8013C16.9084 39.0852 17.0352 39.351 17.2434 39.5452C17.4515 39.7393 17.7255 39.8474 18.0101 39.8475C18.036 39.8475 18.063 39.8464 18.0889 39.8442C18.3863 39.8234 18.6633 39.6854 18.859 39.4606C19.0548 39.2357 19.1533 38.9423 19.1329 38.6449C19.125 38.5122 19.125 38.3817 19.125 38.25C19.126 33.5214 20.6267 28.9149 23.4113 25.0932C26.5928 27.171 28.4546 29.1769 28.5311 30.6732C28.4134 32.0953 27.9642 33.47 27.2194 34.6872C26.8657 35.4023 26.5325 36.1275 26.2204 36.8618C26.1593 36.9989 26.1263 37.1468 26.1233 37.2969C26.1202 37.4469 26.1473 37.5961 26.2028 37.7355C26.2583 37.875 26.3411 38.0019 26.4464 38.1088C26.5517 38.2158 26.6773 38.3006 26.8159 38.3582C26.9545 38.4159 27.1032 38.4452 27.2533 38.4445C27.4034 38.4438 27.5518 38.4131 27.6898 38.3542C27.8278 38.2952 27.9527 38.2093 28.057 38.1014C28.1613 37.9934 28.2429 37.8657 28.2971 37.7258C28.6009 36.9968 28.9316 36.315 29.2455 35.667C30.1791 34.119 30.7061 32.3602 30.7778 30.5539C30.6619 28.2848 28.647 25.8582 24.8265 23.3337C26.5491 21.3836 28.595 19.7452 30.8745 18.4905C33.0649 22.761 35.7019 25.0144 38.5808 25.0144C38.7901 25.0145 38.9993 25.0029 39.2074 24.9795C41.2022 24.8525 43.106 24.0994 44.6479 22.8274C45.6379 22.0624 46.0485 21.7452 48.3188 22.5383C50.4405 23.2774 52.6759 22.3515 54.7009 19.9485C56.4544 21.2046 58.0184 22.7061 59.3449 24.4069C57.9906 25.8532 56.9249 27.5447 56.205 29.3907C55.2454 31.4854 54.5963 32.7769 53.4038 32.8883C52.6285 32.9364 51.8509 32.933 51.0761 32.8782C48.1084 32.7319 44.4161 32.5587 41.7791 37.7438C41.1812 38.9118 40.7795 40.1702 40.59 41.4687C40.5694 41.615 40.5777 41.764 40.6147 41.9071C40.6516 42.0502 40.7164 42.1846 40.8053 42.3026C40.8942 42.4207 41.0055 42.5201 41.1328 42.5951C41.2602 42.6701 41.401 42.7193 41.5474 42.7399C41.5996 42.7471 41.6522 42.7505 41.7049 42.75C41.9761 42.75 42.2382 42.6519 42.4428 42.4739C42.6475 42.2959 42.7809 42.05 42.8186 41.7814C42.9713 40.7278 43.2983 39.707 43.7861 38.7608C45.7616 34.8762 48.0611 34.9909 50.9693 35.1259C51.8486 35.1875 52.7312 35.1886 53.6108 35.1293C56.1623 34.8885 57.2243 32.5699 58.2503 30.3278C58.8317 28.8564 59.6461 27.4881 60.6623 26.2755C62.1671 28.6567 63.2073 31.3013 63.7279 34.0695C63.7542 34.2155 63.8091 34.3548 63.8895 34.4795C63.9698 34.6042 64.0741 34.7117 64.1961 34.796C64.3182 34.8802 64.4558 34.9395 64.6008 34.9703C64.7459 35.0012 64.8957 35.0031 65.0415 34.9759C65.1873 34.9487 65.3263 34.8929 65.4504 34.8117C65.5746 34.7306 65.6815 34.6257 65.765 34.5031C65.8485 34.3805 65.9069 34.2426 65.9368 34.0973C65.9668 33.9521 65.9678 33.8023 65.9396 33.6567C64.9043 28.1828 62.0511 23.2189 57.8422 19.5693C53.6333 15.9196 48.3153 13.7981 42.75 13.5484V12.3075C42.7502 11.6775 42.9275 11.0602 43.2617 10.5261C43.5959 9.99199 44.0735 9.56259 44.64 9.28691C45.2659 10.0163 46.042 10.6018 46.9152 11.0033C47.7884 11.4049 48.738 11.613 49.6991 11.6134C50.6105 11.6055 51.5139 11.4431 52.371 11.133C53.8057 10.6307 55.1664 9.93787 56.4165 9.07316C56.9579 8.58736 57.6239 8.26195 58.3398 8.13339C59.0557 8.00483 59.7933 8.0782 60.4699 8.34528C60.6979 8.40423 60.9388 8.39011 61.1584 8.3049C61.378 8.21969 61.5653 8.0677 61.6939 7.87036C61.8225 7.67302 61.886 7.44028 61.8753 7.20497C61.8646 6.96965 61.7803 6.74363 61.6343 6.55878C61.3913 6.25166 55.6639 -0.922468 50.1503 0.102407C44.8279 1.09466 44.2046 4.32228 43.9448 7.12241C43.0219 7.51332 42.2208 8.14464 41.625 8.95053C41.0293 8.14422 40.2282 7.51251 39.3053 7.12128C39.0454 4.32228 38.4221 1.09466 33.0998 0.101282C27.585 -0.930343 21.8576 6.25166 21.6158 6.55878C21.4702 6.74367 21.3863 6.96954 21.3758 7.20461C21.3654 7.43969 21.4289 7.67212 21.5574 7.86922C21.6859 8.06631 21.873 8.21814 22.0924 8.30334C22.3117 8.38854 22.5523 8.40281 22.7801 8.34416C23.4567 8.07695 24.1943 8.0035 24.9103 8.13207C25.6262 8.26064 26.2922 8.58613 26.8335 9.07203C28.0837 9.93675 29.4443 10.6296 30.879 11.1319C31.736 11.4423 32.6395 11.6047 33.5509 11.6123C34.512 11.6118 35.4616 11.4037 36.3348 11.0021C37.208 10.6006 37.9841 10.0151 38.61 9.28578C39.1767 9.56155 39.6544 9.99112 39.9886 10.5254C40.3228 11.0598 40.5 11.6773 40.5 12.3075V13.5293C36.9552 13.6884 33.4865 14.6102 30.3304 16.2319C27.1744 17.8536 24.4052 20.1359 22.212 22.9253ZM50.562 2.31416C53.0269 1.85066 55.9733 3.99041 57.9803 5.90741C56.9633 6.11869 56.0072 6.55711 55.1835 7.18991C54.0854 7.95386 52.8887 8.56543 51.6263 9.00791C50.8476 9.34779 49.99 9.46507 49.1487 9.3467C48.3074 9.22833 47.5154 8.87895 46.8608 8.33741L49.8341 7.08866C49.975 7.03483 50.1037 6.95322 50.2124 6.84868C50.3211 6.74414 50.4077 6.6188 50.467 6.48012C50.5263 6.34144 50.5572 6.19224 50.5577 6.04141C50.5582 5.89058 50.5283 5.74119 50.4699 5.60212C50.4115 5.46305 50.3257 5.33715 50.2177 5.2319C50.1097 5.12665 49.9815 5.0442 49.841 4.98945C49.7005 4.9347 49.5503 4.90878 49.3996 4.91322C49.2488 4.91765 49.1005 4.95236 48.9634 5.01528L46.3286 6.12116C46.6414 4.19741 47.4311 2.89803 50.562 2.31416ZM31.6238 9.00791C30.3614 8.56578 29.1647 7.95459 28.0665 7.19103C27.2426 6.55679 26.2856 6.11754 25.2675 5.90628C27.27 3.98928 30.2085 1.85178 32.6891 2.31303C35.82 2.89691 36.6098 4.19628 36.9225 6.12003L34.2878 5.01416C34.1512 4.95487 34.0042 4.92329 33.8553 4.92124C33.7065 4.91918 33.5587 4.9467 33.4205 5.00219C33.2823 5.05768 33.1566 5.14004 33.0505 5.2445C32.9444 5.34896 32.8601 5.47344 32.8025 5.61072C32.7449 5.748 32.7151 5.89536 32.7148 6.04424C32.7146 6.19313 32.7439 6.34058 32.801 6.47805C32.8582 6.61553 32.9421 6.74029 33.0478 6.8451C33.1535 6.94992 33.279 7.0327 33.417 7.08866L36.3904 8.33741C35.7354 8.8783 34.9434 9.22718 34.1022 9.34533C33.261 9.46349 32.4035 9.3463 31.6249 9.00678L31.6238 9.00791ZM49.0613 20.4143C45.8775 19.3028 44.7008 19.9429 43.2709 21.0477C42.0543 22.0636 40.5415 22.6583 38.9588 22.743C36.2925 23.0479 34.1483 19.9575 32.886 17.5174C36.0741 16.1734 39.5293 15.5827 42.9828 15.7913C46.4364 15.9999 49.7953 17.0021 52.7985 18.72C51.8231 19.8169 50.4484 20.898 49.0613 20.4143Z" fill="#38761D"/>
</g>
<defs>
<clipPath id="clip0_326_7970">
<rect width="72" height="72" fill="white"/>
</clipPath>
</defs>
</svg>
