<svg width="72" height="72" viewBox="0 0 72 72" fill="none" xmlns="http://www.w3.org/2000/svg">
<g clip-path="url(#clip0_326_7992)">
<path d="M19.5949 67.024C19.5948 67.024 19.5948 67.024 19.5949 67.024V67.024ZM71.7508 48.122C71.4338 48.8465 70.8554 49.4037 70.1222 49.6905L65.9961 51.3049C65.6542 51.4392 65.2901 51.5083 64.9227 51.5087C64.5197 51.5087 64.1169 51.425 63.7357 51.2582C63.1814 51.0171 62.7151 50.6108 62.4005 50.0947L57.7073 52.0958C57.8565 53.0061 57.7165 53.9657 57.2442 54.8246C56.6879 55.8361 55.7669 56.5678 54.6512 56.8848C54.6397 56.888 54.628 56.8903 54.6163 56.8934C55.0361 58.0227 54.9856 59.3165 54.3664 60.4423C53.5875 61.8584 52.1192 62.6601 50.6068 62.6601C50.291 62.6595 49.9763 62.6238 49.6684 62.5535C49.7071 63.3354 49.5277 64.1127 49.1502 64.7986C48.3714 66.2147 46.9032 67.0164 45.3908 67.0164C45.2062 67.0161 45.0218 67.0039 44.8388 66.9798C44.8989 67.7998 44.7198 68.6196 44.3233 69.3398C43.5445 70.7558 42.0762 71.5576 40.5638 71.5576C39.8446 71.5577 39.1371 71.3756 38.5073 71.0283L37.0264 70.2139C36.4812 70.9764 35.7032 71.5368 34.7872 71.8144C34.3809 71.9381 33.9585 72.0011 33.5338 72.0015C32.8332 72.0012 32.1436 71.8275 31.5265 71.4959C30.5433 70.9701 29.849 70.1125 29.507 69.1348C29.3246 69.219 29.1365 69.2907 28.9442 69.3492C28.538 69.4729 28.1157 69.536 27.691 69.5364C26.997 69.5364 26.3108 69.3662 25.6836 69.0307C24.7938 68.5548 24.1415 67.8071 23.7716 66.9447C23.4827 67.1121 23.1753 67.2456 22.8557 67.3425C22.4495 67.4662 22.0272 67.5293 21.6025 67.5297C20.9019 67.5293 20.2123 67.3556 19.5952 67.024C18.5896 66.4861 17.8526 65.5858 17.5201 64.4887C17.316 63.8151 17.2805 63.1187 17.4075 62.4486C17.3229 62.4537 17.2383 62.458 17.154 62.458C16.4534 62.4577 15.7638 62.284 15.1467 61.9525C14.1411 61.4146 13.4041 60.5142 13.0716 59.417C12.7392 58.32 12.8522 57.162 13.3901 56.1563L14.4708 54.1357C14.1911 53.5123 14.066 52.8287 13.9442 52.1618C13.7176 50.9198 13.5538 50.3124 13.032 50.1097C12.6464 49.9601 11.483 49.449 9.3061 48.4722C8.74107 49.1899 7.87609 49.6003 6.98002 49.6003C6.56954 49.6003 6.15301 49.5145 5.75602 49.3329L1.72627 47.4913C0.244227 46.8141 -0.410523 45.0571 0.266727 43.575L8.5487 25.4534C9.22595 23.9712 10.9831 23.3166 12.465 23.994L16.4947 25.8355C17.9768 26.513 18.6315 28.2698 17.9543 29.7519L17.7035 30.3005L21.3513 31.9833C21.3786 31.996 21.4055 32.0098 21.4318 32.0244C22.883 32.8413 24.3887 32.4856 26.2943 32.0354C28.7784 31.4485 31.8365 30.7277 35.4176 32.8414C40.3426 29.7932 44.1244 31.3352 46.9182 32.4771C48.9494 33.3073 50.2584 33.783 51.5214 33.1262L54.9843 31.2726L54.9071 31.0752C54.3134 29.5577 55.0649 27.8401 56.5823 27.2462L60.7085 25.6317C62.2262 25.0383 63.9434 25.7898 64.5374 27.3068L64.5376 27.307L71.7976 45.8615C72.0843 46.5948 72.0676 47.3975 71.7508 48.122ZM7.62563 46.9384L15.9075 28.8167C16.0664 28.469 15.9069 28.0409 15.559 27.882L11.5294 26.0405C11.4452 26.0021 11.3543 25.9807 11.2618 25.9778C11.1694 25.9748 11.0772 25.9902 10.9908 26.0231C10.9039 26.0548 10.8242 26.1034 10.7562 26.1662C10.6883 26.229 10.6334 26.3046 10.5949 26.3887L2.31282 44.5103C2.15391 44.8581 2.31338 45.286 2.66115 45.4449L6.6909 47.2866C7.03881 47.4456 7.46673 47.2859 7.62563 46.9384ZM17.7544 60.1176C18.274 59.9601 18.6999 59.6133 18.9545 59.1408L20.9632 55.386C21.4818 54.4165 21.101 53.1527 20.1311 52.6362C19.1636 52.121 17.9018 52.4908 17.3788 53.4687L15.3738 57.2175C14.854 58.1894 15.2374 59.4496 16.2074 59.9684C16.6833 60.2228 17.2329 60.2757 17.7544 60.1176ZM23.4067 64.2064L26.1234 59.1268C26.6412 58.1588 26.2603 56.8929 25.2915 56.377C24.3306 55.8653 23.0692 56.2286 22.5433 57.2025L19.8223 62.289C19.5678 62.7646 19.5148 63.3142 19.673 63.836C19.8312 64.3579 20.1802 64.7854 20.6559 65.0399C21.1317 65.2943 21.6808 65.3473 22.2028 65.1892C22.7248 65.0312 23.1525 64.682 23.4067 64.2064ZM29.4952 66.2131L31.6921 62.1052C32.2107 61.1353 31.8301 59.8718 30.8601 59.3553C29.8857 58.8364 28.6278 59.2151 28.1077 60.1878L25.9108 64.2957C25.3822 65.284 25.7563 66.518 26.7446 67.0466C27.2203 67.301 27.7696 67.3542 28.2916 67.1958C28.8135 67.0378 29.241 66.6887 29.4952 66.2131ZM35.3382 68.6783L37.2607 65.0835C37.7744 64.123 37.3924 62.8469 36.4287 62.3337C35.4545 61.815 34.1966 62.1932 33.6763 63.1662L31.7535 66.7614C31.2255 67.7496 31.5995 68.9833 32.5876 69.5118C33.0634 69.7663 33.613 69.8195 34.1346 69.661C34.6563 69.5029 35.0838 69.1539 35.3382 68.6783ZM41.7053 65.5916L39.762 64.5228C39.752 64.5173 39.743 64.5107 39.7331 64.5051C39.6831 65.0791 39.5169 65.6369 39.2447 66.1447L38.12 68.2478L39.5914 69.057C40.5737 69.5971 41.8117 69.2377 42.3517 68.2557C42.8605 67.3308 42.5664 66.1752 41.7053 65.5916ZM54.4564 50.9716L43.5359 44.7473C41.669 43.6829 39.3461 44.6235 36.6571 45.7123C32.6023 47.3538 27.5559 49.3968 23.2875 43.5149C23.1947 43.387 23.1299 43.2411 23.0973 43.0866C23.0646 42.9321 23.0649 42.7725 23.098 42.6181C23.1312 42.4637 23.1964 42.318 23.2896 42.1905C23.3828 42.063 23.5017 41.9565 23.6387 41.878C26.8799 40.0213 29.6036 37.988 31.7347 35.8346C32.2604 35.3023 32.8114 34.7955 33.3857 34.316C30.9856 33.2397 28.948 33.7203 26.8114 34.2252C24.7269 34.7175 22.5721 35.2266 20.3694 34.0083L16.7679 32.3468L10.3179 46.4604C11.6043 47.0375 13.4104 47.8433 13.8458 48.0123C15.4601 48.6391 15.8613 50.1917 16.0991 51.4439C16.5984 50.93 17.2229 50.547 17.9299 50.3326C19.0274 50.0002 20.1851 50.1133 21.1907 50.6512C22.1934 51.1851 22.9303 52.084 23.2637 53.181C23.3436 53.4438 23.3985 53.7136 23.4277 53.9868C24.422 53.7697 25.4479 53.9089 26.3511 54.3919C27.3538 54.9259 28.0907 55.8246 28.4241 56.9218C28.4432 56.9849 28.4606 57.0482 28.4768 57.1116C28.537 57.0905 28.5975 57.0703 28.6589 57.0516C29.7561 56.7191 30.9141 56.8323 31.9197 57.3701C32.9224 57.9042 33.6591 58.8029 33.9927 59.8999C34.0119 59.9631 34.0292 60.0265 34.0454 60.0899C34.1055 60.0688 34.1661 60.0484 34.2274 60.0299C35.3241 59.6974 36.4823 59.8105 37.4882 60.3484C37.9713 60.6052 38.4001 60.9532 38.7507 61.3731L44.4183 64.5154C45.3999 65.0551 46.6385 64.6962 47.1788 63.7142C47.7137 62.7418 47.3499 61.5011 46.3678 60.9484L39.6271 57.1545C39.4983 57.082 39.3851 56.9849 39.2939 56.8687C39.2027 56.7525 39.1353 56.6194 39.0955 56.4771C39.0556 56.3349 39.0443 56.1861 39.0619 56.0395C39.0796 55.8928 39.126 55.751 39.1985 55.6223C39.2709 55.4935 39.3681 55.3803 39.4843 55.2891C39.6005 55.1978 39.7335 55.1304 39.8758 55.0906C40.0181 55.0508 40.1668 55.0394 40.3135 55.0571C40.4602 55.0748 40.602 55.1212 40.7307 55.1936L49.6344 60.1591C50.616 60.699 51.8546 60.3398 52.3949 59.3578C52.926 58.3921 52.5701 57.1624 51.6031 56.6042C51.5406 56.5729 43.5882 52.0848 43.5882 52.0848C43.3284 51.9381 43.1376 51.6942 43.0577 51.4067C42.9777 51.1192 43.0153 50.8118 43.162 50.552C43.2346 50.4233 43.3319 50.3102 43.4482 50.2192C43.5646 50.1281 43.6977 50.0609 43.8401 50.0213C43.9824 49.9817 44.1312 49.9706 44.2778 49.9885C44.4245 50.0064 44.5662 50.0531 44.6948 50.1258L52.5234 54.5477C52.9811 54.8062 53.5185 54.8675 54.036 54.7204C54.5691 54.569 55.0082 54.2208 55.2726 53.7403C55.8045 52.7735 55.4384 51.5313 54.4564 50.9716ZM61.5363 48.0173L55.8099 33.3827L52.5712 35.1162C50.308 36.2933 48.1518 35.4122 46.0666 34.5599C43.2187 33.3958 40.2737 32.1922 36.0174 35.1345C35.1258 35.7507 34.223 36.5188 33.334 37.4172C31.3169 39.4554 28.8184 41.3835 25.8946 43.1594C28.9039 46.4231 32.1273 45.1187 35.8128 43.6268C38.7738 42.4281 41.8355 41.1884 44.6502 42.7926L55.5706 49.017C56.035 49.2812 56.4464 49.6293 56.7838 50.0437L61.5363 48.0173ZM69.702 46.6815L62.442 28.127C62.3044 27.7754 61.8796 27.5895 61.5282 27.7272L57.4021 29.3415C57.0462 29.4809 56.8629 29.8994 57.0023 30.2555L64.2625 48.81C64.2963 48.8961 64.3468 48.9746 64.4112 49.0411C64.4755 49.1075 64.5524 49.1606 64.6374 49.1971C64.7219 49.2348 64.813 49.2553 64.9055 49.2575C64.998 49.2597 65.09 49.2434 65.1761 49.2098L69.3022 47.5954C69.4757 47.5275 69.6133 47.3943 69.6894 47.2203C69.7654 47.0464 69.7701 46.855 69.702 46.6815ZM60.5216 29.5802C59.6584 29.5802 58.9543 30.2842 58.9543 31.1473C58.9543 32.0105 59.6584 32.7146 60.5216 32.7146C61.3847 32.7146 62.0889 32.0105 62.0889 31.1473C62.0889 30.2842 61.3849 29.5802 60.5216 29.5802ZM12.4311 27.9468C11.5668 27.8986 10.8272 28.5601 10.779 29.4244C10.7308 30.2887 11.3923 31.0282 12.2566 31.0764C13.1208 31.1247 13.8604 30.4632 13.9086 29.5989C13.9569 28.7346 13.2954 27.9949 12.4311 27.9468ZM12.5889 20.5533C12.0332 19.7996 11.8798 18.892 12.1569 17.9977C12.9283 15.5066 14.7119 13.5678 16.9782 12.5678C16.0949 11.6665 15.5489 10.4335 15.5489 9.07495C15.5489 6.32109 17.7894 4.08052 20.5433 4.08052C23.2972 4.08052 25.5375 6.32095 25.5375 9.07481C25.5375 10.4328 24.992 11.6653 24.1096 12.5664C25.2285 13.0618 26.2301 13.7883 27.0485 14.6981C28.3171 13.0758 30.0036 11.8296 31.927 11.0933C30.5678 9.93741 29.7032 8.21658 29.7032 6.29677C29.7032 2.82473 32.5281 0 36.0001 0C39.4721 0 42.2969 2.82473 42.2969 6.29691C42.2969 8.21686 41.4322 9.93769 40.073 11.0936C41.9964 11.8299 43.683 13.0761 44.9516 14.6985C45.77 13.7887 46.7715 13.0623 47.8905 12.5668C47.0081 11.6655 46.4625 10.4331 46.4625 9.07509C46.4625 6.32123 48.703 4.0808 51.4569 4.0808C54.2108 4.0808 56.4513 6.32123 56.4513 9.07509C56.4513 10.4338 55.9053 11.6668 55.022 12.5681C57.2882 13.5681 59.0719 15.5067 59.8432 17.998C60.1202 18.8923 59.9668 19.7999 59.4112 20.5536C58.8553 21.3074 58.0338 21.7225 57.0977 21.7225H47.2952V22.6647C47.2951 24.7923 45.564 26.5233 43.4366 26.5233H28.5634C26.4358 26.5233 24.705 24.7923 24.705 22.6647V21.7222H14.9024C13.9659 21.7221 13.1443 21.3071 12.5889 20.5533ZM51.4558 11.8194H51.4579C52.9706 11.8188 54.2013 10.5879 54.2013 9.07509C54.2013 7.56183 52.9702 6.3308 51.4569 6.3308C49.9436 6.3308 48.7125 7.56183 48.7125 9.07509C48.7125 10.5879 49.9431 11.8188 51.4558 11.8194ZM46.2098 16.7175C46.6354 17.5922 46.9464 18.5182 47.1349 19.4725H57.0977C57.3127 19.4725 57.4724 19.3918 57.6002 19.2185C57.7278 19.0455 57.7576 18.8691 57.694 18.6636C56.8433 15.9162 54.3375 14.0702 51.4584 14.0695H51.4558C49.3557 14.0698 47.4383 15.0504 46.2098 16.7175ZM35.9972 10.3437H36.0029C38.2331 10.3421 40.047 8.52736 40.047 6.29691C40.0469 4.06547 38.2315 2.25 36.0001 2.25C33.7687 2.25 31.9532 4.06547 31.9532 6.29691C31.9532 8.52736 33.7671 10.3421 35.9972 10.3437ZM26.955 20.6588V22.6645C26.955 23.5516 27.6765 24.2731 28.5634 24.2731H43.4365C44.3236 24.2731 45.045 23.5515 45.0451 22.6645V20.6588C44.5235 16.0574 40.6466 12.5951 36.0028 12.5937H36L35.997 12.5935C31.3532 12.5951 27.4763 16.0575 26.955 20.6588ZM20.5422 11.8191H20.5441C22.057 11.8185 23.2875 10.5877 23.2875 9.07481C23.2875 7.56155 22.0564 6.33037 20.5432 6.33037C19.0299 6.33037 17.7987 7.56155 17.7987 9.07481C17.7987 10.5878 19.0293 11.8185 20.5422 11.8191ZM14.3998 19.2184C14.5275 19.3915 14.6871 19.4722 14.9023 19.4722H24.8651C25.0537 18.518 25.3646 17.592 25.7902 16.7174C24.5617 15.0503 22.6441 14.0697 20.5441 14.0692H20.5415C17.6623 14.07 15.1565 15.9159 14.3057 18.6633C14.2423 18.8686 14.2721 19.0451 14.3998 19.2184Z" fill="#38761D"/>
</g>
<defs>
<clipPath id="clip0_326_7992">
<rect width="72" height="72" fill="white"/>
</clipPath>
</defs>
</svg>
