<svg width="26" height="30" viewBox="0 0 26 30" fill="none" xmlns="http://www.w3.org/2000/svg">
<path d="M25.2064 7.02564L18.8694 0.720703H4.91417C3.94746 0.720703 3.15332 1.46106 3.15332 2.42772V11.4447C3.15332 11.443 3.21222 11.4306 3.25138 11.4306H4.01702V2.42772C4.01702 1.94514 4.43159 1.5844 4.91417 1.5844H18.479L18.7575 1.84553V5.39204C18.7575 6.35472 19.5403 7.11207 20.503 7.11207H24.0495L24.2851 7.38816V27.5154C24.2851 27.9979 23.9499 28.4166 23.4673 28.4166H4.91417C4.43159 28.4166 4.01702 27.9979 4.01702 27.5154V24.0405H3.25138C3.21222 24.0405 3.15332 24.0427 3.15332 24.0409V27.5153C3.15332 28.482 3.94746 29.2803 4.91417 29.2803H23.4674C24.434 29.2803 25.2064 28.482 25.2064 27.5154V7.02564ZM20.503 6.24837C20.0204 6.24837 19.6212 5.87462 19.6212 5.39204V2.79018L23.1049 6.24837H20.503Z" fill="#252525"/>
<path d="M11.2003 16.2676H10.7539V19.3769H11.0978C11.5533 19.3769 11.8872 19.2406 12.0998 18.9761C12.3123 18.7118 12.4186 18.3056 12.4186 17.7615C12.4186 17.2529 12.318 16.8786 12.1169 16.6332C11.9157 16.3877 11.6102 16.2676 11.2003 16.2676Z" fill="#252525"/>
<path d="M19.7714 12.293H2.54328C1.57663 12.293 0.792969 13.0766 0.792969 14.0433V21.3677C0.792969 22.3343 1.57663 23.118 2.54328 23.118H19.7714C20.738 23.118 21.5217 22.3343 21.5217 21.3677V14.0433C21.5217 13.0766 20.738 12.293 19.7714 12.293ZM7.83233 18.2423C7.4667 18.5801 6.94739 18.7419 6.2744 18.7419H5.85999V20.5845H4.36292V15.0568H6.2744C6.9752 15.0568 7.50154 15.2055 7.85324 15.5116C8.20488 15.8178 8.38078 16.2473 8.38078 16.8114C8.38078 17.4314 8.19797 17.9045 7.83233 18.2423ZM13.2103 19.8392C12.7004 20.3401 11.9837 20.5845 11.0602 20.5845H9.25721V15.0568H11.1855C12.0761 15.0568 12.7637 15.2802 13.2482 15.7356C13.7327 16.191 13.9751 16.8436 13.9751 17.7039C13.9751 18.6299 13.7201 19.3382 13.2103 19.8392ZM18.2397 16.266H16.4547V17.3024H18.1245V18.5116H16.4547V20.5845H14.9576V15.0568H18.2397V16.266Z" fill="#252525"/>
<path d="M6.24061 16.2676H5.86035V17.5343H6.12672C6.35191 17.5343 6.53093 17.4717 6.66376 17.3452C6.7966 17.2187 6.86299 17.048 6.86299 16.8253C6.86299 16.4509 6.65553 16.2676 6.24061 16.2676Z" fill="#252525"/>
</svg>
