<svg width="58" height="58" viewBox="0 0 58 58" fill="none" xmlns="http://www.w3.org/2000/svg">
<path d="M20.4688 38.5686L21.9042 38.1842L19.6251 42.1245C19.4605 42.4095 19.3739 42.7329 19.3739 43.062C19.3739 43.3911 19.4605 43.7145 19.6251 43.9995C19.7896 44.2845 20.0263 44.5212 20.3114 44.6858C20.5964 44.8504 20.9197 44.937 21.2488 44.937H27.1251C27.3737 44.937 27.6122 44.8382 27.788 44.6624C27.9638 44.4866 28.0626 44.2482 28.0626 43.9995C28.0626 43.7509 27.9638 43.5124 27.788 43.3366C27.6122 43.1608 27.3737 43.062 27.1251 43.062H21.2488L23.5242 39.1245L23.9085 40.5598C23.9618 40.7592 24.0793 40.9354 24.2428 41.0611C24.4064 41.1869 24.6069 41.2552 24.8132 41.2555C24.8956 41.2556 24.9776 41.2445 25.057 41.2226C25.297 41.1583 25.5016 41.0012 25.6259 40.7861C25.7501 40.5709 25.7839 40.3152 25.7198 40.0751L24.7495 36.4526C24.7176 36.3337 24.6626 36.2222 24.5876 36.1245C24.5127 36.0268 24.4192 35.9449 24.3125 35.8833C24.2059 35.8218 24.0882 35.7819 23.9661 35.7658C23.844 35.7498 23.72 35.7579 23.601 35.7898L19.9795 36.7601C19.7393 36.8245 19.5345 36.9817 19.4102 37.1971C19.2859 37.4125 19.2523 37.6684 19.3167 37.9086C19.3811 38.1488 19.5382 38.3535 19.7536 38.4778C19.969 38.6021 20.2249 38.6358 20.4651 38.5714L20.4688 38.5686Z" fill="#38761D"/>
<path d="M34.7507 37.9741L37.6888 43.0629H33.1382L34.1891 42.011C34.2786 41.9245 34.3501 41.8211 34.3992 41.7067C34.4483 41.5923 34.4742 41.4693 34.4753 41.3448C34.4764 41.2203 34.4526 41.0969 34.4055 40.9817C34.3584 40.8665 34.2888 40.7618 34.2007 40.6738C34.1127 40.5857 34.008 40.5161 33.8928 40.469C33.7776 40.4219 33.6541 40.3981 33.5297 40.3992C33.4052 40.4003 33.2822 40.4262 33.1678 40.4753C33.0534 40.5244 32.95 40.5958 32.8635 40.6854L30.2122 43.3376C30.0365 43.5134 29.9377 43.7518 29.9377 44.0004C29.9377 44.249 30.0365 44.4874 30.2122 44.6632L32.8635 47.3154C32.95 47.4049 33.0534 47.4763 33.1678 47.5255C33.2822 47.5746 33.4052 47.6005 33.5297 47.6016C33.6541 47.6026 33.7776 47.5789 33.8928 47.5318C34.008 47.4846 34.1127 47.415 34.2007 47.327C34.2888 47.239 34.3584 47.1343 34.4055 47.0191C34.4526 46.9039 34.4764 46.7804 34.4753 46.6559C34.4742 46.5315 34.4483 46.4084 34.3992 46.2941C34.3501 46.1797 34.2786 46.0762 34.1891 45.9898L33.1382 44.9379H37.6888C38.0179 44.9379 38.3412 44.8512 38.6263 44.6867C38.9113 44.5221 39.148 44.2854 39.3126 44.0004C39.4771 43.7153 39.5637 43.392 39.5637 43.0629C39.5637 42.7337 39.4771 42.4104 39.3125 42.1254L36.3744 37.0366C36.3133 36.9292 36.2315 36.8348 36.1338 36.7591C36.0361 36.6833 35.9244 36.6276 35.8051 36.5953C35.6858 36.5629 35.5612 36.5544 35.4386 36.5703C35.316 36.5863 35.1977 36.6263 35.0907 36.6881C34.9836 36.7499 34.8898 36.8323 34.8147 36.9305C34.7396 37.0287 34.6847 37.1408 34.6531 37.2604C34.6215 37.3799 34.6138 37.5045 34.6306 37.627C34.6473 37.7495 34.6881 37.8675 34.7507 37.9741Z" fill="#38761D"/>
<path d="M24.7813 34.4318C24.9967 34.5561 25.2526 34.5898 25.4927 34.5254C25.7329 34.4611 25.9376 34.304 26.062 34.0887L29.0001 28.9999L31.2754 32.9374L29.8401 32.553C29.5999 32.4886 29.344 32.5223 29.1286 32.6466C28.9132 32.7709 28.7561 32.9757 28.6917 33.2159C28.6273 33.456 28.6609 33.712 28.7852 33.9273C28.9095 34.1427 29.1143 34.2999 29.3545 34.3643L32.976 35.3346C33.0552 35.3559 33.1369 35.3666 33.2188 35.3665C33.4252 35.3665 33.6258 35.2984 33.7896 35.1728C33.9533 35.0472 34.071 34.8711 34.1245 34.6718L35.0938 31.0521C35.1568 30.8124 35.1223 30.5574 34.9977 30.3431C34.8732 30.1287 34.6689 29.9724 34.4294 29.9083C34.19 29.8443 33.9349 29.8776 33.72 30.0011C33.505 30.1247 33.3478 30.3283 33.2826 30.5674L32.8982 32.0027L30.6238 28.0624C30.4593 27.7774 30.2226 27.5407 29.9376 27.3762C29.6525 27.2116 29.3292 27.125 29.0001 27.125C28.671 27.125 28.3477 27.2116 28.0626 27.3762C27.7776 27.5407 27.5409 27.7774 27.3763 28.0624L24.4382 33.1512C24.3139 33.3665 24.2802 33.6224 24.3446 33.8625C24.4089 34.1027 24.566 34.3075 24.7813 34.4318Z" fill="#38761D"/>
<path d="M57.125 20.5625C57.123 19.4796 56.7467 18.4308 56.0598 17.5936C55.373 16.7564 54.4179 16.1824 53.3563 15.9688C53.3756 14.1443 52.9509 12.3425 52.1188 10.7188L55.0907 9.44375C55.2319 9.38329 55.3561 9.28904 55.4524 9.1693C55.5487 9.04955 55.614 8.90799 55.6427 8.75705C55.6715 8.60611 55.6626 8.45043 55.617 8.30371C55.5714 8.15699 55.4905 8.02372 55.3813 7.91563L50.0844 2.61875C49.9762 2.50901 49.8426 2.42764 49.6954 2.38186C49.5482 2.33607 49.3921 2.32728 49.2407 2.35625C49.0907 2.38699 48.9502 2.45326 48.8312 2.54951C48.7121 2.64575 48.6178 2.76916 48.5563 2.90938L47.2813 5.88125C45.4416 4.92299 43.3711 4.49691 41.3025 4.65094C39.234 4.80496 37.2494 5.53298 35.5719 6.75313C34.609 6.06154 33.5427 5.52679 32.4125 5.16875L33.6219 2.15938C33.6769 2.01709 33.6971 1.86373 33.6808 1.71207C33.6645 1.56041 33.6121 1.41484 33.5282 1.2875C33.4422 1.16027 33.3262 1.05612 33.1906 0.984192C33.0549 0.912265 32.9036 0.87477 32.75 0.875001H25.25C25.0965 0.87477 24.9452 0.912265 24.8095 0.984192C24.6739 1.05612 24.5579 1.16027 24.4719 1.2875C24.388 1.41484 24.3356 1.56041 24.3193 1.71207C24.303 1.86373 24.3232 2.01709 24.3782 2.15938L25.5876 5.16875C24.4574 5.52679 23.3911 6.06154 22.4282 6.75313C20.7507 5.53298 18.7661 4.80496 16.6976 4.65094C14.629 4.49691 12.5585 4.92299 10.7188 5.88125L9.4438 2.90938C9.38228 2.76916 9.28802 2.64575 9.16894 2.54951C9.04986 2.45326 8.90942 2.38699 8.75942 2.35625C8.60804 2.32728 8.45185 2.33607 8.30468 2.38186C8.15751 2.42764 8.0239 2.50901 7.91568 2.61875L2.6188 7.91563C2.50961 8.02372 2.42866 8.15699 2.38307 8.30371C2.33748 8.45043 2.32865 8.60611 2.35735 8.75705C2.38606 8.90799 2.45142 9.04955 2.54769 9.1693C2.64396 9.28904 2.76818 9.38329 2.90942 9.44375L5.8813 10.7188C5.04917 12.3425 4.62447 14.1443 4.6438 15.9688C3.56961 16.1822 2.60429 16.7656 1.91591 17.6174C1.22752 18.4692 0.859674 19.5354 0.876401 20.6305C0.893128 21.7256 1.29337 22.7801 2.00745 23.6105C2.72153 24.4408 3.70422 24.9945 4.78442 25.175L8.90942 44.4219C7.82323 44.824 6.86294 45.5067 6.12629 46.4004C5.38965 47.2942 4.90294 48.3672 4.7157 49.5102C4.52846 50.6532 4.64737 51.8254 5.06033 52.9076C5.47329 53.9897 6.16557 54.9431 7.0667 55.6707C7.96783 56.3984 9.04565 56.8743 10.1905 57.0501C11.3353 57.2258 12.5062 57.0952 13.5842 56.6714C14.6621 56.2476 15.6085 55.5458 16.3271 54.6374C17.0457 53.7291 17.5108 52.6465 17.6751 51.5H40.3251C40.4877 52.6489 40.9521 53.7341 41.6708 54.645C42.3895 55.5559 43.337 56.26 44.4165 56.6855C45.496 57.1109 46.669 57.2426 47.816 57.0669C48.9629 56.8913 50.0428 56.4148 50.9456 55.6858C51.8483 54.9568 52.5417 54.0015 52.9549 52.9173C53.3682 51.833 53.4866 50.6586 53.298 49.5137C53.1095 48.3688 52.6208 47.2943 51.8817 46.3999C51.1426 45.5054 50.1795 44.8229 49.0907 44.4219L53.2157 25.175C54.3064 24.9903 55.2968 24.4261 56.0121 23.5822C56.7274 22.7383 57.1216 21.6688 57.125 20.5625ZM49.7375 4.925L53.0751 8.2625L51.1063 9.10625C50.7915 8.68793 50.4502 8.29024 50.0844 7.91563C49.7078 7.55214 49.3102 7.21094 48.8938 6.89375L49.7375 4.925ZM48.7532 9.24688C49.6232 10.1172 50.3128 11.1507 50.7826 12.2881C51.2523 13.4255 51.493 14.6444 51.4907 15.875H40.25C40.2537 12.9342 39.1023 10.1096 37.0438 8.00938C38.8396 6.83592 40.9854 6.3182 43.1188 6.54366C45.2521 6.76913 47.2423 7.72395 48.7532 9.24688ZM31.3626 2.75L30.5657 4.74688C29.5282 4.58438 28.4719 4.58438 27.4344 4.74688L26.6376 2.75H31.3626ZM23.0282 8.64688C24.3993 7.51385 26.0644 6.79426 27.8292 6.57212C29.594 6.34999 31.3855 6.63446 32.9946 7.39234C34.6038 8.15022 35.9641 9.35023 36.9168 10.8522C37.8695 12.3543 38.3753 14.0963 38.375 15.875H19.625C19.623 14.4936 19.9271 13.1289 20.5155 11.8791C21.104 10.6292 21.9621 9.52538 23.0282 8.64688ZM9.24693 9.24688C10.7578 7.72395 12.748 6.76913 14.8813 6.54366C17.0147 6.3182 19.1605 6.83592 20.9563 8.00938C18.9016 10.1121 17.7508 12.9351 17.75 15.875H6.50943C6.50713 14.6444 6.74776 13.4255 7.21752 12.2881C7.68728 11.1507 8.37693 10.1172 9.24693 9.24688ZM4.92505 8.2625L8.26255 4.925L9.1063 6.89375C8.68798 7.20856 8.29029 7.54989 7.91568 7.91563C7.54994 8.29024 7.20861 8.68793 6.8938 9.10625L4.92505 8.2625ZM11.1875 55.25C10.111 55.2521 9.06674 54.8829 8.23064 54.2048C7.39455 53.5267 6.81779 52.5811 6.59757 51.5274C6.37735 50.4736 6.52714 49.3762 7.02169 48.42C7.51624 47.4638 8.32532 46.7074 9.31255 46.2781L9.6313 47.7969C9.65942 47.9188 9.7063 48.0313 9.7438 48.1531C9.35222 48.3838 9.02238 48.706 8.78251 49.092C8.54265 49.4781 8.39991 49.9165 8.36652 50.3697C8.33313 50.823 8.41008 51.2776 8.59079 51.6946C8.77149 52.1116 9.05056 52.4786 9.40411 52.7642C9.75766 53.0498 10.1751 53.2455 10.6208 53.3344C11.0665 53.4234 11.5272 53.403 11.9633 53.2751C12.3994 53.1471 12.798 52.9154 13.1249 52.5997C13.4519 52.284 13.6975 51.8938 13.8407 51.4625C13.9646 51.4843 14.0899 51.4968 14.2157 51.5H15.7813C15.5624 52.5574 14.9864 53.5073 14.1499 54.1902C13.3134 54.873 12.2674 55.2472 11.1875 55.25ZM10.25 50.5625C10.2526 50.4167 10.2895 50.2736 10.358 50.1449C10.4264 50.0162 10.5244 49.9055 10.6438 49.8219C11.032 50.284 11.5064 50.6661 12.0407 50.9469C11.9674 51.1119 11.8478 51.252 11.6963 51.3502C11.5448 51.4484 11.3681 51.5005 11.1875 51.5C10.9389 51.5 10.7005 51.4012 10.5246 51.2254C10.3488 51.0496 10.25 50.8111 10.25 50.5625ZM51.5 50.5625C51.5012 51.725 51.0704 52.8464 50.2913 53.7091C49.5121 54.5718 48.4402 55.1142 47.2836 55.231C46.1271 55.3478 44.9683 55.0307 44.0324 54.3413C43.0965 53.6518 42.4501 52.6392 42.2188 51.5H43.7844C43.9102 51.4968 44.0355 51.4843 44.1594 51.4625C44.3042 51.891 44.5505 52.2781 44.8771 52.591C45.2038 52.9038 45.6012 53.1331 46.0355 53.2593C46.4699 53.3854 46.9283 53.4048 47.3717 53.3156C47.8152 53.2265 48.2305 53.0315 48.5823 52.7473C48.9342 52.4631 49.2121 52.098 49.3925 51.6833C49.5729 51.2685 49.6504 50.8163 49.6184 50.3651C49.5864 49.914 49.4458 49.4772 49.2086 49.0921C48.9715 48.7069 48.6448 48.3848 48.2563 48.1531C48.2938 48.0313 48.3407 47.9188 48.3688 47.7969L48.6875 46.2781C49.5201 46.6443 50.2287 47.2438 50.7278 48.0041C51.227 48.7644 51.4952 49.653 51.5 50.5625ZM45.9688 50.9469C46.4982 50.6628 46.969 50.2811 47.3563 49.8219C47.4757 49.9055 47.5737 50.0162 47.6421 50.1449C47.7106 50.2736 47.7475 50.4167 47.75 50.5625C47.75 50.8111 47.6513 51.0496 47.4755 51.2254C47.2996 51.4012 47.0612 51.5 46.8125 51.5C46.6335 51.4991 46.4586 51.4464 46.3089 51.3482C46.1591 51.2501 46.041 51.1107 45.9688 50.9469ZM46.5313 47.4031C46.3939 48.0304 46.0471 48.5923 45.5478 48.9961C45.0485 49.4 44.4266 49.6218 43.7844 49.625H14.2157C13.5735 49.6218 12.9516 49.4 12.4523 48.9961C11.953 48.5923 11.6062 48.0304 11.4688 47.4031L6.72505 25.25H51.275L46.5313 47.4031ZM5.56255 23.375C4.81663 23.375 4.10126 23.0787 3.57381 22.5512C3.04637 22.0238 2.75005 21.3084 2.75005 20.5625C2.75005 19.8166 3.04637 19.1012 3.57381 18.5738C4.10126 18.0463 4.81663 17.75 5.56255 17.75H52.4375C53.1835 17.75 53.8988 18.0463 54.4263 18.5738C54.9537 19.1012 55.25 19.8166 55.25 20.5625C55.25 21.3084 54.9537 22.0238 54.4263 22.5512C53.8988 23.0787 53.1835 23.375 52.4375 23.375H5.56255Z" fill="#38761D"/>
<path d="M33.7812 10.0916C32.4351 8.98164 30.7447 8.37475 29 8.375C28.7514 8.375 28.5129 8.47377 28.3371 8.64959C28.1613 8.8254 28.0625 9.06386 28.0625 9.3125C28.0625 9.56114 28.1613 9.7996 28.3371 9.97541C28.5129 10.1512 28.7514 10.25 29 10.25C30.0672 10.2495 31.1126 10.5527 32.014 11.1241C32.9154 11.6955 33.6356 12.5115 34.0906 13.4769C34.143 13.5883 34.2168 13.6883 34.3079 13.7712C34.3989 13.8541 34.5054 13.9182 34.6212 13.96C34.737 14.0017 34.8599 14.0202 34.9829 14.0145C35.1059 14.0087 35.2266 13.9788 35.338 13.9264C35.4494 13.874 35.5494 13.8002 35.6323 13.7092C35.7152 13.6181 35.7793 13.5117 35.8211 13.3958C35.8628 13.28 35.8813 13.1571 35.8756 13.0341C35.8698 12.9111 35.8399 12.7905 35.7875 12.6791C35.3187 11.6786 34.6335 10.7948 33.7812 10.0916Z" fill="#38761D"/>
<path d="M13.0625 10.5679C13.2271 10.5682 13.3889 10.5249 13.5313 10.4422C14.6646 9.78762 15.9905 9.54796 17.2813 9.76443C17.4035 9.787 17.5291 9.78502 17.6506 9.7586C17.7721 9.73218 17.8872 9.68185 17.9891 9.61053C18.0909 9.53922 18.1776 9.44835 18.244 9.34321C18.3104 9.23808 18.3553 9.12078 18.3759 8.99815C18.3966 8.87552 18.3926 8.75001 18.3643 8.62892C18.336 8.50783 18.2838 8.39359 18.2109 8.29285C18.138 8.19211 18.0458 8.10688 17.9396 8.04213C17.8334 7.97737 17.7154 7.93439 17.5925 7.91568C15.8732 7.62771 14.1072 7.94689 12.5975 8.81849C12.4191 8.92152 12.2795 9.08047 12.2005 9.27076C12.1215 9.46105 12.1073 9.67207 12.1602 9.87121C12.2132 10.0703 12.3302 10.2465 12.4933 10.3724C12.6564 10.4983 12.8565 10.567 13.0625 10.5679Z" fill="#38761D"/>
<path d="M40.7188 9.76443C42.0096 9.54804 43.3354 9.78769 44.4688 10.4422C44.684 10.5646 44.9389 10.5969 45.1778 10.532C45.4167 10.4671 45.6203 10.3104 45.7441 10.096C45.8678 9.88162 45.9018 9.62697 45.8385 9.38763C45.7752 9.14829 45.6199 8.94369 45.4063 8.81849C43.8966 7.94689 42.1306 7.62771 40.4113 7.91568C40.2884 7.93439 40.1704 7.97737 40.0642 8.04213C39.958 8.10688 39.8658 8.19211 39.7929 8.29285C39.72 8.39359 39.6679 8.50783 39.6395 8.62892C39.6112 8.75001 39.6072 8.87552 39.6279 8.99815C39.6485 9.12078 39.6934 9.23808 39.7598 9.34321C39.8262 9.44835 39.9129 9.53922 40.0147 9.61053C40.1166 9.68185 40.2317 9.73218 40.3532 9.7586C40.4747 9.78502 40.6003 9.787 40.7226 9.76443H40.7188Z" fill="#38761D"/>
</svg>
