<svg width="60" height="60" viewBox="0 0 60 60" fill="none" xmlns="http://www.w3.org/2000/svg">
<path d="M38.8767 60.0005H21.1234C20.84 60.0007 20.5665 59.896 20.3549 59.7061C20.1433 59.5163 20.0085 59.2547 19.976 58.9711L16.6587 30.8653C16.6396 30.7022 16.655 30.537 16.7038 30.3804C16.7526 30.2237 16.8339 30.0793 16.9421 29.9566C17.0504 29.8339 17.1832 29.7357 17.3319 29.6684C17.4806 29.6012 17.6417 29.5664 17.8047 29.5664H42.1926C42.3558 29.566 42.5172 29.6005 42.6663 29.6675C42.8153 29.7346 42.9485 29.8328 43.057 29.9555C43.1656 30.0783 43.2471 30.2228 43.2961 30.3797C43.3451 30.5365 43.3606 30.702 43.3414 30.8653L40.0241 58.9711C39.9917 59.2547 39.8568 59.5163 39.6452 59.7061C39.4336 59.896 39.1601 60.0007 38.8767 60.0005ZM22.146 57.6759H37.852L40.8931 31.8946H19.1107L22.146 57.6759Z" fill="#38761D"/>
<path d="M45.5415 31.8916H14.4599C14.1539 31.8916 13.8604 31.7691 13.644 31.5511C13.4276 31.3332 13.306 31.0375 13.306 30.7293C13.3076 29.3327 13.8587 27.9938 14.8386 27.0059C15.8185 26.0179 17.1473 25.4617 18.5337 25.459H41.4663C42.8534 25.4605 44.1833 26.0163 45.1642 27.0043C46.145 27.9924 46.6967 29.332 46.6983 30.7293C46.6983 30.8822 46.6683 31.0335 46.6101 31.1747C46.552 31.3159 46.4667 31.4442 46.3593 31.5522C46.2518 31.6601 46.1243 31.7457 45.984 31.8039C45.8436 31.8622 45.6933 31.892 45.5415 31.8916ZM15.8495 29.567H44.1504C43.9245 29.0384 43.55 28.5879 43.0731 28.271C42.5961 27.9541 42.0376 27.7847 41.4663 27.7836H18.5337C17.9623 27.7847 17.4038 27.9541 16.9269 28.271C16.45 28.5879 16.0755 29.0384 15.8495 29.567Z" fill="#38761D"/>
<path d="M34.0645 52.7135C33.7585 52.7135 33.465 52.591 33.2486 52.373C33.0322 52.1551 32.9106 51.8594 32.9106 51.5512V38.006C32.9106 37.6978 33.0322 37.4022 33.2486 37.1842C33.465 36.9662 33.7585 36.8438 34.0645 36.8438C34.3705 36.8438 34.664 36.9662 34.8804 37.1842C35.0968 37.4022 35.2183 37.6978 35.2183 38.006V51.5512C35.2183 51.8594 35.0968 52.1551 34.8804 52.373C34.664 52.591 34.3705 52.7135 34.0645 52.7135Z" fill="#38761D"/>
<path d="M25.9356 52.7135C25.6296 52.7135 25.3361 52.591 25.1197 52.373C24.9033 52.1551 24.7817 51.8594 24.7817 51.5512V38.006C24.7817 37.6978 24.9033 37.4022 25.1197 37.1842C25.3361 36.9662 25.6296 36.8438 25.9356 36.8438C26.2416 36.8438 26.5351 36.9662 26.7515 37.1842C26.9679 37.4022 27.0894 37.6978 27.0894 38.006V51.5512C27.0894 51.8594 26.9679 52.1551 26.7515 52.373C26.5351 52.591 26.2416 52.7135 25.9356 52.7135Z" fill="#38761D"/>
<path d="M36.2165 27.7817C35.9105 27.7817 35.617 27.6593 35.4006 27.4413C35.1842 27.2233 35.0627 26.9277 35.0627 26.6195V23.6781H24.9377V26.6231C24.9377 26.9313 24.8161 27.227 24.5997 27.445C24.3834 27.6629 24.0899 27.7854 23.7838 27.7854C23.4778 27.7854 23.1843 27.6629 22.968 27.445C22.7516 27.227 22.63 26.9313 22.63 26.6231V22.5158C22.63 22.2076 22.7516 21.9119 22.968 21.6939C23.1843 21.476 23.4778 21.3535 23.7838 21.3535H36.2165C36.5225 21.3535 36.816 21.476 37.0324 21.6939C37.2488 21.9119 37.3704 22.2076 37.3704 22.5158V26.6231C37.3694 26.9307 37.2474 27.2254 37.0311 27.4426C36.8148 27.6598 36.5219 27.7817 36.2165 27.7817Z" fill="#38761D"/>
<path d="M57.4038 54.7899H49.4711C49.1651 54.7899 48.8716 54.6674 48.6552 54.4494C48.4388 54.2315 48.3173 53.9358 48.3173 53.6276V33.6506C48.3173 33.3423 48.4388 33.0467 48.6552 32.8287C48.8716 32.6107 49.1651 32.4883 49.4711 32.4883H57.4038C57.7098 32.4883 58.0033 32.6107 58.2197 32.8287C58.4361 33.0467 58.5576 33.3423 58.5576 33.6506V53.6276C58.5576 53.9358 58.4361 54.2315 58.2197 54.4494C58.0033 54.6674 57.7098 54.7899 57.4038 54.7899ZM50.6249 52.4653H56.2499V34.8129H50.6249V52.4653Z" fill="#38761D"/>
<path d="M55.601 34.8103C55.295 34.8103 55.0015 34.6878 54.7851 34.4699C54.5687 34.2519 54.4472 33.9563 54.4472 33.648V31.1781H52.4279V33.648C52.4279 33.9563 52.3064 34.2519 52.09 34.4699C51.8736 34.6878 51.5801 34.8103 51.2741 34.8103C50.9681 34.8103 50.6746 34.6878 50.4582 34.4699C50.2418 34.2519 50.1202 33.9563 50.1202 33.648V30.0158C50.1202 29.7076 50.2418 29.4119 50.4582 29.1939C50.6746 28.976 50.9681 28.8535 51.2741 28.8535H55.601C55.907 28.8535 56.2005 28.976 56.4169 29.1939C56.6333 29.4119 56.7548 29.7076 56.7548 30.0158V33.648C56.7548 33.9563 56.6333 34.2519 56.4169 34.4699C56.2005 34.6878 55.907 34.8103 55.601 34.8103Z" fill="#38761D"/>
<path d="M53.4375 31.1788C53.1315 31.1788 52.838 31.0563 52.6216 30.8384C52.4053 30.6204 52.2837 30.3248 52.2837 30.0165V22.7521C52.2837 22.4439 52.4053 22.1482 52.6216 21.9303C52.838 21.7123 53.1315 21.5898 53.4375 21.5898C53.7436 21.5898 54.037 21.7123 54.2534 21.9303C54.4698 22.1482 54.5914 22.4439 54.5914 22.7521V30.0165C54.5914 30.3248 54.4698 30.6204 54.2534 30.8384C54.037 31.0563 53.7436 31.1788 53.4375 31.1788Z" fill="#38761D"/>
<path d="M58.8461 60.0004H48.0288C47.7228 60.0004 47.4293 59.8779 47.213 59.6599C46.9966 59.442 46.875 59.1463 46.875 58.8381C46.875 58.5298 46.9966 58.2342 47.213 58.0162C47.4293 57.7982 47.7228 57.6758 48.0288 57.6758H58.8461C59.1521 57.6758 59.4456 57.7982 59.662 58.0162C59.8784 58.2342 60 58.5298 60 58.8381C60 59.1463 59.8784 59.442 59.662 59.6599C59.4456 59.8779 59.1521 60.0004 58.8461 60.0004Z" fill="#38761D"/>
<path d="M55.435 59.9946H51.4406C51.1346 59.9946 50.8411 59.8721 50.6247 59.6542C50.4083 59.4362 50.2867 59.1405 50.2867 58.8323V53.6252C50.2867 53.3169 50.4083 53.0213 50.6247 52.8033C50.8411 52.5853 51.1346 52.4629 51.4406 52.4629C51.7466 52.4629 52.0401 52.5853 52.2565 52.8033C52.4729 53.0213 52.5944 53.3169 52.5944 53.6252V57.67H54.2812V53.6252C54.2812 53.3169 54.4028 53.0213 54.6192 52.8033C54.8355 52.5853 55.129 52.4629 55.435 52.4629C55.7411 52.4629 56.0346 52.5853 56.2509 52.8033C56.4673 53.0213 56.5889 53.3169 56.5889 53.6252V58.8323C56.5889 59.1405 56.4673 59.4362 56.2509 59.6542C56.0346 59.8721 55.7411 59.9946 55.435 59.9946Z" fill="#38761D"/>
<path d="M51.9951 38.807H49.4711C49.1651 38.807 48.8716 38.6846 48.6552 38.4666C48.4388 38.2486 48.3173 37.953 48.3173 37.6447C48.3173 37.3365 48.4388 37.0408 48.6552 36.8229C48.8716 36.6049 49.1651 36.4824 49.4711 36.4824H51.9951C52.3012 36.4824 52.5946 36.6049 52.811 36.8229C53.0274 37.0408 53.149 37.3365 53.149 37.6447C53.149 37.953 53.0274 38.2486 52.811 38.4666C52.5946 38.6846 52.3012 38.807 51.9951 38.807Z" fill="#38761D"/>
<path d="M51.9951 42.8012H49.4711C49.1651 42.8012 48.8716 42.6787 48.6552 42.4607C48.4388 42.2428 48.3173 41.9471 48.3173 41.6389C48.3173 41.3306 48.4388 41.035 48.6552 40.817C48.8716 40.599 49.1651 40.4766 49.4711 40.4766H51.9951C52.3012 40.4766 52.5946 40.599 52.811 40.817C53.0274 41.035 53.149 41.3306 53.149 41.6389C53.149 41.9471 53.0274 42.2428 52.811 42.4607C52.5946 42.6787 52.3012 42.8012 51.9951 42.8012Z" fill="#38761D"/>
<path d="M51.9951 46.7973H49.4711C49.1651 46.7973 48.8716 46.6748 48.6552 46.4568C48.4388 46.2389 48.3173 45.9432 48.3173 45.635C48.3173 45.3267 48.4388 45.0311 48.6552 44.8131C48.8716 44.5951 49.1651 44.4727 49.4711 44.4727H51.9951C52.3012 44.4727 52.5946 44.5951 52.811 44.8131C53.0274 45.0311 53.149 45.3267 53.149 45.635C53.149 45.9432 53.0274 46.2389 52.811 46.4568C52.5946 46.6748 52.3012 46.7973 51.9951 46.7973Z" fill="#38761D"/>
<path d="M51.9951 50.7933H49.4711C49.1651 50.7933 48.8716 50.6709 48.6552 50.4529C48.4388 50.2349 48.3173 49.9393 48.3173 49.631C48.3173 49.3228 48.4388 49.0272 48.6552 48.8092C48.8716 48.5912 49.1651 48.4688 49.4711 48.4688H51.9951C52.3012 48.4688 52.5946 48.5912 52.811 48.8092C53.0274 49.0272 53.149 49.3228 53.149 49.631C53.149 49.9393 53.0274 50.2349 52.811 50.4529C52.5946 50.6709 52.3012 50.7933 51.9951 50.7933Z" fill="#38761D"/>
<path d="M10.4914 60.0004H3.38156C2.4844 59.9995 1.62432 59.6398 0.990271 59.0004C0.356224 58.3611 7.661e-05 57.4943 7.71189e-05 56.5906V42.8311C-0.00463379 41.9563 0.206553 41.094 0.614651 40.3218C1.02275 39.5496 1.61496 38.8917 2.33805 38.4071C3.02964 37.9466 3.83877 37.1627 4.67675 36.1407C4.87174 35.903 5.15246 35.7531 5.45716 35.724C5.76187 35.6948 6.06558 35.7888 6.3015 35.9852C6.53743 36.1816 6.68622 36.4644 6.71517 36.7713C6.74411 37.0783 6.65082 37.3842 6.45583 37.6219C5.45992 38.8357 4.50295 39.7518 3.61089 40.346C3.20621 40.619 2.87525 40.989 2.64779 41.4228C2.42032 41.8566 2.30347 42.3406 2.30776 42.8311V56.5906C2.30748 56.7329 2.33503 56.8738 2.38885 57.0054C2.44267 57.1369 2.5217 57.2565 2.62142 57.3573C2.72114 57.4581 2.8396 57.5381 2.97003 57.5928C3.10045 57.6474 3.2403 57.6757 3.38156 57.6759H10.4914C10.7761 57.6755 11.049 57.5614 11.2503 57.3586C11.4516 57.1558 11.5648 56.8809 11.5652 56.5942V42.8311C11.5692 42.3406 11.4522 41.8568 11.2246 41.4231C10.997 40.9895 10.666 40.6196 10.2613 40.3467C9.37073 39.7525 8.41376 38.8365 7.41713 37.6219C7.22624 37.3839 7.13623 37.0796 7.16661 36.7752C7.19699 36.4708 7.34531 36.1907 7.5794 35.9957C7.81349 35.8007 8.11446 35.7066 8.41701 35.7337C8.71956 35.7609 8.99928 35.9071 9.19549 36.1407C10.0349 37.1635 10.8433 37.9473 11.5342 38.4071C12.2573 38.8917 12.8496 39.5496 13.2578 40.3218C13.666 41.094 13.8774 41.9563 13.8729 42.8311V56.5906C13.8717 57.4939 13.5152 58.36 12.8814 58.9992C12.2476 59.6383 11.3882 59.9983 10.4914 60.0004Z" fill="#38761D"/>
<path d="M11.0192 38.0433H2.85363C2.40632 38.0429 1.97743 37.8638 1.66107 37.5453C1.34471 37.2267 1.16671 36.7948 1.16614 36.3442V33.947C1.16728 33.4967 1.34553 33.0653 1.66183 32.7473C1.97813 32.4292 2.4067 32.2504 2.85363 32.25H11.0192C11.4665 32.2504 11.8954 32.4295 12.2118 32.748C12.5282 33.0666 12.7062 33.4985 12.7067 33.9491V36.3464C12.7056 36.7966 12.5273 37.228 12.211 37.5461C11.8947 37.8641 11.4662 38.0429 11.0192 38.0433ZM3.47382 35.7187H10.3969V34.5746H3.47382V35.7187Z" fill="#38761D"/>
<path d="M12.7191 56.4398H1.15397C0.847947 56.4398 0.554463 56.3174 0.338075 56.0994C0.121688 55.8814 0.00012207 55.5858 0.00012207 55.2775C0.00012207 54.9693 0.121688 54.6736 0.338075 54.4557C0.554463 54.2377 0.847947 54.1152 1.15397 54.1152H12.7191C13.0251 54.1152 13.3186 54.2377 13.535 54.4557C13.7514 54.6736 13.8729 54.9693 13.8729 55.2775C13.8729 55.5858 13.7514 55.8814 13.535 56.0994C13.3186 56.3174 13.0251 56.4398 12.7191 56.4398Z" fill="#38761D"/>
<path d="M12.7191 45.2543H1.15397C0.847947 45.2543 0.554463 45.1318 0.338075 44.9139C0.121688 44.6959 0.00012207 44.4002 0.00012207 44.092C0.00012207 43.7837 0.121688 43.4881 0.338075 43.2701C0.554463 43.0521 0.847947 42.9297 1.15397 42.9297H12.7191C13.0251 42.9297 13.3186 43.0521 13.535 43.2701C13.7514 43.4881 13.8729 43.7837 13.8729 44.092C13.8729 44.4002 13.7514 44.6959 13.535 44.9139C13.3186 45.1318 13.0251 45.2543 12.7191 45.2543Z" fill="#38761D"/>
<path d="M6.93619 53.1761C6.63017 53.1761 6.33669 53.0536 6.1203 52.8357C5.90391 52.6177 5.78235 52.3221 5.78235 52.0138V47.3537C5.78235 47.0454 5.90391 46.7498 6.1203 46.5318C6.33669 46.3139 6.63017 46.1914 6.93619 46.1914C7.24221 46.1914 7.5357 46.3139 7.75208 46.5318C7.96847 46.7498 8.09004 47.0454 8.09004 47.3537V52.0138C8.09004 52.3221 7.96847 52.6177 7.75208 52.8357C7.5357 53.0536 7.24221 53.1761 6.93619 53.1761Z" fill="#38761D"/>
<path d="M9.24964 50.8461H4.62345C4.31743 50.8461 4.02395 50.7236 3.80756 50.5057C3.59117 50.2877 3.4696 49.992 3.4696 49.6838C3.4696 49.3755 3.59117 49.0799 3.80756 48.8619C4.02395 48.6439 4.31743 48.5215 4.62345 48.5215H9.24964C9.55566 48.5215 9.84914 48.6439 10.0655 48.8619C10.2819 49.0799 10.4035 49.3755 10.4035 49.6838C10.4035 49.992 10.2819 50.2877 10.0655 50.5057C9.84914 50.7236 9.55566 50.8461 9.24964 50.8461Z" fill="#38761D"/>
<path d="M31.1323 16.8531C30.578 16.8547 30.0289 16.7456 29.5168 16.532C29.0047 16.3184 28.5397 16.0046 28.1489 15.6087C27.3579 14.8117 26.9136 13.7308 26.9136 12.6038C26.9136 11.4768 27.3579 10.396 28.1489 9.59892L34.0133 3.69154C34.8061 2.90248 35.8766 2.46149 36.9911 2.46486C38.1055 2.46824 39.1734 2.9157 39.9615 3.70954C40.7496 4.50337 41.1938 5.57908 41.1971 6.70173C41.2005 7.82438 40.7627 8.90275 39.9794 9.70134L34.115 15.6087C33.7242 16.0045 33.2593 16.3183 32.7473 16.5319C32.2354 16.7455 31.6864 16.8546 31.1323 16.8531ZM36.9952 4.77175C36.7443 4.77097 36.4956 4.8204 36.2638 4.91717C36.0319 5.01394 35.8214 5.15612 35.6445 5.33546L29.7837 11.2428C29.4255 11.6038 29.2242 12.0934 29.2242 12.6038C29.2242 13.1143 29.4255 13.6038 29.7837 13.9648C30.1422 14.3257 30.6283 14.5285 31.1352 14.5285C31.642 14.5285 32.1281 14.3257 32.4866 13.9648L38.3474 8.0596C38.6152 7.79041 38.7977 7.44718 38.8718 7.07341C38.9458 6.69964 38.908 6.31214 38.7632 5.96002C38.6184 5.60791 38.3731 5.30702 38.0583 5.09548C37.7436 4.88394 37.3736 4.77127 36.9952 4.77175Z" fill="#38761D"/>
<path d="M37.4495 11.7671C37.1438 11.7668 36.8507 11.6443 36.6346 11.4264L32.2998 7.06057C32.1926 6.95262 32.1076 6.82448 32.0496 6.68345C31.9916 6.54241 31.9618 6.39126 31.9618 6.2386C31.9618 6.08595 31.9916 5.93479 32.0496 5.79376C32.1076 5.65273 32.1926 5.52458 32.2998 5.41664C32.4069 5.3087 32.5342 5.22307 32.6742 5.16466C32.8142 5.10624 32.9642 5.07617 33.1158 5.07617C33.2673 5.07617 33.4174 5.10624 33.5574 5.16466C33.6974 5.22307 33.8246 5.3087 33.9318 5.41664L38.2659 9.78252C38.4274 9.94503 38.5374 10.1521 38.582 10.3777C38.6266 10.6032 38.6039 10.837 38.5165 11.0494C38.4292 11.2619 38.2813 11.4435 38.0915 11.5713C37.9017 11.699 37.6785 11.7672 37.4503 11.7671H37.4495Z" fill="#38761D"/>
<path d="M19.0254 16.8533C17.9069 16.8522 16.8345 16.4041 16.0435 15.6073C15.2526 14.8106 14.8078 13.7304 14.8066 12.6037V4.24965C14.808 3.12299 15.2529 2.04285 16.0438 1.24618C16.8346 0.449507 17.9069 0.00134573 19.0254 0C20.1438 0.00134573 21.2161 0.449507 22.007 1.24618C22.7979 2.04285 23.2428 3.12299 23.2441 4.24965V12.6037C23.243 13.7304 22.7981 14.8106 22.0072 15.6073C21.2163 16.4041 20.1439 16.8522 19.0254 16.8533ZM19.0254 2.3246C18.5187 2.32517 18.033 2.52818 17.6747 2.88907C17.3164 3.24996 17.1149 3.73927 17.1143 4.24965V12.6037C17.1143 13.1142 17.3157 13.6039 17.6741 13.9649C18.0325 14.3259 18.5185 14.5287 19.0254 14.5287C19.5322 14.5287 20.0183 14.3259 20.3767 13.9649C20.7351 13.6039 20.9364 13.1142 20.9364 12.6037V4.24965C20.9359 3.73927 20.7343 3.24996 20.3761 2.88907C20.0178 2.52818 19.532 2.32517 19.0254 2.3246Z" fill="#38761D"/>
<path d="M22.0903 11.3246H15.9605C15.6545 11.3246 15.361 11.2021 15.1446 10.9842C14.9282 10.7662 14.8066 10.4706 14.8066 10.1623C14.8066 9.85404 14.9282 9.5584 15.1446 9.34043C15.361 9.12246 15.6545 9 15.9605 9H22.0903C22.3963 9 22.6898 9.12246 22.9062 9.34043C23.1226 9.5584 23.2441 9.85404 23.2441 10.1623C23.2441 10.4706 23.1226 10.7662 22.9062 10.9842C22.6898 11.2021 22.3963 11.3246 22.0903 11.3246Z" fill="#38761D"/>
<path d="M49.4711 18.8536C47.9949 18.8536 46.5518 18.4127 45.3244 17.5865C44.097 16.7604 43.1403 15.5861 42.5754 14.2123C42.0104 12.8384 41.8626 11.3267 42.1506 9.86822C42.4386 8.40975 43.1495 7.07006 44.1933 6.01856C45.2372 4.96706 46.5671 4.25098 48.015 3.96088C49.4629 3.67077 50.9636 3.81966 52.3274 4.38873C53.6913 4.9578 54.857 5.92148 55.6772 7.15791C56.4973 8.39434 56.9351 9.84798 56.9351 11.335C56.9328 13.3284 56.1457 15.2394 54.7464 16.6489C53.3471 18.0585 51.45 18.8513 49.4711 18.8536ZM49.4711 6.14101C48.4513 6.14101 47.4544 6.44563 46.6065 7.01636C45.7585 7.58708 45.0977 8.39828 44.7074 9.34736C44.3171 10.2964 44.215 11.3408 44.414 12.3483C44.6129 13.3559 45.104 14.2814 45.8251 15.0077C46.5462 15.7341 47.465 16.2288 48.4652 16.4292C49.4654 16.6297 50.5022 16.5268 51.4443 16.1337C52.3865 15.7405 53.1918 15.0748 53.7584 14.2207C54.325 13.3665 54.6274 12.3623 54.6274 11.335C54.6258 9.95796 54.0821 8.63773 53.1155 7.664C52.1488 6.69026 50.8382 6.14254 49.4711 6.14101Z" fill="#38761D"/>
<path d="M45.0094 16.9939C44.7813 16.9938 44.5583 16.9256 44.3686 16.7979C44.179 16.6701 44.0312 16.4887 43.9439 16.2763C43.8566 16.064 43.8337 15.8304 43.8782 15.605C43.9227 15.3796 44.0325 15.1726 44.1938 15.01L53.1173 6.0182C53.2245 5.91026 53.3517 5.82464 53.4917 5.76622C53.6317 5.7078 53.7817 5.67773 53.9333 5.67773C54.0848 5.67773 54.2349 5.7078 54.3749 5.76622C54.5149 5.82464 54.6421 5.91026 54.7493 6.0182C54.8564 6.12614 54.9414 6.25429 54.9994 6.39532C55.0574 6.53635 55.0873 6.68751 55.0873 6.84017C55.0873 6.99282 55.0574 7.14397 54.9994 7.28501C54.9414 7.42604 54.8564 7.55418 54.7493 7.66213L45.8257 16.651C45.7187 16.7595 45.5915 16.8456 45.4515 16.9044C45.3114 16.9632 45.1612 16.9937 45.0094 16.9939Z" fill="#38761D"/>
</svg>
