<svg width="60" height="60" viewBox="0 0 60 60" fill="none" xmlns="http://www.w3.org/2000/svg">
<path d="M56.9994 50C56.8625 50.0054 56.7261 50.0204 56.5914 50.045L57.9464 31.745C58.2627 31.5758 58.5275 31.3244 58.7128 31.0173C58.8981 30.7102 58.9971 30.3587 58.9994 30V29C58.9994 28.2044 58.6833 27.4413 58.1207 26.8787C57.5581 26.3161 56.795 26 55.9994 26V25C55.9994 24.2044 55.6833 23.4413 55.1207 22.8787C54.5581 22.3161 53.795 22 52.9994 22H47.9994V16.532C48.6067 16.6982 49.2538 16.6368 49.819 16.3593C50.3842 16.0817 50.8286 15.6072 51.0684 15.025L51.7984 13.276C52.0636 12.6383 52.0652 11.9215 51.8028 11.2826C51.5403 10.6438 51.0353 10.1351 50.3984 9.868L27.3664 0.273C26.933 0.0932617 26.4685 0.000744984 25.9994 0.000744984C25.5302 0.000744984 25.0657 0.0932617 24.6324 0.273L18.9624 2.635C18.875 1.90991 18.5256 1.24178 17.9798 0.75645C17.4341 0.271118 16.7297 0.00207746 15.9994 0L12.9994 0C12.2037 0 11.4407 0.31607 10.878 0.87868C10.3154 1.44129 9.99937 2.20435 9.99937 3V6.37L1.59937 9.87C0.962948 10.1371 0.458294 10.6455 0.195899 11.2838C-0.0664957 11.9222 -0.0652489 12.6385 0.199366 13.276L0.929366 15.025C1.12789 15.498 1.46141 15.9021 1.88826 16.1867C2.31511 16.4712 2.81636 16.6237 3.32937 16.625C3.55414 16.621 3.7774 16.5874 3.99337 16.525V51C3.99337 51.7957 4.30944 52.5587 4.87205 53.1213C5.43466 53.6839 6.19772 54 6.99337 54H29.9994V57C29.997 57.6717 30.2209 58.3247 30.635 58.8537C31.049 59.3826 31.6292 59.7567 32.2818 59.9157C32.9345 60.0746 33.6217 60.0092 34.2326 59.7298C34.8435 59.4505 35.3426 58.9736 35.6494 58.376C36.2874 58.7833 37.0285 58.9998 37.7854 59H52.2134C52.9703 58.9998 53.7114 58.7833 54.3494 58.376C54.6561 58.9736 55.1552 59.4505 55.7661 59.7298C56.377 60.0092 57.0642 60.0746 57.7169 59.9157C58.3696 59.7567 58.9497 59.3826 59.3638 58.8537C59.7779 58.3247 60.0017 57.6717 59.9994 57V53C59.9954 52.2056 59.6781 51.4448 59.1163 50.883C58.5546 50.3213 57.7938 50.0039 56.9994 50ZM56.9994 29V30H32.9994V29C32.9994 28.7348 33.1047 28.4804 33.2923 28.2929C33.4798 28.1054 33.7342 28 33.9994 28H55.9994C56.2646 28 56.5189 28.1054 56.7065 28.2929C56.894 28.4804 56.9994 28.7348 56.9994 29ZM32.0524 31.75L32.6634 40H28.9994V29H30.9994V30C31.0007 30.3596 31.0993 30.7121 31.2847 31.0201C31.47 31.3282 31.7353 31.5804 32.0524 31.75ZM53.9994 25V26H35.9994V25C35.9994 24.7348 36.1047 24.4804 36.2923 24.2929C36.4798 24.1054 36.7342 24 36.9994 24H52.9994C53.2646 24 53.5189 24.1054 53.7065 24.2929C53.894 24.4804 53.9994 24.7348 53.9994 25ZM11.9994 3C11.9994 2.73478 12.1047 2.48043 12.2923 2.29289C12.4798 2.10536 12.7342 2 12.9994 2H15.9994C16.2646 2 16.5189 2.10536 16.7065 2.29289C16.894 2.48043 16.9994 2.73478 16.9994 3V3.453L11.9994 5.536V3ZM3.10437 14.583C3.03074 14.5528 2.96379 14.5083 2.90734 14.4522C2.85089 14.3961 2.80605 14.3294 2.77537 14.256L2.04637 12.507C1.98491 12.3586 1.98471 12.1918 2.04579 12.0433C2.10687 11.8947 2.22428 11.7763 2.37237 11.714L25.3994 2.119C25.7835 1.95988 26.2152 1.95988 26.5994 2.119L49.6274 11.719C49.7756 11.7811 49.8933 11.8994 49.9546 12.048C50.0158 12.1966 50.0158 12.3634 49.9544 12.512L49.2254 14.261C49.1947 14.3344 49.1498 14.4011 49.0934 14.4572C49.0369 14.5133 48.97 14.5578 48.8964 14.588C48.8233 14.6189 48.7447 14.6348 48.6654 14.6348C48.586 14.6348 48.5075 14.6189 48.4344 14.588L26.3844 5.4C26.2625 5.34851 26.1316 5.32199 25.9994 5.32199C25.8671 5.32199 25.7362 5.34851 25.6144 5.4L3.56637 14.582C3.49334 14.6131 3.41483 14.6292 3.33547 14.6293C3.25611 14.6295 3.17752 14.6138 3.10437 14.583ZM5.99937 51V15.735L25.9994 7.4L45.9994 15.735V22H36.9994C36.2037 22 35.4407 22.3161 34.8781 22.8787C34.3154 23.4413 33.9994 24.2044 33.9994 25V26C33.5798 26.0013 33.1653 26.0911 32.7828 26.2634C32.4003 26.4357 32.0584 26.6867 31.7794 27H28.9994C28.4689 27 27.9602 27.2107 27.5852 27.5858C27.2101 27.9609 26.9994 28.4696 26.9994 29V40C26.9994 40.5304 27.2101 41.0391 27.5852 41.4142C27.9602 41.7893 28.4689 42 28.9994 42H32.8114L33.4114 50.045C32.7296 49.9444 32.0342 50.0846 31.4447 50.4414C30.8551 50.7982 30.4084 51.3494 30.1814 52H24.9994V29C24.9994 28.4696 24.7887 27.9609 24.4136 27.5858C24.0385 27.2107 23.5298 27 22.9994 27H10.9994C10.4689 27 9.96023 27.2107 9.58515 27.5858C9.21008 27.9609 8.99937 28.4696 8.99937 29V52H6.99937C6.73415 52 6.4798 51.8946 6.29226 51.7071C6.10472 51.5196 5.99937 51.2652 5.99937 51ZM22.9994 52H10.9994V29H22.9994V52ZM32.9994 58C32.7342 58 32.4798 57.8946 32.2923 57.7071C32.1047 57.5196 31.9994 57.2652 31.9994 57V53C31.9991 52.8665 32.0262 52.7343 32.079 52.6117C32.1318 52.4891 32.2092 52.3786 32.3064 52.287C32.4761 52.132 32.6938 52.0399 32.9233 52.0259C33.1527 52.0119 33.38 52.0768 33.5674 52.21L33.7994 55.3C33.8262 55.6231 33.8934 55.9416 33.9994 56.248V57C33.9994 57.2652 33.894 57.5196 33.7065 57.7071C33.5189 57.8946 33.2646 58 32.9994 58ZM52.2134 57H37.7854C37.28 56.9995 36.7934 56.8084 36.4227 56.465C36.052 56.1215 35.8244 55.6509 35.7854 55.147L34.0764 32H55.9224L54.2084 55.147C54.1694 55.65 53.9426 56.1199 53.5729 56.4633C53.2033 56.8066 52.7179 56.9982 52.2134 57ZM57.9994 57C57.9994 57.2652 57.894 57.5196 57.7065 57.7071C57.5189 57.8946 57.2646 58 56.9994 58C56.7342 58 56.4798 57.8946 56.2923 57.7071C56.1047 57.5196 55.9994 57.2652 55.9994 57V56.244C56.1053 55.9376 56.1725 55.6191 56.1994 55.296L56.4284 52.207C56.6192 52.0694 56.8526 52.0039 57.0872 52.0222C57.3218 52.0405 57.5422 52.1414 57.7094 52.307C57.8019 52.397 57.8752 52.5048 57.9251 52.6239C57.9749 52.743 58.0002 52.8709 57.9994 53V57Z" fill="#38761D"/>
<path d="M25.9994 23C27.1861 23 28.3461 22.6481 29.3328 21.9888C30.3195 21.3295 31.0885 20.3925 31.5427 19.2961C31.9968 18.1997 32.1156 16.9933 31.8841 15.8295C31.6526 14.6656 31.0811 13.5965 30.242 12.7574C29.4029 11.9182 28.3338 11.3468 27.1699 11.1153C26.006 10.8838 24.7996 11.0026 23.7033 11.4567C22.6069 11.9109 21.6699 12.6799 21.0106 13.6666C20.3513 14.6533 19.9994 15.8133 19.9994 17C20.001 18.5908 20.6336 20.116 21.7585 21.2409C22.8834 22.3658 24.4086 22.9984 25.9994 23ZM25.9994 13C26.7905 13 27.5639 13.2346 28.2217 13.6741C28.8795 14.1137 29.3922 14.7384 29.6949 15.4693C29.9977 16.2002 30.0769 17.0044 29.9225 17.7804C29.7682 18.5563 29.3872 19.269 28.8278 19.8284C28.2684 20.3878 27.5557 20.7688 26.7798 20.9231C26.0038 21.0775 25.1996 20.9983 24.4687 20.6955C23.7378 20.3928 23.113 19.8801 22.6735 19.2223C22.234 18.5645 21.9994 17.7911 21.9994 17C21.9994 15.9391 22.4208 14.9217 23.171 14.1716C23.9211 13.4214 24.9385 13 25.9994 13Z" fill="#38761D"/>
</svg>
