<svg width="70" height="70" viewBox="0 0 70 70" fill="none" xmlns="http://www.w3.org/2000/svg">
<path d="M50.6866 18.4997H50.1724L48.3822 12.6149C48.2393 12.1464 47.9497 11.7362 47.5561 11.4448C47.1625 11.1533 46.6856 10.996 46.1958 10.9961H23.7763C23.2865 10.996 22.8097 11.1533 22.416 11.4448C22.0224 11.7362 21.7328 12.1464 21.59 12.6149L19.7998 18.4997H19.2856C18.6794 18.4997 18.0981 18.7405 17.6696 19.1691C17.241 19.5977 17.0002 20.179 17.0002 20.7851V24.3084C17.0002 24.9145 17.241 25.4958 17.6696 25.9244C18.0981 26.353 18.6794 26.5938 19.2856 26.5938H19.6665L22.1575 56.018C22.2063 56.5898 22.4684 57.1224 22.8919 57.5098C23.3153 57.8972 23.869 58.1111 24.4429 58.1091H45.5407C46.1146 58.1111 46.6683 57.8972 47.0917 57.5098C47.5151 57.1224 47.7773 56.5898 47.8261 56.018L50.3171 26.5938H50.698C51.3041 26.5938 51.8854 26.353 52.314 25.9244C52.7426 25.4958 52.9834 24.9145 52.9834 24.3084V20.7851C52.9834 20.484 52.9239 20.1859 52.8083 19.9079C52.6928 19.6299 52.5234 19.3774 52.31 19.1651C52.0966 18.9527 51.8433 18.7846 51.5647 18.6704C51.2861 18.5562 50.9877 18.4982 50.6866 18.4997ZM33.6872 56.5893C33.3842 56.5893 33.0935 56.4689 32.8792 56.2546C32.6649 56.0403 32.5445 55.7497 32.5445 55.4466C32.5445 55.1436 32.6649 54.8529 32.8792 54.6386C33.0935 54.4243 33.3842 54.3039 33.6872 54.3039H36.2583C36.5613 54.3039 36.852 54.4243 37.0663 54.6386C37.2806 54.8529 37.4009 55.1436 37.4009 55.4466C37.4009 55.7497 37.2806 56.0403 37.0663 56.2546C36.852 56.4689 36.5613 56.5893 36.2583 56.5893H33.6872ZM39.3245 56.5893H38.6579C38.8305 56.2332 38.9191 55.8423 38.9169 55.4466C38.9169 54.7395 38.636 54.0613 38.136 53.5613C37.636 53.0612 36.9578 52.7803 36.2506 52.7803H33.6872C32.9801 52.7803 32.3019 53.0612 31.8019 53.5613C31.3019 54.0613 31.0209 54.7395 31.0209 55.4466C31.0187 55.8423 31.1073 56.2332 31.28 56.5893H30.6477V49.9731C30.6477 48.8225 31.1048 47.719 31.9184 46.9054C32.732 46.0918 33.8355 45.6347 34.9861 45.6347C36.1367 45.6347 37.2402 46.0918 38.0538 46.9054C38.8674 47.719 39.3245 48.8225 39.3245 49.9731V56.5893ZM46.3025 55.8923C46.2862 56.0829 46.1988 56.2604 46.0577 56.3895C45.9166 56.5187 45.732 56.59 45.5407 56.5893H40.8481V49.9731C40.8481 48.4184 40.2305 46.9274 39.1311 45.8281C38.0318 44.7288 36.5408 44.1112 34.9861 44.1112C33.4314 44.1112 31.9404 44.7288 30.841 45.8281C29.7417 46.9274 29.1241 48.4184 29.1241 49.9731V56.5855H24.4315C24.2401 56.5862 24.0556 56.5149 23.9144 56.3857C23.7733 56.2566 23.6859 56.0791 23.6697 55.8884L21.1938 26.5938H48.7783L46.3025 55.8923ZM51.4484 24.3122C51.4484 24.5142 51.3681 24.708 51.2253 24.8509C51.0824 24.9937 50.8886 25.074 50.6866 25.074H19.2856C19.0835 25.074 18.8898 24.9937 18.7469 24.8509C18.604 24.708 18.5238 24.5142 18.5238 24.3122V20.7851C18.5238 20.5831 18.604 20.3893 18.7469 20.2464C18.8898 20.1036 19.0835 20.0233 19.2856 20.0233H40.4672C40.6692 20.0233 40.863 19.9431 41.0058 19.8002C41.1487 19.6573 41.229 19.4636 41.229 19.2615C41.229 19.0595 41.1487 18.8657 41.0058 18.7229C40.863 18.58 40.6692 18.4997 40.4672 18.4997H21.3919L23.0488 13.0605C23.0961 12.9044 23.1924 12.7675 23.3233 12.6701C23.4543 12.5727 23.6131 12.52 23.7763 12.5197H46.1958C46.359 12.52 46.5178 12.5727 46.6488 12.6701C46.7798 12.7675 46.876 12.9044 46.9233 13.0605L48.5802 18.4997H44.2761C44.0741 18.4997 43.8803 18.58 43.7374 18.7229C43.5946 18.8657 43.5143 19.0595 43.5143 19.2615C43.5143 19.4636 43.5946 19.6573 43.7374 19.8002C43.8803 19.9431 44.0741 20.0233 44.2761 20.0233H50.6866C50.8886 20.0233 51.0824 20.1036 51.2253 20.2464C51.3681 20.3893 51.4484 20.5831 51.4484 20.7851V24.3122Z" fill="#FFD966" stroke="#FFD966" stroke-width="0.6"/>
<path d="M38.5932 40.5778H36.3079C36.1058 40.5778 35.9121 40.4976 35.7692 40.3547C35.6263 40.2118 35.5461 40.0181 35.5461 39.816C35.5461 39.614 35.6263 39.4202 35.7692 39.2774C35.9121 39.1345 36.1058 39.0542 36.3079 39.0542H38.5932C38.695 39.0545 38.795 39.0279 38.8832 38.9772C38.9714 38.9265 39.0447 38.8534 39.0957 38.7654C39.1467 38.6773 39.1735 38.5774 39.1736 38.4756C39.1737 38.3739 39.1469 38.2739 39.096 38.1858L37.9533 36.2204C37.8623 36.0463 37.842 35.8437 37.8967 35.655C37.9515 35.4663 38.077 35.3061 38.2471 35.2077C38.4172 35.1094 38.6187 35.0806 38.8096 35.1273C39.0004 35.1741 39.1658 35.2928 39.2712 35.4586L40.4139 37.424C40.5986 37.7439 40.6958 38.1068 40.6956 38.4762C40.6955 38.8456 40.598 39.2084 40.413 39.5281C40.2281 39.8479 39.9621 40.1132 39.642 40.2975C39.3218 40.4818 38.9588 40.5785 38.5894 40.5778H38.5932Z" fill="#FFD966" stroke="#FFD966" stroke-width="0.6"/>
<path d="M33.6454 40.5787H31.3791C31.0097 40.5793 30.6467 40.4827 30.3265 40.2984C30.0064 40.1141 29.7405 39.8487 29.5555 39.529C29.3705 39.2093 29.273 38.8464 29.2729 38.4771C29.2727 38.1077 29.3699 37.7448 29.5546 37.4249L30.6973 35.4595C30.7449 35.3684 30.8104 35.288 30.89 35.2229C30.9695 35.1579 31.0613 35.1096 31.16 35.0809C31.2587 35.0523 31.3621 35.044 31.4641 35.0563C31.5661 35.0687 31.6646 35.1016 31.7535 35.153C31.8425 35.2045 31.9201 35.2733 31.9817 35.3555C32.0434 35.4377 32.0877 35.5315 32.1122 35.6313C32.1366 35.7311 32.1406 35.8348 32.124 35.9362C32.1073 36.0376 32.0703 36.1345 32.0152 36.2213L30.8725 38.1867C30.8216 38.2748 30.7948 38.3748 30.7949 38.4765C30.795 38.5783 30.8218 38.6782 30.8728 38.7662C30.9238 38.8543 30.9971 38.9274 31.0853 38.9781C31.1735 39.0288 31.2735 39.0554 31.3753 39.0551H33.6416C33.8436 39.0551 34.0374 39.1354 34.1803 39.2782C34.3231 39.4211 34.4034 39.6149 34.4034 39.8169C34.4034 40.0189 34.3231 40.2127 34.1803 40.3556C34.0374 40.4984 33.8436 40.5787 33.6416 40.5787H33.6454Z" fill="#FFD966" stroke="#FFD966" stroke-width="0.6"/>
<path d="M37.2716 34.2783C37.1374 34.2788 37.0054 34.2439 36.889 34.177C36.7726 34.1101 36.676 34.0137 36.6088 33.8974L35.4662 31.9358C35.4148 31.8481 35.3413 31.7754 35.2531 31.7248C35.1649 31.6743 35.065 31.6477 34.9634 31.6477C34.8617 31.6477 34.7618 31.6743 34.6736 31.7248C34.5854 31.7754 34.512 31.8481 34.4606 31.9358L33.3179 33.8974C33.2169 34.0727 33.0504 34.2006 32.855 34.2532C32.6596 34.3057 32.4514 34.2784 32.2762 34.1774C32.1009 34.0764 31.9729 33.9098 31.9204 33.7145C31.8679 33.5191 31.8952 33.3109 31.9962 33.1356L33.1389 31.174C33.3234 30.8545 33.5889 30.5891 33.9084 30.4046C34.228 30.2202 34.5906 30.123 34.9596 30.123C35.3286 30.123 35.6911 30.2202 36.0107 30.4046C36.3303 30.5891 36.5957 30.8545 36.7802 31.174L37.9229 33.1356C37.9898 33.2514 38.025 33.3827 38.025 33.5163C38.025 33.65 37.9899 33.7813 37.9231 33.8971C37.8564 34.0129 37.7603 34.109 37.6446 34.176C37.5289 34.2429 37.3976 34.2782 37.264 34.2783H37.2716Z" fill="#FFD966" stroke="#FFD966" stroke-width="0.6"/>
</svg>
