<svg width="70" height="70" viewBox="0 0 70 70" fill="none" xmlns="http://www.w3.org/2000/svg">
<path d="M61.1016 33.2007H59.2384C59.0718 30.9791 58.6056 28.7902 57.8524 26.6936C56.6379 23.3548 54.7061 20.323 52.1931 17.8117C49.6801 15.3003 46.647 13.3705 43.3075 12.1581L42.6954 13.8502C46.9016 15.3641 50.559 18.1012 53.1974 21.7099C55.8357 25.3185 57.3346 29.6337 57.5013 34.1008C57.5013 34.3395 57.5962 34.5684 57.765 34.7372C57.9337 34.906 58.1627 35.0008 58.4014 35.0008H59.3014L55.7012 39.7979L53.6041 37.0079L53.5501 36.9269L52.101 35.0008H53.0011C53.1223 35.0003 53.2422 34.9754 53.3536 34.9274C53.4649 34.8795 53.5654 34.8095 53.6491 34.7218C53.8099 34.5549 53.9002 34.3325 53.9011 34.1008C53.8023 31.9014 53.3115 29.7374 52.452 27.7106C50.5285 23.1407 46.8947 19.5038 42.3264 17.5763C41.4507 17.2077 40.548 16.9068 39.6263 16.6763L41.8404 15.0202C41.9522 14.9364 42.0429 14.8277 42.1054 14.7027C42.1679 14.5777 42.2004 14.4399 42.2004 14.3002C42.2004 14.1605 42.1679 14.0227 42.1054 13.8977C42.0429 13.7727 41.9522 13.664 41.8404 13.5802L34.64 8.18001C34.5062 8.07972 34.3472 8.01865 34.1808 8.00364C34.0143 7.98863 33.8469 8.02027 33.6974 8.09502C33.5479 8.16977 33.4222 8.28467 33.3343 8.42686C33.2464 8.56904 33.1999 8.73288 33.1999 8.90003V10.7631C30.9782 10.9297 28.7892 11.3959 26.6925 12.1491C23.3537 13.3635 20.3218 15.2952 17.8103 17.8082C15.2989 20.3211 13.369 23.3541 12.1566 26.6936L13.8487 27.3056C15.3627 23.0995 18.0999 19.4423 21.7086 16.804C25.3174 14.1657 29.6327 12.6668 34.0999 12.5001C34.3386 12.5001 34.5676 12.4053 34.7364 12.2365C34.9052 12.0677 35 11.8388 35 11.6001V10.7001L39.7973 14.3002L37.0071 16.3972L36.9261 16.4513L35 17.9003V17.0003C34.9995 16.879 34.9746 16.7591 34.9266 16.6478C34.8787 16.5364 34.8087 16.4359 34.721 16.3522C34.5541 16.1914 34.3317 16.1012 34.0999 16.1002C31.9005 16.1991 29.7365 16.6898 27.7096 17.5493C23.1396 19.4728 19.5025 23.1064 17.5749 27.6746C17.2064 28.5503 16.9055 29.453 16.6749 30.3747L15.0188 28.1606C14.935 28.0488 14.8262 27.9581 14.7013 27.8956C14.5763 27.8331 14.4385 27.8006 14.2988 27.8006C14.159 27.8006 14.0212 27.8331 13.8962 27.8956C13.7713 27.9581 13.6625 28.0488 13.5787 28.1606L8.17839 35.3608C8.07824 35.4952 8.0176 35.6548 8.00329 35.8218C7.98898 35.9888 8.02156 36.1564 8.09738 36.3058C8.17217 36.4543 8.28661 36.5791 8.428 36.6665C8.56939 36.7538 8.73222 36.8004 8.89843 36.8009H10.7615C10.9282 39.0225 11.3944 41.2114 12.1476 43.308C13.3621 46.6468 15.2938 49.6786 17.8068 52.1899C20.3198 54.7013 23.3529 56.6311 26.6925 57.8435L27.3045 56.1514C23.0983 54.6375 19.441 51.9004 16.8026 48.2917C14.1642 44.6831 12.6654 40.3679 12.4986 35.9008C12.4986 35.6621 12.4038 35.4332 12.235 35.2644C12.0662 35.0956 11.8373 35.0008 11.5986 35.0008H10.6985L14.2988 30.2037L16.3959 32.9937L16.4499 33.0747L17.899 35.0008H16.9989C16.8777 35.0013 16.7578 35.0262 16.6464 35.0742C16.5351 35.1221 16.4345 35.1921 16.3509 35.2798C16.2658 35.3678 16.1995 35.4723 16.1562 35.5868C16.1129 35.7014 16.0934 35.8235 16.0989 35.9458C16.1977 38.1452 16.6884 40.3092 17.5479 42.336C19.4811 46.8889 23.1137 50.5084 27.6736 52.4253C28.5493 52.7939 29.452 53.0948 30.3737 53.3253L28.1596 54.9814C28.0478 55.0652 27.9571 55.1739 27.8946 55.2989C27.8321 55.4239 27.7996 55.5617 27.7996 55.7014C27.7996 55.8411 27.8321 55.9789 27.8946 56.1039C27.9571 56.2289 28.0478 56.3376 28.1596 56.4214L35.36 61.8216C35.4944 61.9217 35.654 61.9824 35.821 61.9967C35.988 62.011 36.1556 61.9784 36.3051 61.9026C36.4535 61.8278 36.5783 61.7134 36.6657 61.572C36.7531 61.4306 36.7996 61.2678 36.8001 61.1016V59.2385C39.0218 59.0719 41.2107 58.6057 43.3075 57.8525C46.6463 56.6381 49.6782 54.7064 52.1897 52.1934C54.7011 49.6805 56.631 46.6475 57.8434 43.308L56.1513 42.696C54.6373 46.9021 51.9001 50.5593 48.2913 53.1976C44.6826 55.8359 40.3673 57.3348 35.9 57.5015C35.6613 57.5015 35.4324 57.5963 35.2636 57.7651C35.0948 57.9339 35 58.1628 35 58.4015V59.3015L30.2027 55.7014L32.9929 53.6044L33.0739 53.5504L35 52.1013V53.0013C35.0005 53.1226 35.0254 53.2425 35.0734 53.3538C35.1213 53.4652 35.1912 53.5657 35.279 53.6494C35.367 53.7345 35.4715 53.8007 35.586 53.844C35.7006 53.8874 35.8227 53.9069 35.945 53.9014C38.1444 53.8025 40.3085 53.3118 42.3354 52.4523C46.8884 50.5192 50.5081 46.8868 52.425 42.327C52.7936 41.4513 53.0945 40.5486 53.3251 39.6269L54.9812 41.841C55.065 41.9528 55.1737 42.0435 55.2987 42.106C55.4237 42.1685 55.5615 42.201 55.7012 42.201C55.841 42.201 55.9788 42.1685 56.1037 42.106C56.2287 42.0435 56.3374 41.9528 56.4213 41.841L61.8216 34.6408C61.9217 34.5064 61.9824 34.3468 61.9967 34.1798C62.011 34.0128 61.9784 33.8452 61.9026 33.6958C61.8278 33.5473 61.7134 33.4225 61.572 33.3351C61.4306 33.2478 61.2678 33.2013 61.1016 33.2007ZM41.6334 50.7693C40.0932 51.4201 38.4639 51.8358 36.8001 52.0023V50.3013C36.7996 50.135 36.7531 49.9722 36.6657 49.8308C36.5783 49.6895 36.4535 49.575 36.3051 49.5002C36.1556 49.4244 35.988 49.3918 35.821 49.4061C35.654 49.4205 35.4944 49.4811 35.36 49.5812L32.2998 51.8763C30.9519 51.6669 29.6342 51.2952 28.3756 50.7693C24.2577 49.0257 20.9787 45.75 19.231 41.634C18.5802 40.0938 18.1645 38.4646 17.998 36.8009H19.6991C19.8653 36.8004 20.0281 36.7538 20.1695 36.6665C20.3109 36.5791 20.4253 36.4543 20.5001 36.3058C20.5759 36.1564 20.6085 35.9888 20.5942 35.8218C20.5799 35.6548 20.5193 35.4952 20.4191 35.3608L18.124 32.3007C18.3334 30.9528 18.7051 29.6352 19.231 28.3766C20.9747 24.2589 24.2505 20.98 28.3666 19.2323C29.9068 18.5815 31.5361 18.1658 33.1999 17.9993V19.7003C33.2004 19.8666 33.2469 20.0294 33.3343 20.1708C33.4217 20.3121 33.5465 20.4266 33.6949 20.5014C33.8444 20.5772 34.012 20.6098 34.179 20.5955C34.3459 20.5811 34.5056 20.5205 34.64 20.4204L37.7002 18.1253C39.0481 18.3347 40.3657 18.7064 41.6244 19.2323C45.7422 20.9759 49.0212 24.2516 50.7689 28.3676C51.4198 29.9078 51.8355 31.537 52.002 33.2007H50.3009C50.1347 33.2013 49.9719 33.2478 49.8305 33.3351C49.6891 33.4225 49.5746 33.5473 49.4999 33.6958C49.424 33.8452 49.3915 34.0128 49.4058 34.1798C49.4201 34.3468 49.4807 34.5064 49.5809 34.6408L51.876 37.7009C51.6666 39.0488 51.2949 40.3664 50.7689 41.625C49.0253 45.7427 45.7495 49.0216 41.6334 50.7693Z" fill="#FFD966"/>
<path d="M42.3847 24.498H40.5386V23.0368C40.5613 22.5226 40.3698 22.0206 40.0054 21.6392C39.6409 21.2578 39.1329 21.0275 38.5909 20.998H31.4094C30.8674 21.0275 30.3593 21.2578 29.9949 21.6392C29.6305 22.0206 29.439 22.5226 29.4617 23.0368V24.498H27.6155C26.3914 24.498 25.2175 24.959 24.3519 25.7795C23.4864 26.5999 23.0001 27.7127 23.0001 28.873C23.0001 29.1051 23.0974 29.3277 23.2705 29.4918C23.4436 29.6559 23.6784 29.748 23.9232 29.748H24.9294L26.6186 47.4055C26.6602 47.8418 26.8729 48.2475 27.2147 48.5423C27.5565 48.8372 28.0026 48.9998 28.4647 48.998H41.5447C42.0069 48.9998 42.453 48.8372 42.7948 48.5423C43.1366 48.2475 43.3493 47.8418 43.3909 47.4055L45.0709 29.748H46.0771C46.3219 29.748 46.5567 29.6559 46.7298 29.4918C46.9029 29.3277 47.0001 29.1051 47.0001 28.873C47.0001 27.7127 46.5139 26.5999 45.6483 25.7795C44.7828 24.959 43.6088 24.498 42.3847 24.498ZM31.3078 23.0368C31.3049 22.9322 31.3409 22.83 31.4094 22.748H38.5724C38.6145 22.7842 38.6472 22.829 38.668 22.8791C38.6889 22.9292 38.6972 22.9832 38.6924 23.0368V24.498H31.3078V23.0368ZM27.6155 26.248H42.3847C42.9577 26.2478 43.5166 26.4159 43.9844 26.7293C44.4523 27.0428 44.8061 27.486 44.9971 27.998H25.0032C25.1942 27.486 25.548 27.0428 26.0158 26.7293C26.4837 26.4159 27.0426 26.2478 27.6155 26.248ZM41.5447 47.248H28.4555L26.7847 29.748H43.2155L41.5447 47.248Z" fill="#FFD966"/>
<path d="M37.7595 41.234H36.0002V43H39.199C39.3418 43.0003 39.4822 42.9584 39.6054 42.8785C39.7286 42.7986 39.8302 42.6837 39.8996 42.5458C39.969 42.4079 40.0037 42.252 40 42.0943C39.9963 41.9365 39.9544 41.7828 39.8787 41.649L38.3833 39L37.0238 39.936L37.7595 41.234Z" fill="#FFD966"/>
<path d="M30.8208 42.9995H34.0002V41.2337H32.2595L32.9908 39.9359L31.6157 39L30.1213 41.6487C30.0449 41.7844 30.0031 41.9406 30.0004 42.1007C29.9977 42.2607 30.0342 42.4185 30.1061 42.5573C30.1779 42.696 30.2824 42.8105 30.4083 42.8884C30.5342 42.9663 30.6768 43.0047 30.8208 42.9995Z" fill="#FFD966"/>
<path d="M35.0074 36.5519L35.7454 38L37 37.064L35.6125 34.415C35.5481 34.2915 35.4591 34.189 35.3535 34.1166C35.2479 34.0442 35.129 34.0041 35.0074 34C34.882 33.9997 34.7585 34.0376 34.6488 34.1103C34.539 34.1829 34.4465 34.2878 34.3801 34.415L33 37.064L34.2694 38L35.0074 36.5519Z" fill="#FFD966"/>
</svg>
