<svg width="70" height="70" viewBox="0 0 70 70" fill="none" xmlns="http://www.w3.org/2000/svg">
<path d="M24.5735 25.1899C24.8381 25.3489 25.1533 25.3932 25.4497 25.3131C25.7461 25.2331 25.9995 25.0352 26.1541 24.763L28.1966 21.1644C28.3168 20.958 28.48 20.7817 28.6745 20.648C28.869 20.5144 29.0898 20.4269 29.3212 20.3917C29.5525 20.3565 29.7886 20.3746 30.0123 20.4447C30.236 20.5148 30.4419 20.635 30.6149 20.7968L31.9861 23.1675C31.7385 23.2335 31.5193 23.3824 31.3631 23.5907C31.2069 23.7991 31.1226 24.055 31.1234 24.3182C31.1243 24.5814 31.2103 24.8367 31.3678 25.044C31.5253 25.2513 31.7455 25.3987 31.9935 25.463C32.1479 25.4917 34.1669 26.0371 34.2752 25.998C34.5258 25.9978 34.7695 25.9139 34.9697 25.7588C35.1698 25.6038 35.3156 25.386 35.3851 25.1383L35.9586 23.0947C36.0276 22.8371 36.0102 22.5631 35.9092 22.3169C35.8081 22.0707 35.6294 21.8668 35.4019 21.738C35.1743 21.6092 34.9112 21.5631 34.6551 21.6072C34.3989 21.6512 34.1647 21.7828 33.9902 21.9807L32.5343 19.4637C32.1851 19.0228 31.748 18.6641 31.2526 18.412C30.7571 18.1598 30.2148 18.02 29.6623 18.002C29.1099 17.984 28.5601 18.0882 28.0501 18.3076C27.5401 18.527 27.0819 18.8565 26.7063 19.2738C26.2834 19.6361 24.4934 23.0381 24.158 23.5629C24.0814 23.6978 24.0314 23.8469 24.0108 24.0017C23.9902 24.1565 23.9995 24.3139 24.0381 24.465C24.0767 24.6161 24.1438 24.7579 24.2357 24.8823C24.3275 25.0067 24.4423 25.1112 24.5735 25.1899Z" fill="#FFD966"/>
<path d="M34.6456 28.7003L35.4255 29.9572C35.565 30.1898 35.639 30.4533 35.64 30.7217C35.641 30.9901 35.569 31.2541 35.4312 31.4876C35.2934 31.7212 35.0945 31.9163 34.8541 32.0537C34.6137 32.191 34.3401 32.2659 34.0604 32.2709L32.7401 32.2785C32.8113 32.0363 32.7961 31.7782 32.697 31.5451C32.5979 31.3121 32.4205 31.1174 32.193 30.9921C31.9654 30.8667 31.7008 30.8178 31.441 30.8532C31.1812 30.8885 30.9411 31.006 30.7588 31.187L29.3177 32.6643C29.1102 32.8774 28.9964 33.1591 29.0001 33.4506C29.0037 33.7422 29.1245 34.0212 29.3373 34.2294L30.8142 35.6741C31.0006 35.8507 31.2431 35.9627 31.5033 35.9922C31.7636 36.0217 32.0266 35.9671 32.2508 35.8371C32.4751 35.7071 32.6477 35.5091 32.7414 35.2744C32.835 35.0396 32.8444 34.7817 32.7681 34.5413C33.7251 34.6252 34.6899 34.5182 35.6017 34.2271C36.1198 34.0129 36.5844 33.6952 36.9644 33.2952C37.3444 32.8952 37.6312 32.4221 37.8056 31.9074C37.98 31.3927 38.038 30.8483 37.9758 30.3104C37.9136 29.7725 37.7326 29.2536 37.4448 28.7881L36.6731 27.5434C36.5115 27.2887 36.2517 27.1054 35.95 27.0335C35.6484 26.9615 35.3293 27.0066 35.0622 27.1591C34.7951 27.3115 34.6014 27.5589 34.5234 27.8475C34.4454 28.1361 34.4893 28.4426 34.6456 28.7003Z" fill="#FFD966"/>
<path d="M20.7689 28.748C20.4343 29.3701 20.2519 30.081 20.2403 30.8084C20.2287 31.5358 20.3883 32.2537 20.7029 32.8889C21.0175 33.5242 21.4759 34.0542 22.0314 34.4251C22.5868 34.7959 23.2195 34.9943 23.8652 35L26.9263 34.981C27.2127 34.9792 27.4868 34.8491 27.6882 34.6195C27.8896 34.3899 28.0018 34.0796 28.0001 33.7567C27.9984 33.4339 27.883 33.1251 27.6792 32.8982C27.4755 32.6712 27.2001 32.5448 26.9136 32.5467C26.4032 32.4938 23.6109 32.7211 23.1994 32.4029C23.0205 32.3055 22.8613 32.1678 22.7314 31.9983C22.6016 31.8288 22.504 31.6311 22.4446 31.4175C22.3852 31.2038 22.3653 30.9787 22.3862 30.756C22.407 30.5334 22.4681 30.3179 22.5658 30.1229C22.7213 30.3256 22.932 30.4646 23.1651 30.5181C23.3982 30.5715 23.6404 30.5364 23.8538 30.4182C24.0673 30.3001 24.24 30.1055 24.3449 29.865C24.4498 29.6244 24.481 29.3515 24.4336 29.0889L24.0264 26.9619C23.9693 26.6541 23.8081 26.3835 23.5769 26.2074C23.3457 26.0313 23.0628 25.9636 22.788 26.0187L20.884 26.3854C20.6458 26.435 20.4293 26.5734 20.2692 26.7784C20.1092 26.9834 20.015 27.2431 20.0017 27.5156C19.9885 27.7882 20.0569 28.0579 20.196 28.2814C20.3352 28.5049 20.5369 28.6692 20.7689 28.748Z" fill="#FFD966"/>
<path d="M65.8571 38.4932C65.7071 38.4931 65.5584 38.523 65.4198 38.5811C65.2811 38.6392 65.1551 38.7243 65.0489 38.8317C64.9428 38.939 64.8586 39.0665 64.8012 39.2067C64.7438 39.347 64.7143 39.4973 64.7143 39.6491V44.7816C64.7121 45.4481 64.4486 46.0866 63.9816 46.5568C63.5146 47.0271 62.8822 47.2907 62.2233 47.29H60.7107C60.3014 45.8431 59.4374 44.5704 58.2494 43.6644C57.0614 42.7584 55.614 42.2683 54.1262 42.2683C52.6384 42.2683 51.191 42.7584 50.003 43.6645C48.8151 44.5706 47.9511 45.8433 47.5419 47.2902L33.6237 47.29C33.2181 45.8429 32.3567 44.5692 31.1704 43.6623C29.9842 42.7553 28.5377 42.2646 27.0507 42.2646C25.5637 42.2646 24.1172 42.7554 22.931 43.6624C21.7447 44.5694 20.8834 45.8431 20.4778 47.2902L19.4235 47.29C19.1629 47.2898 18.913 47.185 18.7287 46.9987C18.5443 46.8123 18.4406 46.5596 18.4403 46.296V41.4065C18.9815 41.0084 20.2854 39.6182 20.7036 39.7067H28.6924C29.3056 39.6425 29.662 40.6644 29.9524 41.0529C30.2329 41.5076 30.6232 41.8826 31.0865 42.1426C31.5499 42.4026 32.071 42.539 32.6008 42.5391L42.4411 42.4352C43.248 42.4247 44.0186 42.0942 44.587 41.5147C45.1554 40.9353 45.4761 40.1533 45.4801 39.337V17.0963C45.4779 16.2734 45.153 15.485 44.5768 14.9042C44.0006 14.3233 43.22 13.9974 42.4065 13.998H18.5429C17.8862 13.9984 17.2469 14.2118 16.7189 14.6069C16.191 15.002 15.8023 15.558 15.6099 16.1932L15.0104 18.1969L5.10224 24.9618C4.65228 25.2692 4.2723 25.6701 3.98766 26.1377C3.70302 26.6054 3.52026 27.1291 3.45158 27.6739L3.03083 31.012C2.91096 31.9595 3.14323 32.9182 3.68261 33.7022L7.56935 39.3656C7.26979 39.6791 7.03668 40.0512 6.8843 40.4591C6.73193 40.867 6.66349 41.3021 6.68319 41.7376C6.70288 42.1732 6.8103 42.6001 6.99885 42.9922C7.18741 43.3843 7.45313 43.7334 7.77974 44.0179C11.656 47.6863 12.5545 46.5727 16.1546 43.3736V46.296C16.1556 47.1726 16.5004 48.013 17.1132 48.6327C17.726 49.2525 18.5569 49.6011 19.4235 49.602H20.2419C20.3141 50.7305 20.6602 51.8236 21.2493 52.7848C21.8385 53.7459 22.6527 54.5454 23.6199 55.1127C23.8823 55.2585 24.1909 55.2944 24.4792 55.2126C24.7675 55.1308 25.0125 54.9378 25.1616 54.6752C25.3108 54.4125 25.352 54.1012 25.2766 53.8081C25.2012 53.515 25.015 53.2635 24.7582 53.1077C23.8578 52.5711 23.1671 51.7377 22.8019 50.7471C22.4367 49.7566 22.4193 48.6692 22.7525 47.6673C23.0857 46.6653 23.7493 45.8096 24.632 45.2437C25.5148 44.6778 26.5631 44.436 27.6011 44.5589C28.6392 44.6818 29.6039 45.1619 30.3336 45.9187C31.0633 46.6755 31.5136 47.663 31.6091 48.7158C31.7045 49.7685 31.4393 50.8224 30.8579 51.7009C30.2764 52.5793 29.4141 53.2289 28.4155 53.5407C28.1309 53.6368 27.8951 53.8422 27.759 54.1126C27.6229 54.383 27.5974 54.6967 27.6879 54.986C27.7785 55.2753 27.9779 55.517 28.2431 55.6588C28.5083 55.8007 28.818 55.8314 29.1054 55.7443C30.418 55.3258 31.5745 54.515 32.4225 53.4185C33.2704 52.322 33.7701 50.9914 33.8556 49.602H47.3103C48.0668 58.1235 60.1794 58.1367 60.9422 49.6019L62.2233 49.602C63.4883 49.602 64.7016 49.0946 65.5971 48.1909C66.4926 47.2872 66.9971 46.0611 67 44.7816V39.6491C67 39.4973 66.9705 39.347 66.9131 39.2067C66.8557 39.0665 66.7715 38.939 66.6653 38.8317C66.5592 38.7243 66.4332 38.6392 66.2945 38.5811C66.1559 38.523 66.0072 38.4931 65.8571 38.4932ZM12.1356 43.7978C11.9931 43.9193 11.8133 43.987 11.6269 43.9895C11.4405 43.992 11.259 43.929 11.1133 43.8113L9.235 42.2354C9.08292 42.1063 8.9853 41.9234 8.96206 41.724C8.93883 41.5246 8.99175 41.3237 9.11 41.1624L11.2383 38.1455C11.7136 37.7371 13.0603 32.4493 13.3176 31.7989C13.4002 31.507 13.366 31.1939 13.2222 30.9273C13.0785 30.6608 12.8368 30.4621 12.5494 30.3743C12.262 30.2865 11.952 30.3167 11.6865 30.4582C11.4209 30.5997 11.221 30.8412 11.13 31.1306L9.52405 36.5103C9.37369 36.8148 9.19117 37.102 8.97968 37.3668L5.55982 32.3836C5.34358 32.069 5.25051 31.6845 5.29866 31.3044L5.71942 27.9657C5.74698 27.7472 5.82025 27.5371 5.93437 27.3495C6.04849 27.1618 6.20083 27.0009 6.38124 26.8775L13.9616 21.7019L12.524 26.5067C12.441 26.7987 12.475 27.112 12.6187 27.3789C12.7624 27.6457 13.0042 27.8446 13.2918 27.9325C13.5794 28.0203 13.8896 27.9901 14.1553 27.8483C14.421 27.7065 14.6208 27.4646 14.7115 27.1749L17.7996 16.8575C17.8491 16.6977 17.9481 16.5582 18.0819 16.4596C18.2157 16.3611 18.3774 16.3086 18.5429 16.31H42.4065C42.614 16.3089 42.8134 16.391 42.9611 16.5384C43.1088 16.6858 43.1927 16.8864 43.1944 17.0963V39.337C43.1926 39.5451 43.11 39.744 42.9645 39.8911C42.819 40.0381 42.6222 40.1215 42.4166 40.1233L32.5696 40.2271C31.9512 40.3148 31.6038 39.2588 31.3095 38.8787C31.0357 38.4251 30.6511 38.0504 30.1928 37.7905C29.7345 37.5307 29.2178 37.3944 28.6924 37.3948H20.7036C19.9773 37.4033 19.2759 37.6642 18.7171 38.1337L12.1356 43.7978ZM54.1262 53.7421C52.9256 53.7313 51.7779 53.2412 50.9327 52.3786C50.0875 51.516 49.6134 50.3507 49.6134 49.1362C49.6134 47.9218 50.0876 46.7565 50.9328 45.8939C51.778 45.0313 52.9257 44.5413 54.1263 44.5304C55.3269 44.5413 56.4747 45.0314 57.3199 45.894C58.165 46.7566 58.6392 47.9219 58.6392 49.1363C58.6392 50.3508 58.165 51.5161 57.3198 52.3787C56.4746 53.2412 55.3268 53.7313 54.1262 53.7421Z" fill="#FFD966"/>
<path d="M49.143 41.998C49.2931 41.9981 49.4417 41.9689 49.5804 41.912C49.7191 41.8552 49.8451 41.7719 49.9513 41.6668C50.0574 41.5618 50.1416 41.4371 50.199 41.2999C50.2564 41.1626 50.286 41.0155 50.2859 40.867V36.8761H58.3437C58.6468 36.8761 58.9375 36.757 59.1519 36.5448C59.3662 36.3327 59.4866 36.045 59.4866 35.745C59.4866 35.4451 59.3662 35.1574 59.1519 34.9452C58.9375 34.7331 58.6468 34.614 58.3437 34.614H50.2859V23.075C50.2863 22.859 50.3732 22.6519 50.5276 22.4992C50.682 22.3464 50.8914 22.2606 51.1097 22.2604C52.7323 22.1061 54.3698 22.2711 55.9278 22.7457C57.4858 23.2204 58.9335 23.9954 60.1875 25.0261C61.4415 26.0569 62.477 27.3229 63.2345 28.7514C63.992 30.1798 64.4564 31.7425 64.6009 33.3493C64.7788 34.3382 64.3237 36.2661 65.8914 36.2741C67.4888 36.1569 66.8955 34.1545 66.878 33.1443C66.5798 29.5502 64.9222 26.1999 62.2362 23.7627C59.5503 21.3256 56.034 19.9812 52.3899 19.9982H51.1097C50.2853 19.9991 49.4949 20.3235 48.912 20.9003C48.329 21.4771 48.001 22.2592 48 23.075V40.867C48 41.0155 48.0295 41.1626 48.0869 41.2999C48.1444 41.4371 48.2285 41.5618 48.3347 41.6669C48.4408 41.7719 48.5668 41.8552 48.7055 41.912C48.8442 41.9689 48.9929 41.9981 49.143 41.998Z" fill="#FFD966"/>
<path d="M54.8082 23.9987H53.138C52.8347 24.0031 52.5453 24.129 52.3324 24.3492C52.1195 24.5694 52.0001 24.8662 52.0001 25.1754C52.0001 25.4846 52.1195 25.7814 52.3324 26.0015C52.5454 26.2217 52.8348 26.3476 53.138 26.352H54.8082C56.2637 26.3474 57.6671 26.9039 58.7372 27.9097C59.8073 28.9156 60.465 30.2966 60.5785 31.776C60.7797 32.8409 60.1612 34.9056 61.7834 34.998C62.0895 35.0019 62.3846 34.8818 62.6039 34.6641C62.8232 34.4464 62.9489 34.1489 62.9532 33.8368C63.4464 28.7651 60.0034 23.9329 54.8082 23.9987Z" fill="#FFD966"/>
<path d="M54.4998 48C54.1001 48.0054 53.7187 48.1658 53.438 48.4466C53.1572 48.7273 52.9999 49.1057 52.9999 49.5C52.9999 49.8943 53.1573 50.2728 53.438 50.5535C53.7187 50.8342 54.1002 50.9946 54.4999 51C54.8996 50.9946 55.2811 50.8342 55.5618 50.5534C55.8425 50.2727 55.9999 49.8943 55.9999 49.5C55.9999 49.1057 55.8425 48.7272 55.5618 48.4465C55.281 48.1658 54.8996 48.0054 54.4998 48Z" fill="#FFD966"/>
<path d="M28 49.5C27.9942 49.1001 27.8336 48.7186 27.5529 48.438C27.2722 48.1573 26.894 48 26.5 48C26.1059 48 25.7277 48.1574 25.4471 48.438C25.1664 48.7187 25.0058 49.1002 25 49.5C25.0058 49.8999 25.1664 50.2814 25.4471 50.562C25.7278 50.8427 26.106 51 26.5 51C26.8941 51 27.2723 50.8426 27.5529 50.562C27.8336 50.2813 27.9942 49.8998 28 49.5Z" fill="#FFD966"/>
<path d="M53.2981 37.9961C52.9522 37.9998 52.6221 38.1068 52.3792 38.2939C52.1363 38.4811 52.0001 38.7333 52.0001 38.9961C52.0001 39.2589 52.1363 39.5111 52.3792 39.6983C52.6221 39.8854 52.9522 39.9924 53.2981 39.9961H55.7022C56.0481 39.9924 56.3782 39.8854 56.6211 39.6982C56.864 39.5111 57.0001 39.2589 57.0001 38.9961C57.0001 38.7333 56.8639 38.481 56.621 38.2939C56.3781 38.1068 56.048 37.9998 55.7021 37.9961H53.2981Z" fill="#FFD966"/>
</svg>
