<svg width="26" height="18" viewBox="0 0 26 18" fill="none" xmlns="http://www.w3.org/2000/svg">
<path d="M23.3421 17.6731H2.72393C2.05375 17.6724 1.41124 17.4124 0.937379 16.9503C0.463514 16.4882 0.196992 15.8616 0.196289 15.2081V2.79118C0.196992 2.13767 0.463514 1.51112 0.937379 1.049C1.41124 0.586874 2.05375 0.32692 2.72393 0.326172H23.3421C24.0123 0.32692 24.6548 0.586874 25.1287 1.049C25.6025 1.51112 25.869 2.13767 25.8697 2.79118V15.2081C25.869 15.8616 25.6025 16.4882 25.1287 16.9503C24.6548 17.4124 24.0123 17.6724 23.3421 17.6731ZM2.72393 1.26827C2.30989 1.26871 1.91293 1.42931 1.62018 1.71482C1.32743 2.00033 1.1628 2.38744 1.16242 2.79118V15.2081C1.1628 15.6118 1.32743 15.999 1.62018 16.2845C1.91293 16.57 2.30989 16.7306 2.72393 16.731H23.3421C23.7562 16.7306 24.1531 16.57 24.4459 16.2845C24.7386 15.999 24.9032 15.6118 24.9036 15.2081V2.79118C24.9032 2.38744 24.7386 2.00033 24.4459 1.71482C24.1531 1.42931 23.7562 1.26871 23.3421 1.26827H2.72393Z" fill="#252525"/>
<path d="M13.0329 11.7713C12.9152 11.7713 12.8015 11.7295 12.7132 11.6535L1.07129 1.63236L1.71063 0.925781L13.0329 10.6728L24.3558 0.926959L24.9951 1.63354L13.3532 11.6547C13.2647 11.7304 13.1507 11.7719 13.0329 11.7713Z" fill="#252525"/>
<path d="M0.808594 16.1948L8.62942 7.50504L9.35619 8.12683L1.53537 16.8163L0.808594 16.1948ZM16.7345 8.11788L17.4611 7.49609L25.2821 16.1853L24.5556 16.8071L16.7345 8.11788Z" fill="#252525"/>
</svg>
