<svg width="24" height="24" viewBox="0 0 24 24" fill="none" xmlns="http://www.w3.org/2000/svg">
<path d="M22.8479 18.2158L18.2133 15.1248C17.6251 14.7357 16.8367 14.8637 16.4019 15.419L15.0519 17.1549C14.968 17.2656 14.8469 17.3422 14.711 17.3708C14.5751 17.3995 14.4334 17.3781 14.312 17.3106L14.0552 17.169C13.2039 16.705 12.1447 16.1273 10.0105 13.9922C7.87636 11.8571 7.29751 10.797 6.83349 9.94721L6.69268 9.69039C6.62433 9.56901 6.60213 9.42701 6.63017 9.29055C6.65821 9.1541 6.73461 9.03237 6.8453 8.94778L8.57992 7.59807C9.13494 7.16318 9.26314 6.37496 8.87451 5.78659L5.78374 1.15163C5.38546 0.552483 4.58638 0.372623 3.96979 0.7433L2.03176 1.90756C1.42281 2.26557 0.976072 2.84541 0.785168 3.52555C0.087286 6.06854 0.612296 10.4574 7.07697 16.9233C12.2195 22.0657 16.0478 23.4487 18.6792 23.4487C19.2848 23.4513 19.888 23.3725 20.4726 23.2144C21.1528 23.0237 21.7327 22.5769 22.0905 21.9677L23.2558 20.0307C23.627 19.4139 23.4473 18.6143 22.8479 18.2158ZM22.5983 19.6391L21.4357 21.5773C21.1787 22.017 20.7617 22.3403 20.2718 22.4794C17.9244 23.124 13.8232 22.5901 7.61687 16.3833C1.41052 10.1765 0.876746 6.07543 1.52124 3.72745C1.66059 3.23695 1.98422 2.81935 2.42441 2.56203L4.36244 1.39928C4.62998 1.2383 4.9768 1.31633 5.14962 1.57633L6.82858 4.09719L8.23775 6.21088C8.40651 6.4661 8.35106 6.80815 8.11031 6.997L6.37529 8.34671C5.84728 8.75048 5.6965 9.48106 6.02159 10.0609L6.15936 10.3112C6.64703 11.2057 7.25333 12.3184 9.46686 14.5318C11.6804 16.7451 12.7927 17.3514 13.6867 17.8391L13.9374 17.9772C14.5171 18.3023 15.2477 18.1516 15.6514 17.6235L17.0011 15.8884C17.1899 15.6477 17.5318 15.5923 17.7871 15.7609L22.4213 18.8519C22.6815 19.0246 22.7595 19.3716 22.5983 19.6391ZM13.5256 4.36855C17.1065 4.37253 20.0084 7.27466 20.0124 10.8558C20.0124 11.0666 20.1832 11.2374 20.394 11.2374C20.6047 11.2374 20.7755 11.0666 20.7755 10.8558C20.7711 6.85332 17.5278 3.60975 13.5256 3.60537C13.3149 3.60537 13.144 3.7762 13.144 3.98696C13.144 4.19772 13.3149 4.36855 13.5256 4.36855Z" fill="#252525"/>
<path d="M13.5251 6.65771C15.8421 6.66044 17.7197 8.53819 17.7225 10.8554C17.7225 10.9566 17.7627 11.0536 17.8342 11.1252C17.9058 11.1967 18.0028 11.2369 18.104 11.2369C18.2052 11.2369 18.3023 11.1967 18.3738 11.1252C18.4454 11.0536 18.4856 10.9566 18.4856 10.8554C18.4824 8.11685 16.2634 5.89766 13.5251 5.89453C13.3144 5.89453 13.1436 6.06536 13.1436 6.27612C13.1436 6.48688 13.3144 6.65771 13.5251 6.65771Z" fill="#252525"/>
<path d="M13.5251 8.94872C14.5783 8.94998 15.4317 9.80348 15.433 10.8568C15.433 10.958 15.4732 11.055 15.5448 11.1266C15.6163 11.1981 15.7134 11.2383 15.8146 11.2383C15.9158 11.2383 16.0128 11.1981 16.0844 11.1266C16.1559 11.055 16.1961 10.958 16.1961 10.8568C16.1944 9.38219 14.9996 8.1872 13.5251 8.18555C13.3144 8.18555 13.1436 8.35637 13.1436 8.56714C13.1436 8.7779 13.3144 8.94872 13.5251 8.94872Z" fill="#252525"/>
</svg>
