<svg width="16" height="16" viewBox="0 0 16 16" fill="none" xmlns="http://www.w3.org/2000/svg">
<g clip-path="url(#clip0_316_690)">
<path d="M7.42999 1.25523C7.56303 0.935356 8.01616 0.935357 8.1492 1.25523L9.75858 5.12463C9.81467 5.25948 9.94148 5.35162 10.0871 5.36329L14.2644 5.69819C14.6097 5.72587 14.7498 6.15683 14.4867 6.3822L11.304 9.10852C11.193 9.20354 11.1446 9.35262 11.1785 9.49468L12.1509 13.5711C12.2312 13.908 11.8647 14.1744 11.569 13.9938L7.99261 11.8094C7.86797 11.7332 7.71122 11.7332 7.58658 11.8094L4.01019 13.9938C3.71454 14.1744 3.34795 13.908 3.42833 13.5711L4.4007 9.49468C4.43458 9.35262 4.38614 9.20354 4.27523 9.10852L1.09253 6.3822C0.829423 6.15683 0.96945 5.72587 1.31478 5.69819L5.49213 5.36329C5.63771 5.35162 5.76452 5.25948 5.82061 5.12463L7.42999 1.25523Z" fill="#FDB022"/>
</g>
<defs>
<clipPath id="clip0_316_690">
<rect width="15.5789" height="15.5789" fill="white"/>
</clipPath>
</defs>
</svg>
