<svg width="52" height="47" viewBox="0 0 52 47" fill="none" xmlns="http://www.w3.org/2000/svg">
<path d="M22.3891 2.07189V10.511C22.3891 11.6555 21.4352 12.5829 20.2583 12.5829C16.0596 12.5829 13.7757 16.7711 13.4592 25.0374H20.2583C21.4352 25.0374 22.3891 25.9656 22.3891 27.1097V44.9284C22.3891 46.0724 21.4352 46.9999 20.2583 46.9999H2.13033C0.953071 46.9999 0 46.0716 0 44.9284V27.1097C0 23.147 0.410246 19.5106 1.21897 16.3003C2.0484 13.0085 3.3216 10.1304 5.00206 7.74556C6.73123 5.29468 8.89418 3.37143 11.4313 2.03161C13.9856 0.683675 16.956 0 20.2591 0C21.4352 0 22.3891 0.927358 22.3891 2.07189ZM49.8691 12.583C51.0453 12.583 52 11.6548 52 10.5111V2.07203C52 0.927503 51.0454 0.000144797 49.8691 0.000144797C46.5673 0.000144797 43.5965 0.683965 41.0431 2.03176C38.5055 3.37158 36.3414 5.29482 34.6119 7.74571C32.932 10.1305 31.6588 13.0088 30.8293 16.3013C30.021 19.5126 29.6107 23.149 29.6107 27.1098V44.9285C29.6107 46.0725 30.565 47 31.7415 47H49.8689C51.0451 47 51.999 46.0718 51.999 44.9285V27.1097C51.999 25.9657 51.0453 25.0374 49.8689 25.0374H43.1667C43.4785 16.7713 45.7291 12.583 49.8691 12.583Z" fill="#148C3E" fill-opacity="0.14"/>
</svg>
